<svg width="37" height="37" viewBox="0 0 37 37" fill="none" xmlns="http://www.w3.org/2000/svg">
<rect width="37" height="37" rx="10" fill="#91B8FF"/>
<path d="M31.1723 20.4931L29.7833 12.9488C29.4545 11.1629 27.901 9.86667 26.0894 9.86667H23.5383C23.3646 9.86667 23.1968 9.9292 23.0655 10.0428L21.5978 11.3124H16.2243L14.7566 10.0428C14.6253 9.9292 14.4575 9.86667 14.2839 9.86667H11.7328C9.92116 9.86667 8.36754 11.1629 8.03883 12.9488L6.64984 20.4931C6.22578 22.7961 7.71556 25.0136 10.0049 25.4843C11.6104 25.8144 13.2349 25.2154 14.2443 23.9211L15.8309 21.8867H21.9913L23.578 23.9211C24.5813 25.2076 26.2019 25.8164 27.8173 25.4843C30.1012 25.0147 31.5973 22.801 31.1723 20.4931ZM14.6133 17.3256H13.5662V18.3726C13.5662 18.7717 13.2427 19.0953 12.8436 19.0953C12.4445 19.0953 12.1209 18.7717 12.1209 18.3726V17.3256H11.0739C10.6748 17.3256 10.3513 17.002 10.3513 16.6029C10.3513 16.2038 10.6748 15.8803 11.0739 15.8803H12.121V14.8332C12.121 14.4341 12.4445 14.1105 12.8436 14.1105C13.2427 14.1105 13.5663 14.4341 13.5663 14.8332V15.8803H14.6133C15.0124 15.8803 15.3359 16.2038 15.3359 16.6029C15.3359 17.002 15.0124 17.3256 14.6133 17.3256ZM25.239 19.3481C23.7254 19.3481 22.4939 18.1166 22.4939 16.6029C22.4939 15.0893 23.7253 13.8578 25.239 13.8578C26.7526 13.8578 27.9841 15.0893 27.9841 16.6029C27.9841 18.1167 26.7527 19.3481 25.239 19.3481Z" fill="#4788F0"/>
</svg>
