<svg width="7" height="7" viewBox="0 0 7 7" fill="none" xmlns="http://www.w3.org/2000/svg">
<path d="M3.29415 4.8469C3.31708 4.87355 3.34777 4.89534 3.38357 4.91039C3.41938 4.92544 3.45922 4.9333 3.49966 4.9333C3.54011 4.9333 3.57995 4.92544 3.61575 4.91039C3.65155 4.89534 3.68224 4.87355 3.70518 4.8469L5.95535 2.24708C5.9814 2.2171 5.99667 2.18197 5.99952 2.14553C6.00236 2.10909 5.99266 2.07272 5.97148 2.04038C5.95029 2.00803 5.91843 1.98095 5.87936 1.96207C5.84028 1.9432 5.79549 1.93325 5.74984 1.9333H1.24948C1.20394 1.93345 1.15931 1.94353 1.12039 1.96245C1.08148 1.98138 1.04974 2.00843 1.02861 2.0407C1.00747 2.07296 0.997737 2.10923 1.00044 2.1456C1.00315 2.18196 1.0182 2.21705 1.04397 2.24708L3.29415 4.8469Z" fill="#29AFE8"/>
</svg>
