<svg width="215" height="49" viewBox="0 0 215 49" fill="none" xmlns="http://www.w3.org/2000/svg">
<path d="M24.2973 11.5951C24.6921 5.08088 30.0902 0 36.6164 0H195C206.046 0 215 8.95431 215 20V29C215 40.0457 206.046 49 195 49H33.9211C28.9941 49 25 45.0059 25 40.0789C25 34.0767 19.192 29.7871 13.4553 31.5522L8.2324 33.1593C6.43244 33.7131 4.77485 34.6526 3.37506 35.9124L0.5 38.5L20.4128 19.8583C22.7163 17.7017 24.1064 14.7448 24.2973 11.5951Z" fill="white"/>
<path d="M42.6513 16H41.245L43.8054 8.72727H45.4318L47.9957 16H46.5895L44.647 10.2188H44.5902L42.6513 16ZM42.6974 13.1484H46.5327V14.2067H42.6974V13.1484ZM48.8968 16V10.5455H51.1873C51.8336 10.5455 52.3438 10.6745 52.7179 10.9325C53.0943 11.1906 53.2825 11.5504 53.2825 12.0121C53.2825 12.3175 53.176 12.5672 52.9629 12.7614C52.7522 12.9531 52.4645 13.0821 52.1 13.1484C52.3864 13.1721 52.6374 13.2443 52.8528 13.3651C53.0706 13.4858 53.2411 13.6444 53.3642 13.8409C53.4873 14.0374 53.5488 14.2635 53.5488 14.5192C53.5488 14.8198 53.4695 15.0814 53.3109 15.304C53.1547 15.5241 52.9262 15.6958 52.6255 15.8189C52.3272 15.9396 51.965 16 51.5389 16H48.8968ZM50.1007 14.9879H51.5389C51.7756 14.9879 51.9615 14.9323 52.0964 14.821C52.2314 14.7074 52.2988 14.5535 52.2988 14.3594C52.2988 14.1345 52.2314 13.9581 52.0964 13.8303C51.9615 13.7 51.7756 13.6349 51.5389 13.6349H50.1007V14.9879ZM50.1007 12.804H51.2122C51.3874 12.804 51.5377 12.7791 51.6632 12.7294C51.7886 12.6773 51.8845 12.6051 51.9508 12.5128C52.0171 12.4181 52.0502 12.3056 52.0502 12.1754C52.0502 11.9884 51.9733 11.8416 51.8194 11.7351C51.6679 11.6286 51.4572 11.5753 51.1873 11.5753H50.1007V12.804ZM54.3114 11.6001V10.5455H59.0842V11.6001H57.3192V16H56.0763V11.6001H54.3114ZM62.2624 16.1065C61.7298 16.1065 61.2681 15.9893 60.8775 15.755C60.4869 15.5206 60.1838 15.1927 59.9684 14.7713C59.7553 14.3499 59.6488 13.8575 59.6488 13.294C59.6488 12.7306 59.7553 12.237 59.9684 11.8132C60.1838 11.3894 60.4869 11.0604 60.8775 10.826C61.2681 10.5916 61.7298 10.4744 62.2624 10.4744C62.7951 10.4744 63.2567 10.5916 63.6474 10.826C64.038 11.0604 64.3398 11.3894 64.5529 11.8132C64.7683 12.237 64.8761 12.7306 64.8761 13.294C64.8761 13.8575 64.7683 14.3499 64.5529 14.7713C64.3398 15.1927 64.038 15.5206 63.6474 15.755C63.2567 15.9893 62.7951 16.1065 62.2624 16.1065ZM62.2695 15.0767C62.5584 15.0767 62.7998 14.9974 62.994 14.8388C63.1881 14.6778 63.3325 14.4624 63.4272 14.1925C63.5243 13.9226 63.5728 13.6219 63.5728 13.2905C63.5728 12.9567 63.5243 12.6548 63.4272 12.3849C63.3325 12.1127 63.1881 11.8961 62.994 11.7351C62.7998 11.5741 62.5584 11.4936 62.2695 11.4936C61.9736 11.4936 61.7274 11.5741 61.5309 11.7351C61.3368 11.8961 61.1912 12.1127 61.0941 12.3849C60.9994 12.6548 60.9521 12.9567 60.9521 13.2905C60.9521 13.6219 60.9994 13.9226 61.0941 14.1925C61.1912 14.4624 61.3368 14.6778 61.5309 14.8388C61.7274 14.9974 61.9736 15.0767 62.2695 15.0767ZM65.9672 18.0455V10.5455H67.2314V11.4474H67.3059C67.3722 11.3149 67.4657 11.174 67.5865 11.0249C67.7072 10.8733 67.8706 10.7443 68.0765 10.6378C68.2825 10.5289 68.5453 10.4744 68.8649 10.4744C69.2863 10.4744 69.6663 10.5821 70.0048 10.7976C70.3457 11.0107 70.6156 11.3267 70.8145 11.7457C71.0157 12.1624 71.1163 12.6738 71.1163 13.2798C71.1163 13.8788 71.0181 14.3878 70.8216 14.8068C70.6251 15.2259 70.3575 15.5455 70.019 15.7656C69.6805 15.9858 69.2969 16.0959 68.8684 16.0959C68.5559 16.0959 68.2967 16.0438 68.0907 15.9396C67.8848 15.8355 67.719 15.71 67.5936 15.5632C67.4705 15.4141 67.3746 15.2732 67.3059 15.1406H67.2527V18.0455H65.9672ZM67.2278 13.2727C67.2278 13.6255 67.2775 13.9344 67.377 14.1996C67.4788 14.4647 67.6243 14.6719 67.8137 14.821C68.0055 14.9678 68.2375 15.0412 68.5098 15.0412C68.7939 15.0412 69.0318 14.9654 69.2235 14.8139C69.4153 14.66 69.5597 14.4505 69.6568 14.1854C69.7562 13.9179 69.8059 13.6136 69.8059 13.2727C69.8059 12.9342 69.7574 12.6335 69.6603 12.3707C69.5633 12.108 69.4189 11.902 69.2271 11.7528C69.0353 11.6037 68.7962 11.5291 68.5098 11.5291C68.2351 11.5291 68.002 11.6013 67.8102 11.7457C67.6184 11.8902 67.4728 12.0926 67.3734 12.353C67.2763 12.6134 67.2278 12.92 67.2278 13.2727ZM73.4565 14.2599L75.6404 10.5455H76.9615V16H75.7186V12.282L73.5417 16H72.2172V10.5455H73.4565V14.2599ZM77.9798 14.505H79.2546C79.2665 14.7086 79.3576 14.866 79.5281 14.9773C79.6985 15.0885 79.9199 15.1442 80.1921 15.1442C80.4691 15.1442 80.7023 15.0838 80.8917 14.9631C81.0835 14.84 81.1793 14.6541 81.1793 14.4055C81.1793 14.2588 81.1426 14.1297 81.0692 14.0185C80.9959 13.9048 80.8929 13.8172 80.7603 13.7557C80.6277 13.6941 80.4715 13.6634 80.2915 13.6634H79.457V12.7507H80.2915C80.5591 12.7507 80.7615 12.6892 80.8988 12.5661C81.0385 12.4429 81.1083 12.2879 81.1083 12.1009C81.1083 11.8996 81.0349 11.7363 80.8881 11.6108C80.7437 11.4853 80.5437 11.4226 80.288 11.4226C80.0323 11.4226 79.8192 11.4806 79.6488 11.5966C79.4807 11.7126 79.3931 11.8617 79.386 12.044H78.1183C78.123 11.7268 78.2177 11.451 78.4023 11.2166C78.5894 10.9822 78.8403 10.8 79.1552 10.6697C79.4724 10.5395 79.8299 10.4744 80.2276 10.4744C80.6538 10.4744 81.0219 10.5384 81.332 10.6662C81.6422 10.794 81.8813 10.9728 82.0494 11.2024C82.2174 11.4297 82.3015 11.6972 82.3015 12.005C82.3015 12.3009 82.2092 12.5459 82.0245 12.7401C81.8398 12.9318 81.5913 13.0691 81.2788 13.152V13.2088C81.4942 13.2206 81.6883 13.2822 81.8612 13.3935C82.034 13.5024 82.1713 13.6503 82.2731 13.8374C82.3749 14.0244 82.4258 14.241 82.4258 14.4872C82.4258 14.821 82.3299 15.1098 82.1381 15.3537C81.9464 15.5952 81.6824 15.781 81.3462 15.9112C81.0124 16.0414 80.6301 16.1065 80.1992 16.1065C79.7802 16.1065 79.4049 16.0438 79.0735 15.9183C78.7444 15.7905 78.4828 15.607 78.2887 15.3679C78.0946 15.1288 77.9916 14.8411 77.9798 14.505ZM84.2369 18.0455C84.0617 18.0455 83.8995 18.0313 83.7504 18.0028C83.6036 17.9768 83.4864 17.946 83.3988 17.9105L83.6971 16.9091C83.8841 16.9635 84.051 16.9896 84.1978 16.9872C84.3446 16.9848 84.4736 16.9387 84.5849 16.8487C84.6985 16.7611 84.7944 16.6143 84.8725 16.4084L84.9826 16.1136L83.0046 10.5455H84.3683L85.6254 14.6648H85.6822L86.9428 10.5455H88.31L86.1261 16.6605C86.0243 16.9493 85.8893 17.1967 85.7212 17.4027C85.5531 17.611 85.3472 17.7696 85.1033 17.8786C84.8619 17.9898 84.573 18.0455 84.2369 18.0455ZM90.4389 14.2599L92.6229 10.5455H93.9439V16H92.701V12.282L90.5241 16H89.1996V10.5455H90.4389V14.2599ZM92.2713 8.67045H93.2337C93.2337 9.08475 93.0833 9.42093 92.7827 9.67898C92.4844 9.93466 92.0795 10.0625 91.5682 10.0625C91.0616 10.0625 90.6579 9.93466 90.3572 9.67898C90.0589 9.42093 89.911 9.08475 89.9134 8.67045H90.8686C90.8686 8.84091 90.9207 8.99361 91.0249 9.12855C91.1314 9.26113 91.3125 9.32741 91.5682 9.32741C91.8191 9.32741 91.9979 9.26113 92.1044 9.12855C92.2133 8.99598 92.2689 8.84328 92.2713 8.67045ZM94.6532 11.6001V10.5455H99.426V11.6001H97.661V16H96.4181V11.6001H94.6532ZM102.64 16.1065C102.093 16.1065 101.621 15.9929 101.223 15.7656C100.827 15.536 100.523 15.2116 100.31 14.7926C100.097 14.3712 99.9906 13.8752 99.9906 13.3047C99.9906 12.7436 100.097 12.2512 100.31 11.8274C100.526 11.4013 100.826 11.0698 101.212 10.8331C101.598 10.594 102.051 10.4744 102.572 10.4744C102.908 10.4744 103.226 10.5289 103.524 10.6378C103.825 10.7443 104.09 10.91 104.319 11.1349C104.551 11.3598 104.734 11.6463 104.866 11.9943C104.999 12.34 105.065 12.7519 105.065 13.2301V13.6243H100.594V12.7578H103.833C103.831 12.5116 103.777 12.2926 103.673 12.1009C103.569 11.9067 103.423 11.754 103.236 11.6428C103.052 11.5315 102.836 11.4759 102.59 11.4759C102.327 11.4759 102.096 11.5398 101.898 11.6676C101.699 11.7931 101.544 11.9588 101.432 12.1648C101.323 12.3684 101.268 12.5921 101.265 12.8359V13.5923C101.265 13.9096 101.323 14.1818 101.439 14.4091C101.555 14.634 101.718 14.8068 101.926 14.9276C102.134 15.0459 102.378 15.1051 102.657 15.1051C102.845 15.1051 103.014 15.0791 103.165 15.027C103.317 14.9725 103.448 14.8932 103.559 14.7891C103.671 14.6849 103.755 14.5559 103.812 14.402L105.012 14.5369C104.936 14.8542 104.792 15.1312 104.579 15.3679C104.368 15.6023 104.098 15.7846 103.769 15.9148C103.44 16.0426 103.064 16.1065 102.64 16.1065ZM108.532 16.1065C107.987 16.1065 107.52 15.987 107.129 15.7479C106.741 15.5088 106.442 15.1785 106.231 14.7571C106.022 14.3333 105.918 13.8456 105.918 13.294C105.918 12.7401 106.025 12.2512 106.238 11.8274C106.451 11.4013 106.752 11.0698 107.14 10.8331C107.531 10.594 107.992 10.4744 108.525 10.4744C108.968 10.4744 109.359 10.5561 109.7 10.7195C110.044 10.8804 110.317 11.1089 110.521 11.4048C110.724 11.6984 110.84 12.0417 110.869 12.4347H109.64C109.59 12.1719 109.472 11.9529 109.285 11.7777C109.1 11.6001 108.853 11.5114 108.543 11.5114C108.28 11.5114 108.049 11.5824 107.85 11.7244C107.651 11.8641 107.496 12.0653 107.385 12.3281C107.276 12.5909 107.222 12.9058 107.222 13.2727C107.222 13.6444 107.276 13.964 107.385 14.2315C107.494 14.4967 107.647 14.7015 107.843 14.8459C108.042 14.9879 108.275 15.0589 108.543 15.0589C108.732 15.0589 108.901 15.0234 109.05 14.9524C109.202 14.879 109.329 14.7737 109.43 14.6364C109.532 14.4991 109.602 14.3321 109.64 14.1357H110.869C110.838 14.5215 110.724 14.8636 110.528 15.1619C110.331 15.4579 110.064 15.6899 109.725 15.858C109.387 16.0237 108.989 16.1065 108.532 16.1065ZM112.794 12.321H114.403C115.099 12.321 115.637 12.4903 116.019 12.8288C116.4 13.1674 116.592 13.6113 116.594 14.1605C116.592 14.518 116.504 14.8352 116.331 15.1122C116.161 15.3892 115.912 15.607 115.585 15.7656C115.261 15.9219 114.867 16 114.403 16H111.924V10.5455H113.164V14.9453H114.403C114.682 14.9453 114.912 14.8743 115.092 14.7322C115.272 14.5878 115.362 14.4032 115.362 14.1783C115.362 13.9415 115.272 13.7486 115.092 13.5994C114.912 13.4503 114.682 13.3757 114.403 13.3757H112.794V12.321ZM119.269 8.72727L119.152 13.8622H118.008L117.895 8.72727H119.269ZM118.58 16.0781C118.364 16.0781 118.18 16.0024 118.026 15.8509C117.874 15.6993 117.799 15.5147 117.799 15.2969C117.799 15.0838 117.874 14.9015 118.026 14.75C118.18 14.5985 118.364 14.5227 118.58 14.5227C118.791 14.5227 118.973 14.5985 119.127 14.75C119.283 14.9015 119.361 15.0838 119.361 15.2969C119.361 15.4413 119.324 15.5727 119.251 15.6911C119.18 15.8094 119.085 15.9041 118.967 15.9751C118.851 16.0438 118.722 16.0781 118.58 16.0781ZM41.9659 28V20.7273H44.4197C44.8932 20.7273 45.2874 20.8101 45.6023 20.9759C45.9195 21.1416 46.1574 21.3677 46.3161 21.6541C46.4747 21.9406 46.554 22.2661 46.554 22.6307C46.554 22.9337 46.5031 23.1929 46.4013 23.4084C46.2995 23.6238 46.161 23.7978 45.9858 23.9304C45.8106 24.063 45.6153 24.1589 45.3999 24.218V24.2749C45.6342 24.2914 45.8615 24.3743 46.0817 24.5234C46.3018 24.6702 46.483 24.8762 46.625 25.1413C46.767 25.4065 46.8381 25.7237 46.8381 26.093C46.8381 26.46 46.7564 26.7879 46.593 27.0767C46.4297 27.3632 46.1787 27.5893 45.8402 27.755C45.504 27.9183 45.0755 28 44.5547 28H41.9659ZM42.63 27.4034H44.5547C45.1158 27.4034 45.5301 27.2791 45.7976 27.0305C46.0675 26.782 46.2024 26.4695 46.2024 26.093C46.2024 25.8161 46.1349 25.5651 46 25.3402C45.8674 25.1129 45.6792 24.933 45.4354 24.8004C45.1939 24.6679 44.9098 24.6016 44.5831 24.6016H42.63V27.4034ZM42.63 24.0121H44.4801C44.7666 24.0121 45.0175 23.9529 45.233 23.8345C45.4484 23.7161 45.6165 23.5528 45.7372 23.3445C45.858 23.1361 45.9183 22.8982 45.9183 22.6307C45.9183 22.2448 45.7929 21.9311 45.5419 21.6896C45.291 21.4458 44.9169 21.3239 44.4197 21.3239H42.63V24.0121ZM50.4398 28.1136C49.9521 28.1136 49.5272 27.9917 49.165 27.7479C48.8051 27.504 48.5257 27.1702 48.3269 26.7464C48.128 26.3227 48.0286 25.8397 48.0286 25.2976C48.0286 24.7507 48.1292 24.2642 48.3304 23.8381C48.534 23.4119 48.8158 23.0781 49.1756 22.8366C49.5355 22.5928 49.9533 22.4709 50.4292 22.4709C50.7937 22.4709 51.124 22.5419 51.4199 22.6839C51.7158 22.8236 51.9597 23.0213 52.1515 23.277C52.3456 23.5303 52.4675 23.8262 52.5172 24.1648H51.878C51.8117 23.857 51.6519 23.5942 51.3986 23.3764C51.1477 23.1562 50.8281 23.0462 50.4398 23.0462C50.0918 23.0462 49.784 23.1409 49.5165 23.3303C49.249 23.5173 49.0395 23.7789 48.888 24.1151C48.7388 24.4489 48.6642 24.8359 48.6642 25.2763C48.6642 25.719 48.7376 26.1108 48.8844 26.4517C49.0312 26.7902 49.2372 27.0554 49.5023 27.2472C49.7698 27.4389 50.0823 27.5348 50.4398 27.5348C50.6813 27.5348 50.9015 27.4898 51.1003 27.3999C51.3016 27.3075 51.4696 27.1773 51.6046 27.0092C51.7419 26.8411 51.8342 26.6411 51.8816 26.4091H52.5208C52.4734 26.7382 52.3562 27.0317 52.1692 27.2898C51.9846 27.5455 51.7443 27.7467 51.4483 27.8935C51.1548 28.0402 50.8186 28.1136 50.4398 28.1136ZM56.0808 28.1136C55.5718 28.1136 55.1315 27.9953 54.7598 27.7585C54.3881 27.5194 54.1004 27.1892 53.8968 26.7678C53.6956 26.344 53.595 25.8563 53.595 25.3047C53.595 24.7554 53.6956 24.2678 53.8968 23.8416C54.1004 23.4131 54.381 23.0781 54.7385 22.8366C55.0983 22.5928 55.5138 22.4709 55.9849 22.4709C56.2808 22.4709 56.5661 22.5253 56.8407 22.6342C57.1154 22.7408 57.3616 22.9053 57.5794 23.1278C57.7995 23.348 57.9735 23.6262 58.1014 23.9624C58.2292 24.2962 58.2931 24.6915 58.2931 25.1484V25.4609H54.0318V24.9034H57.6468C57.6468 24.553 57.5758 24.2382 57.4338 23.9588C57.2941 23.6771 57.0988 23.4545 56.8478 23.2912C56.5993 23.1278 56.3116 23.0462 55.9849 23.0462C55.6393 23.0462 55.335 23.1385 55.0723 23.3232C54.8095 23.5078 54.6035 23.7517 54.4544 24.0547C54.3076 24.3577 54.233 24.6892 54.2306 25.049V25.3828C54.2306 25.8161 54.3052 26.1948 54.4544 26.5192C54.6059 26.8411 54.8201 27.0909 55.0971 27.2685C55.3741 27.446 55.702 27.5348 56.0808 27.5348C56.3388 27.5348 56.5649 27.4946 56.7591 27.4141C56.9556 27.3336 57.1201 27.2259 57.2527 27.0909C57.3876 26.9536 57.4894 26.8033 57.5581 26.6399L58.1582 26.8352C58.0753 27.0649 57.9392 27.2768 57.7498 27.4709C57.5628 27.665 57.3284 27.8213 57.0467 27.9396C56.7673 28.0556 56.4454 28.1136 56.0808 28.1136ZM62.9283 22.5455V23.142H60.3182V28H59.6861V22.5455H62.9283ZM66.0932 28.1136C65.6221 28.1136 65.2054 27.9941 64.8432 27.755C64.4834 27.5159 64.2016 27.1856 63.998 26.7642C63.7944 26.3404 63.6926 25.8516 63.6926 25.2976C63.6926 24.7389 63.7944 24.2476 63.998 23.8239C64.2016 23.3977 64.4834 23.0663 64.8432 22.8295C65.2054 22.5904 65.6221 22.4709 66.0932 22.4709C66.5643 22.4709 66.9798 22.5904 67.3397 22.8295C67.6995 23.0687 67.9812 23.4001 68.1848 23.8239C68.3908 24.2476 68.4938 24.7389 68.4938 25.2976C68.4938 25.8516 68.392 26.3404 68.1884 26.7642C67.9848 27.1856 67.7019 27.5159 67.3397 27.755C66.9798 27.9941 66.5643 28.1136 66.0932 28.1136ZM66.0932 27.5348C66.472 27.5348 66.7928 27.433 67.0556 27.2294C67.3184 27.0258 67.5172 26.7547 67.6522 26.4162C67.7895 26.0777 67.8581 25.7048 67.8581 25.2976C67.8581 24.8904 67.7895 24.5163 67.6522 24.1754C67.5172 23.8345 67.3184 23.5611 67.0556 23.3551C66.7928 23.1491 66.472 23.0462 66.0932 23.0462C65.7168 23.0462 65.396 23.1491 65.1309 23.3551C64.8681 23.5611 64.668 23.8345 64.5307 24.1754C64.3958 24.5163 64.3283 24.8904 64.3283 25.2976C64.3283 25.7048 64.3958 26.0777 64.5307 26.4162C64.668 26.7547 64.8681 27.0258 65.1309 27.2294C65.3936 27.433 65.7144 27.5348 66.0932 27.5348ZM74.8139 28.1136C74.3428 28.1136 73.9261 27.9941 73.5639 27.755C73.2041 27.5159 72.9223 27.1856 72.7188 26.7642C72.5152 26.3404 72.4134 25.8516 72.4134 25.2976C72.4134 24.7389 72.5152 24.2476 72.7188 23.8239C72.9223 23.3977 73.2041 23.0663 73.5639 22.8295C73.9261 22.5904 74.3428 22.4709 74.8139 22.4709C75.285 22.4709 75.7005 22.5904 76.0604 22.8295C76.4202 23.0687 76.7019 23.4001 76.9055 23.8239C77.1115 24.2476 77.2145 24.7389 77.2145 25.2976C77.2145 25.8516 77.1127 26.3404 76.9091 26.7642C76.7055 27.1856 76.4226 27.5159 76.0604 27.755C75.7005 27.9941 75.285 28.1136 74.8139 28.1136ZM74.8139 27.5348C75.1927 27.5348 75.5135 27.433 75.7763 27.2294C76.0391 27.0258 76.2379 26.7547 76.3729 26.4162C76.5102 26.0777 76.5788 25.7048 76.5788 25.2976C76.5788 24.8904 76.5102 24.5163 76.3729 24.1754C76.2379 23.8345 76.0391 23.5611 75.7763 23.3551C75.5135 23.1491 75.1927 23.0462 74.8139 23.0462C74.4375 23.0462 74.1167 23.1491 73.8516 23.3551C73.5888 23.5611 73.3887 23.8345 73.2514 24.1754C73.1165 24.5163 73.049 24.8904 73.049 25.2976C73.049 25.7048 73.1165 26.0777 73.2514 26.4162C73.3887 26.7547 73.5888 27.0258 73.8516 27.2294C74.1143 27.433 74.4351 27.5348 74.8139 27.5348ZM77.9558 29.5518V27.4034H78.4281C78.5465 27.2708 78.6494 27.1276 78.737 26.9737C78.8246 26.8198 78.9004 26.6446 78.9643 26.4482C79.0306 26.2493 79.0862 26.0185 79.1312 25.7557C79.1762 25.4905 79.2141 25.1816 79.2449 24.8288L79.4437 22.5455H82.6717V27.4034H83.4814V29.5518H82.8493V28H78.5914V29.5518H77.9558ZM79.1561 27.4034H82.0396V23.142H80.0332L79.8699 24.8288C79.813 25.4018 79.7325 25.9013 79.6284 26.3274C79.5242 26.7536 79.3668 27.1122 79.1561 27.4034ZM85.3182 27.1016L88.1982 22.5455H88.9545V28H88.3224V23.4439L85.4531 28H84.6861V22.5455H85.3182V27.1016ZM94.3061 24.978V25.5746H91.0994V24.978H94.3061ZM91.2557 22.5455V28H90.6236V22.5455H91.2557ZM94.7713 22.5455V28H94.1392V22.5455H94.7713ZM99.2662 30.0455V22.5455H99.8805V23.5859H99.9551C100.031 23.4226 100.135 23.2557 100.268 23.0852C100.4 22.9124 100.575 22.7668 100.793 22.6484C101.013 22.5301 101.29 22.4709 101.624 22.4709C102.074 22.4709 102.467 22.5893 102.803 22.826C103.142 23.0604 103.404 23.3894 103.591 23.8132C103.781 24.2346 103.876 24.7259 103.876 25.2869C103.876 25.8504 103.781 26.344 103.591 26.7678C103.404 27.1915 103.142 27.5218 102.803 27.7585C102.467 27.9953 102.076 28.1136 101.631 28.1136C101.302 28.1136 101.026 28.0545 100.804 27.9361C100.584 27.8177 100.405 27.6721 100.268 27.4993C100.133 27.3241 100.028 27.1536 99.9551 26.9879H99.8983V30.0455H99.2662ZM99.8912 25.2763C99.8912 25.7166 99.9563 26.1072 100.086 26.4482C100.219 26.7867 100.408 27.053 100.655 27.2472C100.903 27.4389 101.204 27.5348 101.557 27.5348C101.919 27.5348 102.224 27.4354 102.473 27.2365C102.724 27.0353 102.914 26.7642 103.045 26.4233C103.177 26.0824 103.243 25.7 103.243 25.2763C103.243 24.8572 103.178 24.4796 103.048 24.1435C102.92 23.8073 102.731 23.541 102.48 23.3445C102.229 23.1456 101.921 23.0462 101.557 23.0462C101.202 23.0462 100.9 23.142 100.651 23.3338C100.403 23.5232 100.213 23.786 100.083 24.1222C99.9551 24.456 99.8912 24.8407 99.8912 25.2763ZM106.786 28.1243C106.457 28.1243 106.156 28.0604 105.884 27.9325C105.611 27.8023 105.395 27.6153 105.234 27.3714C105.073 27.1252 104.992 26.8269 104.992 26.4766C104.992 26.2067 105.043 25.9794 105.145 25.7947C105.247 25.6101 105.391 25.4586 105.578 25.3402C105.765 25.2218 105.987 25.1283 106.242 25.0597C106.498 24.991 106.78 24.9377 107.088 24.8999C107.393 24.862 107.651 24.8288 107.862 24.8004C108.075 24.772 108.237 24.727 108.348 24.6655C108.459 24.6039 108.515 24.5045 108.515 24.3672V24.2393C108.515 23.8677 108.404 23.5753 108.181 23.3622C107.961 23.1468 107.644 23.0391 107.23 23.0391C106.837 23.0391 106.516 23.1255 106.267 23.2983C106.021 23.4711 105.848 23.6747 105.749 23.9091L105.149 23.6925C105.272 23.3942 105.442 23.1562 105.66 22.9787C105.878 22.7988 106.122 22.6697 106.392 22.5916C106.661 22.5111 106.935 22.4709 107.212 22.4709C107.42 22.4709 107.637 22.4981 107.862 22.5526C108.089 22.607 108.3 22.7017 108.494 22.8366C108.688 22.9692 108.845 23.1551 108.966 23.3942C109.087 23.6309 109.147 23.9316 109.147 24.2962V28H108.515V27.1371H108.476C108.4 27.2981 108.288 27.4543 108.139 27.6058C107.99 27.7573 107.802 27.8816 107.578 27.9787C107.353 28.0758 107.089 28.1243 106.786 28.1243ZM106.871 27.5455C107.207 27.5455 107.498 27.4709 107.744 27.3217C107.991 27.1726 108.18 26.9749 108.313 26.7287C108.448 26.4801 108.515 26.2067 108.515 25.9084V25.12C108.468 25.165 108.388 25.2053 108.277 25.2408C108.168 25.2763 108.042 25.3082 107.897 25.3366C107.755 25.3627 107.613 25.3852 107.471 25.4041C107.329 25.4231 107.201 25.4396 107.088 25.4538C106.78 25.4917 106.517 25.5509 106.299 25.6314C106.081 25.7119 105.914 25.8232 105.798 25.9652C105.682 26.1049 105.624 26.2848 105.624 26.505C105.624 26.8364 105.743 27.0933 105.98 27.2756C106.216 27.4555 106.513 27.5455 106.871 27.5455ZM110.477 26.608H111.148C111.167 26.8991 111.293 27.1264 111.525 27.2898C111.757 27.4531 112.062 27.5348 112.441 27.5348C112.834 27.5348 113.158 27.4472 113.414 27.272C113.67 27.0945 113.797 26.8364 113.797 26.4979C113.797 26.2919 113.749 26.1132 113.652 25.9616C113.557 25.8101 113.427 25.6918 113.261 25.6065C113.098 25.5189 112.912 25.474 112.704 25.4716H111.752V24.8928H112.693C113.017 24.8738 113.264 24.7862 113.432 24.63C113.6 24.4714 113.684 24.2642 113.684 24.0085C113.684 23.7173 113.581 23.4841 113.375 23.3089C113.169 23.1314 112.89 23.0426 112.537 23.0426C112.179 23.0426 111.882 23.1302 111.645 23.3054C111.409 23.4806 111.283 23.7055 111.269 23.9801H110.605C110.617 23.6842 110.706 23.4238 110.871 23.1989C111.037 22.9716 111.261 22.794 111.542 22.6662C111.827 22.5384 112.148 22.4744 112.508 22.4744C112.878 22.4744 113.198 22.5407 113.471 22.6733C113.743 22.8059 113.954 22.987 114.103 23.2166C114.252 23.4439 114.327 23.7019 114.327 23.9908C114.327 24.2914 114.244 24.5388 114.078 24.733C113.915 24.9247 113.705 25.0597 113.449 25.1378V25.1911C113.644 25.2124 113.814 25.2834 113.961 25.4041C114.11 25.5249 114.227 25.6799 114.312 25.8693C114.398 26.0587 114.44 26.2682 114.44 26.4979C114.44 26.8198 114.356 27.1027 114.188 27.3466C114.02 27.5881 113.786 27.7763 113.485 27.9112C113.187 28.0462 112.842 28.1136 112.452 28.1136C112.075 28.1136 111.74 28.0509 111.447 27.9254C111.153 27.7976 110.92 27.6212 110.747 27.3963C110.577 27.169 110.487 26.9062 110.477 26.608ZM119.185 27.1016L122.065 22.5455H122.822V28H122.19V23.4439L119.32 28H118.553V22.5455H119.185V27.1016ZM127.31 28V22.5455H131.44V28H130.805V23.142H127.946V28H127.31ZM135.234 28.1136C134.763 28.1136 134.346 27.9941 133.984 27.755C133.624 27.5159 133.342 27.1856 133.139 26.7642C132.935 26.3404 132.833 25.8516 132.833 25.2976C132.833 24.7389 132.935 24.2476 133.139 23.8239C133.342 23.3977 133.624 23.0663 133.984 22.8295C134.346 22.5904 134.763 22.4709 135.234 22.4709C135.705 22.4709 136.12 22.5904 136.48 22.8295C136.84 23.0687 137.122 23.4001 137.325 23.8239C137.531 24.2476 137.634 24.7389 137.634 25.2976C137.634 25.8516 137.533 26.3404 137.329 26.7642C137.125 27.1856 136.843 27.5159 136.48 27.755C136.12 27.9941 135.705 28.1136 135.234 28.1136ZM135.234 27.5348C135.613 27.5348 135.933 27.433 136.196 27.2294C136.459 27.0258 136.658 26.7547 136.793 26.4162C136.93 26.0777 136.999 25.7048 136.999 25.2976C136.999 24.8904 136.93 24.5163 136.793 24.1754C136.658 23.8345 136.459 23.5611 136.196 23.3551C135.933 23.1491 135.613 23.0462 135.234 23.0462C134.857 23.0462 134.537 23.1491 134.271 23.3551C134.009 23.5611 133.809 23.8345 133.671 24.1754C133.536 24.5163 133.469 24.8904 133.469 25.2976C133.469 25.7048 133.536 26.0777 133.671 26.4162C133.809 26.7547 134.009 27.0258 134.271 27.2294C134.534 27.433 134.855 27.5348 135.234 27.5348ZM138.288 23.142V22.5455H142.549V23.142H140.745V28H140.113V23.142H138.288ZM145.722 28.1136C145.251 28.1136 144.834 27.9941 144.472 27.755C144.112 27.5159 143.831 27.1856 143.627 26.7642C143.423 26.3404 143.322 25.8516 143.322 25.2976C143.322 24.7389 143.423 24.2476 143.627 23.8239C143.831 23.3977 144.112 23.0663 144.472 22.8295C144.834 22.5904 145.251 22.4709 145.722 22.4709C146.193 22.4709 146.609 22.5904 146.969 22.8295C147.328 23.0687 147.61 23.4001 147.814 23.8239C148.02 24.2476 148.123 24.7389 148.123 25.2976C148.123 25.8516 148.021 26.3404 147.817 26.7642C147.614 27.1856 147.331 27.5159 146.969 27.755C146.609 27.9941 146.193 28.1136 145.722 28.1136ZM145.722 27.5348C146.101 27.5348 146.422 27.433 146.684 27.2294C146.947 27.0258 147.146 26.7547 147.281 26.4162C147.418 26.0777 147.487 25.7048 147.487 25.2976C147.487 24.8904 147.418 24.5163 147.281 24.1754C147.146 23.8345 146.947 23.5611 146.684 23.3551C146.422 23.1491 146.101 23.0462 145.722 23.0462C145.346 23.0462 145.025 23.1491 144.76 23.3551C144.497 23.5611 144.297 23.8345 144.16 24.1754C144.025 24.5163 143.957 24.8904 143.957 25.2976C143.957 25.7048 144.025 26.0777 144.16 26.4162C144.297 26.7547 144.497 27.0258 144.76 27.2294C145.023 27.433 145.343 27.5348 145.722 27.5348ZM152.362 27.1158L154.411 22.5455H155.025L152.614 28H152.11L149.727 22.5455H150.331L152.362 27.1158ZM150.142 22.5455V28H149.51V22.5455H150.142ZM154.581 28V22.5455H155.213V28H154.581ZM161.836 28.1136C161.349 28.1136 160.924 27.9917 160.561 27.7479C160.202 27.504 159.922 27.1702 159.723 26.7464C159.525 26.3227 159.425 25.8397 159.425 25.2976C159.425 24.7507 159.526 24.2642 159.727 23.8381C159.931 23.4119 160.212 23.0781 160.572 22.8366C160.932 22.5928 161.35 22.4709 161.826 22.4709C162.19 22.4709 162.52 22.5419 162.816 22.6839C163.112 22.8236 163.356 23.0213 163.548 23.277C163.742 23.5303 163.864 23.8262 163.914 24.1648H163.275C163.208 23.857 163.048 23.5942 162.795 23.3764C162.544 23.1562 162.225 23.0462 161.836 23.0462C161.488 23.0462 161.181 23.1409 160.913 23.3303C160.645 23.5173 160.436 23.7789 160.284 24.1151C160.135 24.4489 160.061 24.8359 160.061 25.2763C160.061 25.719 160.134 26.1108 160.281 26.4517C160.428 26.7902 160.634 27.0554 160.899 27.2472C161.166 27.4389 161.479 27.5348 161.836 27.5348C162.078 27.5348 162.298 27.4898 162.497 27.3999C162.698 27.3075 162.866 27.1773 163.001 27.0092C163.138 26.8411 163.231 26.6411 163.278 26.4091H163.917C163.87 26.7382 163.753 27.0317 163.566 27.2898C163.381 27.5455 163.141 27.7467 162.845 27.8935C162.551 28.0402 162.215 28.1136 161.836 28.1136ZM165.272 28V22.5455H167.42C168 22.5455 168.457 22.6709 168.791 22.9219C169.127 23.1728 169.295 23.5114 169.295 23.9375C169.295 24.2618 169.202 24.5211 169.015 24.7152C168.828 24.9093 168.577 25.0466 168.262 25.1271C168.473 25.1626 168.668 25.2396 168.848 25.358C169.03 25.4763 169.178 25.6326 169.292 25.8267C169.406 26.0208 169.462 26.2528 169.462 26.5227C169.462 26.8068 169.391 27.0601 169.249 27.2827C169.107 27.5052 168.907 27.6804 168.649 27.8082C168.391 27.9361 168.086 28 167.733 28H165.272ZM165.876 27.4141H167.733C168.067 27.4141 168.331 27.3288 168.525 27.1584C168.719 26.9856 168.816 26.7559 168.816 26.4695C168.816 26.1641 168.724 25.9202 168.539 25.7379C168.357 25.5533 168.112 25.4609 167.804 25.4609H165.876V27.4141ZM165.876 24.8999H167.46C167.706 24.8999 167.919 24.862 168.099 24.7862C168.279 24.7105 168.417 24.6039 168.514 24.4666C168.614 24.3269 168.662 24.1636 168.66 23.9766C168.66 23.709 168.551 23.5019 168.333 23.3551C168.115 23.206 167.811 23.1314 167.42 23.1314H165.876V24.8999ZM172.968 28.1136C172.497 28.1136 172.08 27.9941 171.718 27.755C171.358 27.5159 171.077 27.1856 170.873 26.7642C170.669 26.3404 170.568 25.8516 170.568 25.2976C170.568 24.7389 170.669 24.2476 170.873 23.8239C171.077 23.3977 171.358 23.0663 171.718 22.8295C172.08 22.5904 172.497 22.4709 172.968 22.4709C173.439 22.4709 173.855 22.5904 174.215 22.8295C174.575 23.0687 174.856 23.4001 175.06 23.8239C175.266 24.2476 175.369 24.7389 175.369 25.2976C175.369 25.8516 175.267 26.3404 175.063 26.7642C174.86 27.1856 174.577 27.5159 174.215 27.755C173.855 27.9941 173.439 28.1136 172.968 28.1136ZM172.968 27.5348C173.347 27.5348 173.668 27.433 173.931 27.2294C174.193 27.0258 174.392 26.7547 174.527 26.4162C174.664 26.0777 174.733 25.7048 174.733 25.2976C174.733 24.8904 174.664 24.5163 174.527 24.1754C174.392 23.8345 174.193 23.5611 173.931 23.3551C173.668 23.1491 173.347 23.0462 172.968 23.0462C172.592 23.0462 172.271 23.1491 172.006 23.3551C171.743 23.5611 171.543 23.8345 171.406 24.1754C171.271 24.5163 171.203 24.8904 171.203 25.2976C171.203 25.7048 171.271 26.0777 171.406 26.4162C171.543 26.7547 171.743 27.0258 172.006 27.2294C172.269 27.433 172.589 27.5348 172.968 27.5348ZM180.684 20.5L181.014 20.9013C180.865 21.0457 180.686 21.1451 180.478 21.1996C180.272 21.2517 180.041 21.2812 179.786 21.2884C179.532 21.2955 179.259 21.3061 178.965 21.3203C178.544 21.3416 178.197 21.4517 177.925 21.6506C177.652 21.8471 177.445 22.1312 177.303 22.5028C177.164 22.8722 177.076 23.3232 177.04 23.8558H177.112C177.294 23.4841 177.551 23.2012 177.882 23.0071C178.216 22.813 178.583 22.7159 178.983 22.7159C179.402 22.7159 179.778 22.8189 180.112 23.0249C180.448 23.2285 180.714 23.5279 180.908 23.9233C181.104 24.3163 181.202 24.7957 181.202 25.3615C181.202 25.9202 181.104 26.4067 180.908 26.821C180.711 27.233 180.437 27.5514 180.084 27.7763C179.731 28.0012 179.318 28.1136 178.844 28.1136C178.369 28.1136 177.952 28.0024 177.594 27.7798C177.239 27.5549 176.964 27.2247 176.767 26.7891C176.573 26.3511 176.476 25.8125 176.476 25.1733V24.6016C176.476 23.3303 176.677 22.3738 177.08 21.7322C177.482 21.0907 178.101 20.7557 178.937 20.7273C179.207 20.7178 179.452 20.7154 179.672 20.7202C179.892 20.7225 180.086 20.7119 180.254 20.6882C180.422 20.6622 180.566 20.5994 180.684 20.5ZM178.844 27.5348C179.197 27.5348 179.503 27.446 179.761 27.2685C180.019 27.0885 180.218 26.8352 180.357 26.5085C180.499 26.1818 180.57 25.7995 180.57 25.3615C180.57 24.9259 180.498 24.5542 180.354 24.2464C180.212 23.9387 180.013 23.7031 179.757 23.5398C179.501 23.3764 179.202 23.2947 178.859 23.2947C178.589 23.2947 178.346 23.3468 178.131 23.451C177.918 23.5528 177.735 23.6984 177.584 23.8878C177.432 24.0772 177.316 24.2997 177.236 24.5554C177.155 24.8111 177.114 25.0916 177.112 25.397C177.112 26.0575 177.265 26.5795 177.573 26.9631C177.883 27.3442 178.307 27.5348 178.844 27.5348ZM184.706 28.1136C184.235 28.1136 183.819 27.9941 183.456 27.755C183.097 27.5159 182.815 27.1856 182.611 26.7642C182.408 26.3404 182.306 25.8516 182.306 25.2976C182.306 24.7389 182.408 24.2476 182.611 23.8239C182.815 23.3977 183.097 23.0663 183.456 22.8295C183.819 22.5904 184.235 22.4709 184.706 22.4709C185.178 22.4709 185.593 22.5904 185.953 22.8295C186.313 23.0687 186.595 23.4001 186.798 23.8239C187.004 24.2476 187.107 24.7389 187.107 25.2976C187.107 25.8516 187.005 26.3404 186.802 26.7642C186.598 27.1856 186.315 27.5159 185.953 27.755C185.593 27.9941 185.178 28.1136 184.706 28.1136ZM184.706 27.5348C185.085 27.5348 185.406 27.433 185.669 27.2294C185.932 27.0258 186.131 26.7547 186.265 26.4162C186.403 26.0777 186.471 25.7048 186.471 25.2976C186.471 24.8904 186.403 24.5163 186.265 24.1754C186.131 23.8345 185.932 23.5611 185.669 23.3551C185.406 23.1491 185.085 23.0462 184.706 23.0462C184.33 23.0462 184.009 23.1491 183.744 23.3551C183.481 23.5611 183.281 23.8345 183.144 24.1754C183.009 24.5163 182.942 24.8904 182.942 25.2976C182.942 25.7048 183.009 26.0777 183.144 26.4162C183.281 26.7547 183.481 27.0258 183.744 27.2294C184.007 27.433 184.328 27.5348 184.706 27.5348ZM187.848 29.5518V27.4034H188.321C188.439 27.2708 188.542 27.1276 188.63 26.9737C188.717 26.8198 188.793 26.6446 188.857 26.4482C188.923 26.2493 188.979 26.0185 189.024 25.7557C189.069 25.4905 189.107 25.1816 189.137 24.8288L189.336 22.5455H192.564V27.4034H193.374V29.5518H192.742V28H188.484V29.5518H187.848ZM189.049 27.4034H191.932V23.142H189.926L189.762 24.8288C189.706 25.4018 189.625 25.9013 189.521 26.3274C189.417 26.7536 189.259 27.1122 189.049 27.4034ZM198.261 24.978V25.5746H195.055V24.978H198.261ZM195.211 22.5455V28H194.579V22.5455H195.211ZM198.726 22.5455V28H198.094V22.5455H198.726ZM202.529 28.1136C202.058 28.1136 201.641 27.9941 201.279 27.755C200.919 27.5159 200.637 27.1856 200.434 26.7642C200.23 26.3404 200.128 25.8516 200.128 25.2976C200.128 24.7389 200.23 24.2476 200.434 23.8239C200.637 23.3977 200.919 23.0663 201.279 22.8295C201.641 22.5904 202.058 22.4709 202.529 22.4709C203 22.4709 203.415 22.5904 203.775 22.8295C204.135 23.0687 204.417 23.4001 204.62 23.8239C204.826 24.2476 204.929 24.7389 204.929 25.2976C204.929 25.8516 204.828 26.3404 204.624 26.7642C204.42 27.1856 204.137 27.5159 203.775 27.755C203.415 27.9941 203 28.1136 202.529 28.1136ZM202.529 27.5348C202.908 27.5348 203.228 27.433 203.491 27.2294C203.754 27.0258 203.953 26.7547 204.088 26.4162C204.225 26.0777 204.294 25.7048 204.294 25.2976C204.294 24.8904 204.225 24.5163 204.088 24.1754C203.953 23.8345 203.754 23.5611 203.491 23.3551C203.228 23.1491 202.908 23.0462 202.529 23.0462C202.152 23.0462 201.832 23.1491 201.566 23.3551C201.304 23.5611 201.104 23.8345 200.966 24.1754C200.831 24.5163 200.764 24.8904 200.764 25.2976C200.764 25.7048 200.831 26.0777 200.966 26.4162C201.104 26.7547 201.304 27.0258 201.566 27.2294C201.829 27.433 202.15 27.5348 202.529 27.5348ZM43.9545 40.1136C43.4834 40.1136 43.0668 39.9941 42.7045 39.755C42.3447 39.5159 42.063 39.1856 41.8594 38.7642C41.6558 38.3404 41.554 37.8516 41.554 37.2976C41.554 36.7389 41.6558 36.2476 41.8594 35.8239C42.063 35.3977 42.3447 35.0663 42.7045 34.8295C43.0668 34.5904 43.4834 34.4709 43.9545 34.4709C44.4257 34.4709 44.8411 34.5904 45.201 34.8295C45.5608 35.0687 45.8426 35.4001 46.0462 35.8239C46.2521 36.2476 46.3551 36.7389 46.3551 37.2976C46.3551 37.8516 46.2533 38.3404 46.0497 38.7642C45.8461 39.1856 45.5632 39.5159 45.201 39.755C44.8411 39.9941 44.4257 40.1136 43.9545 40.1136ZM43.9545 39.5348C44.3333 39.5348 44.6541 39.433 44.9169 39.2294C45.1797 39.0258 45.3786 38.7547 45.5135 38.4162C45.6508 38.0777 45.7195 37.7048 45.7195 37.2976C45.7195 36.8904 45.6508 36.5163 45.5135 36.1754C45.3786 35.8345 45.1797 35.5611 44.9169 35.3551C44.6541 35.1491 44.3333 35.0462 43.9545 35.0462C43.5781 35.0462 43.2573 35.1491 42.9922 35.3551C42.7294 35.5611 42.5294 35.8345 42.392 36.1754C42.2571 36.5163 42.1896 36.8904 42.1896 37.2976C42.1896 37.7048 42.2571 38.0777 42.392 38.4162C42.5294 38.7547 42.7294 39.0258 42.9922 39.2294C43.255 39.433 43.5758 39.5348 43.9545 39.5348ZM47.0085 35.142V34.5455H51.2699V35.142H49.4659V40H48.8338V35.142H47.0085ZM52.606 40V34.5455H53.2381V36.9993H53.8311L55.8588 34.5455H56.6756L54.4881 37.1697L56.7253 40H55.9086L54.0265 37.5959H53.2381V40H52.606ZM57.7623 42.0455V34.5455H58.3766V35.5859H58.4512C58.5269 35.4226 58.6311 35.2557 58.7637 35.0852C58.8962 34.9124 59.0714 34.7668 59.2892 34.6484C59.5094 34.5301 59.7864 34.4709 60.1202 34.4709C60.57 34.4709 60.963 34.5893 61.2992 34.826C61.6377 35.0604 61.9005 35.3894 62.0875 35.8132C62.2769 36.2346 62.3716 36.7259 62.3716 37.2869C62.3716 37.8504 62.2769 38.344 62.0875 38.7678C61.9005 39.1915 61.6377 39.5218 61.2992 39.7585C60.963 39.9953 60.5724 40.1136 60.1273 40.1136C59.7982 40.1136 59.5224 40.0545 59.2999 39.9361C59.0797 39.8177 58.901 39.6721 58.7637 39.4993C58.6287 39.3241 58.5246 39.1536 58.4512 38.9879H58.3944V42.0455H57.7623ZM58.3873 37.2763C58.3873 37.7166 58.4524 38.1072 58.5826 38.4482C58.7151 38.7867 58.9045 39.053 59.1507 39.2472C59.3993 39.4389 59.7 39.5348 60.0527 39.5348C60.415 39.5348 60.7203 39.4354 60.9689 39.2365C61.2199 39.0353 61.4105 38.7642 61.5407 38.4233C61.6732 38.0824 61.7395 37.7 61.7395 37.2763C61.7395 36.8572 61.6744 36.4796 61.5442 36.1435C61.4164 35.8073 61.227 35.541 60.976 35.3445C60.7251 35.1456 60.4173 35.0462 60.0527 35.0462C59.6976 35.0462 59.3958 35.142 59.1472 35.3338C58.8986 35.5232 58.7092 35.786 58.579 36.1222C58.4512 36.456 58.3873 36.8407 58.3873 37.2763ZM64.291 36.6513H65.889C66.5022 36.6513 66.9757 36.8004 67.3095 37.0987C67.6433 37.397 67.8102 37.8007 67.8102 38.3097C67.8102 38.6482 67.7344 38.9441 67.5829 39.1974C67.4338 39.4508 67.216 39.6484 66.9295 39.7905C66.6431 39.9302 66.2962 40 65.889 40H63.7654V34.5455H64.4011V39.4034H65.889C66.2749 39.4034 66.585 39.3111 66.8194 39.1264C67.0562 38.9418 67.1745 38.679 67.1745 38.3381C67.1745 37.9901 67.0562 37.7214 66.8194 37.532C66.585 37.3426 66.2749 37.2479 65.889 37.2479H64.291V36.6513ZM68.7299 40V34.5455H69.362V40H68.7299ZM71.0435 40V34.5455H73.1919C73.772 34.5455 74.2289 34.6709 74.5627 34.9219C74.8989 35.1728 75.0669 35.5114 75.0669 35.9375C75.0669 36.2618 74.9734 36.5211 74.7864 36.7152C74.5994 36.9093 74.3484 37.0466 74.0336 37.1271C74.2443 37.1626 74.4396 37.2396 74.6195 37.358C74.8018 37.4763 74.9498 37.6326 75.0634 37.8267C75.177 38.0208 75.2338 38.2528 75.2338 38.5227C75.2338 38.8068 75.1628 39.0601 75.0208 39.2827C74.8787 39.5052 74.6787 39.6804 74.4206 39.8082C74.1626 39.9361 73.8572 40 73.5044 40H71.0435ZM71.6472 39.4141H73.5044C73.8382 39.4141 74.1022 39.3288 74.2963 39.1584C74.4905 38.9856 74.5875 38.7559 74.5875 38.4695C74.5875 38.1641 74.4952 37.9202 74.3105 37.7379C74.1283 37.5533 73.8832 37.4609 73.5755 37.4609H71.6472V39.4141ZM71.6472 36.8999H73.231C73.4772 36.8999 73.6903 36.862 73.8702 36.7862C74.0501 36.7105 74.1886 36.6039 74.2857 36.4666C74.3851 36.3269 74.4337 36.1636 74.4313 35.9766C74.4313 35.709 74.3224 35.5019 74.1046 35.3551C73.8868 35.206 73.5826 35.1314 73.1919 35.1314H71.6472V36.8999ZM78.1431 40.1243C77.814 40.1243 77.5134 40.0604 77.2411 39.9325C76.9689 39.8023 76.7522 39.6153 76.5913 39.3714C76.4303 39.1252 76.3498 38.8269 76.3498 38.4766C76.3498 38.2067 76.4007 37.9794 76.5025 37.7947C76.6043 37.6101 76.7487 37.4586 76.9357 37.3402C77.1228 37.2218 77.3441 37.1283 77.5998 37.0597C77.8555 36.991 78.1372 36.9377 78.445 36.8999C78.7504 36.862 79.0084 36.8288 79.2191 36.8004C79.4322 36.772 79.5943 36.727 79.7056 36.6655C79.8169 36.6039 79.8725 36.5045 79.8725 36.3672V36.2393C79.8725 35.8677 79.7612 35.5753 79.5387 35.3622C79.3185 35.1468 79.0013 35.0391 78.587 35.0391C78.194 35.0391 77.8732 35.1255 77.6246 35.2983C77.3784 35.4711 77.2056 35.6747 77.1062 35.9091L76.506 35.6925C76.6291 35.3942 76.7996 35.1562 77.0174 34.9787C77.2352 34.7988 77.479 34.6697 77.7489 34.5916C78.0188 34.5111 78.2923 34.4709 78.5692 34.4709C78.7776 34.4709 78.9942 34.4981 79.2191 34.5526C79.4464 34.607 79.6571 34.7017 79.8512 34.8366C80.0453 34.9692 80.2028 35.1551 80.3235 35.3942C80.4442 35.6309 80.5046 35.9316 80.5046 36.2962V40H79.8725V39.1371H79.8335C79.7577 39.2981 79.6452 39.4543 79.4961 39.6058C79.3469 39.7573 79.1599 39.8816 78.935 39.9787C78.7101 40.0758 78.4461 40.1243 78.1431 40.1243ZM78.2283 39.5455C78.5645 39.5455 78.8557 39.4709 79.1019 39.3217C79.3481 39.1726 79.5375 38.9749 79.6701 38.7287C79.805 38.4801 79.8725 38.2067 79.8725 37.9084V37.12C79.8252 37.165 79.7459 37.2053 79.6346 37.2408C79.5257 37.2763 79.399 37.3082 79.2546 37.3366C79.1126 37.3627 78.9705 37.3852 78.8285 37.4041C78.6864 37.4231 78.5586 37.4396 78.445 37.4538C78.1372 37.4917 77.8744 37.5509 77.6566 37.6314C77.4388 37.7119 77.2719 37.8232 77.1559 37.9652C77.0399 38.1049 76.9819 38.2848 76.9819 38.505C76.9819 38.8364 77.1003 39.0933 77.337 39.2756C77.5737 39.4555 77.8709 39.5455 78.2283 39.5455ZM82.8182 39.1016L85.6982 34.5455H86.4545V40H85.8224V35.4439L82.9531 40H82.1861V34.5455H82.8182V39.1016ZM84.9737 32.7273H85.5703C85.5703 33.0658 85.4579 33.3404 85.233 33.5511C85.0104 33.7618 84.7062 33.8672 84.3203 33.8672C83.9392 33.8672 83.6373 33.7618 83.4148 33.5511C83.1922 33.3404 83.081 33.0658 83.081 32.7273H83.6776C83.6776 32.9119 83.7273 33.0682 83.8267 33.196C83.9285 33.3215 84.093 33.3842 84.3203 33.3842C84.5476 33.3842 84.7133 33.3215 84.8175 33.196C84.9216 33.0682 84.9737 32.9119 84.9737 32.7273ZM87.3601 35.142V34.5455H91.6214V35.142H89.8175V40H89.1854V35.142H87.3601ZM94.8796 40.1136C94.3706 40.1136 93.9303 39.9953 93.5586 39.7585C93.1869 39.5194 92.8993 39.1892 92.6957 38.7678C92.4944 38.344 92.3938 37.8563 92.3938 37.3047C92.3938 36.7554 92.4944 36.2678 92.6957 35.8416C92.8993 35.4131 93.1798 35.0781 93.5373 34.8366C93.8971 34.5928 94.3126 34.4709 94.7837 34.4709C95.0797 34.4709 95.3649 34.5253 95.6396 34.6342C95.9142 34.7408 96.1604 34.9053 96.3782 35.1278C96.5984 35.348 96.7724 35.6262 96.9002 35.9624C97.0281 36.2962 97.092 36.6915 97.092 37.1484V37.4609H92.8306V36.9034H96.4457C96.4457 36.553 96.3746 36.2382 96.2326 35.9588C96.0929 35.6771 95.8976 35.4545 95.6467 35.2912C95.3981 35.1278 95.1104 35.0462 94.7837 35.0462C94.4381 35.0462 94.1339 35.1385 93.8711 35.3232C93.6083 35.5078 93.4023 35.7517 93.2532 36.0547C93.1064 36.3577 93.0318 36.6892 93.0295 37.049V37.3828C93.0295 37.8161 93.104 38.1948 93.2532 38.5192C93.4047 38.8411 93.619 39.0909 93.896 39.2685C94.1729 39.446 94.5008 39.5348 94.8796 39.5348C95.1377 39.5348 95.3638 39.4946 95.5579 39.4141C95.7544 39.3336 95.9189 39.2259 96.0515 39.0909C96.1864 38.9536 96.2882 38.8033 96.3569 38.6399L96.957 38.8352C96.8742 39.0649 96.738 39.2768 96.5487 39.4709C96.3616 39.665 96.1272 39.8213 95.8455 39.9396C95.5662 40.0556 95.2442 40.1136 94.8796 40.1136ZM101.305 40V34.5455H105.434V40H104.799V35.142H101.94V40H101.305ZM107.108 42.0455V34.5455H107.722V35.5859H107.797C107.873 35.4226 107.977 35.2557 108.109 35.0852C108.242 34.9124 108.417 34.7668 108.635 34.6484C108.855 34.5301 109.132 34.4709 109.466 34.4709C109.916 34.4709 110.309 34.5893 110.645 34.826C110.983 35.0604 111.246 35.3894 111.433 35.8132C111.623 36.2346 111.717 36.7259 111.717 37.2869C111.717 37.8504 111.623 38.344 111.433 38.7678C111.246 39.1915 110.983 39.5218 110.645 39.7585C110.309 39.9953 109.918 40.1136 109.473 40.1136C109.144 40.1136 108.868 40.0545 108.646 39.9361C108.425 39.8177 108.247 39.6721 108.109 39.4993C107.974 39.3241 107.87 39.1536 107.797 38.9879H107.74V42.0455H107.108ZM107.733 37.2763C107.733 37.7166 107.798 38.1072 107.928 38.4482C108.061 38.7867 108.25 39.053 108.496 39.2472C108.745 39.4389 109.046 39.5348 109.398 39.5348C109.761 39.5348 110.066 39.4354 110.315 39.2365C110.566 39.0353 110.756 38.7642 110.886 38.4233C111.019 38.0824 111.085 37.7 111.085 37.2763C111.085 36.8572 111.02 36.4796 110.89 36.1435C110.762 35.8073 110.573 35.541 110.322 35.3445C110.071 35.1456 109.763 35.0462 109.398 35.0462C109.043 35.0462 108.741 35.142 108.493 35.3338C108.244 35.5232 108.055 35.786 107.925 36.1222C107.797 36.456 107.733 36.8407 107.733 37.2763ZM113.736 39.1016L116.616 34.5455H117.373V40H116.74V35.4439L113.871 40H113.104V34.5455H113.736V39.1016ZM118.505 40V39.4034H118.676C118.87 39.4034 119.026 39.3679 119.145 39.2969C119.265 39.2235 119.359 39.1004 119.425 38.9276C119.491 38.7547 119.541 38.5192 119.574 38.2209C119.607 37.9226 119.633 37.5485 119.652 37.0987L119.77 34.5455H123.235V40H122.6V35.142H120.37L120.267 37.3118C120.245 37.7545 120.21 38.1439 120.16 38.4801C120.113 38.8163 120.035 39.0968 119.926 39.3217C119.819 39.5466 119.67 39.7159 119.478 39.8295C119.289 39.9432 119.04 40 118.733 40H118.505ZM127.031 40.1136C126.56 40.1136 126.143 39.9941 125.781 39.755C125.421 39.5159 125.139 39.1856 124.936 38.7642C124.732 38.3404 124.63 37.8516 124.63 37.2976C124.63 36.7389 124.732 36.2476 124.936 35.8239C125.139 35.3977 125.421 35.0663 125.781 34.8295C126.143 34.5904 126.56 34.4709 127.031 34.4709C127.502 34.4709 127.917 34.5904 128.277 34.8295C128.637 35.0687 128.919 35.4001 129.122 35.8239C129.328 36.2476 129.431 36.7389 129.431 37.2976C129.431 37.8516 129.329 38.3404 129.126 38.7642C128.922 39.1856 128.639 39.5159 128.277 39.755C127.917 39.9941 127.502 40.1136 127.031 40.1136ZM127.031 39.5348C127.41 39.5348 127.73 39.433 127.993 39.2294C128.256 39.0258 128.455 38.7547 128.59 38.4162C128.727 38.0777 128.796 37.7048 128.796 37.2976C128.796 36.8904 128.727 36.5163 128.59 36.1754C128.455 35.8345 128.256 35.5611 127.993 35.3551C127.73 35.1491 127.41 35.0462 127.031 35.0462C126.654 35.0462 126.334 35.1491 126.068 35.3551C125.806 35.5611 125.606 35.8345 125.468 36.1754C125.333 36.5163 125.266 36.8904 125.266 37.2976C125.266 37.7048 125.333 38.0777 125.468 38.4162C125.606 38.7547 125.806 39.0258 126.068 39.2294C126.331 39.433 126.652 39.5348 127.031 39.5348ZM130.253 40L132.661 37.2443L130.285 34.5455H131.056L133.148 36.9709H133.513V34.5455H134.149V36.9709H134.508L136.599 34.5455H137.37L135.001 37.2443L137.402 40H136.621L134.497 37.5675H134.149V40H133.513V37.5675H133.165L131.035 40H130.253ZM140.71 40.1136C140.201 40.1136 139.76 39.9953 139.389 39.7585C139.017 39.5194 138.729 39.1892 138.526 38.7678C138.325 38.344 138.224 37.8563 138.224 37.3047C138.224 36.7554 138.325 36.2678 138.526 35.8416C138.729 35.4131 139.01 35.0781 139.367 34.8366C139.727 34.5928 140.143 34.4709 140.614 34.4709C140.91 34.4709 141.195 34.5253 141.47 34.6342C141.744 34.7408 141.99 34.9053 142.208 35.1278C142.428 35.348 142.602 35.6262 142.73 35.9624C142.858 36.2962 142.922 36.6915 142.922 37.1484V37.4609H138.661V36.9034H142.276C142.276 36.553 142.205 36.2382 142.063 35.9588C141.923 35.6771 141.728 35.4545 141.477 35.2912C141.228 35.1278 140.941 35.0462 140.614 35.0462C140.268 35.0462 139.964 35.1385 139.701 35.3232C139.438 35.5078 139.232 35.7517 139.083 36.0547C138.936 36.3577 138.862 36.6892 138.86 37.049V37.3828C138.86 37.8161 138.934 38.1948 139.083 38.5192C139.235 38.8411 139.449 39.0909 139.726 39.2685C140.003 39.446 140.331 39.5348 140.71 39.5348C140.968 39.5348 141.194 39.4946 141.388 39.4141C141.584 39.3336 141.749 39.2259 141.882 39.0909C142.017 38.9536 142.118 38.8033 142.187 38.6399L142.787 38.8352C142.704 39.0649 142.568 39.2768 142.379 39.4709C142.192 39.665 141.957 39.8213 141.676 39.9396C141.396 40.0556 141.074 40.1136 140.71 40.1136ZM147.998 36.978V37.5746H144.791V36.978H147.998ZM144.947 34.5455V40H144.315V34.5455H144.947ZM148.463 34.5455V40H147.831V34.5455H148.463ZM150.777 39.1016L153.657 34.5455H154.414V40H153.781V35.4439L150.912 40H150.145V34.5455H150.777V39.1016ZM158.288 40.1136C157.779 40.1136 157.338 39.9953 156.967 39.7585C156.595 39.5194 156.307 39.1892 156.104 38.7678C155.903 38.344 155.802 37.8563 155.802 37.3047C155.802 36.7554 155.903 36.2678 156.104 35.8416C156.307 35.4131 156.588 35.0781 156.945 34.8366C157.305 34.5928 157.721 34.4709 158.192 34.4709C158.488 34.4709 158.773 34.5253 159.048 34.6342C159.322 34.7408 159.569 34.9053 159.786 35.1278C160.007 35.348 160.181 35.6262 160.308 35.9624C160.436 36.2962 160.5 36.6915 160.5 37.1484V37.4609H156.239V36.9034H159.854C159.854 36.553 159.783 36.2382 159.641 35.9588C159.501 35.6771 159.306 35.4545 159.055 35.2912C158.806 35.1278 158.519 35.0462 158.192 35.0462C157.846 35.0462 157.542 35.1385 157.279 35.3232C157.017 35.5078 156.811 35.7517 156.661 36.0547C156.515 36.3577 156.44 36.6892 156.438 37.049V37.3828C156.438 37.8161 156.512 38.1948 156.661 38.5192C156.813 38.8411 157.027 39.0909 157.304 39.2685C157.581 39.446 157.909 39.5348 158.288 39.5348C158.546 39.5348 158.772 39.4946 158.966 39.4141C159.163 39.3336 159.327 39.2259 159.46 39.0909C159.595 38.9536 159.696 38.8033 159.765 38.6399L160.365 38.8352C160.282 39.0649 160.146 39.2768 159.957 39.4709C159.77 39.665 159.535 39.8213 159.254 39.9396C158.974 40.0556 158.652 40.1136 158.288 40.1136Z" fill="black"/>
</svg>
