<svg width="40" height="40" viewBox="0 0 40 40" fill="none" xmlns="http://www.w3.org/2000/svg">
<rect width="40" height="40" rx="10" fill="#E0E0FF"/>
<g filter="url(#filter0_i_930_9334)">
<path d="M29.2205 13.7882H25.8793V13.4449C25.8793 11.9113 24.6346 10.6667 23.101 10.6667H17.7872C16.253 10.6667 15.009 11.9113 15.009 13.4449V13.7882H11.6671C10.1329 13.7882 8.88889 15.0322 8.88889 16.5664V26.6507C8.88889 28.1843 10.1329 29.4289 11.6671 29.4289H29.2218C30.756 29.4289 32 28.1843 32 26.6507V16.5664C31.9988 15.0316 30.7547 13.7882 29.2205 13.7882ZM20.4432 26.547C17.5489 26.547 15.1955 24.1935 15.1955 21.2992C15.1955 18.4056 17.5489 16.0515 20.4432 16.0515C23.3375 16.0515 25.691 18.4049 25.691 21.2992C25.691 24.1935 23.3369 26.547 20.4432 26.547ZM23.2214 21.2992C23.2214 22.8297 21.9743 24.0775 20.4432 24.0775C18.9121 24.0775 17.665 22.8297 17.665 21.2992C17.665 19.7681 18.9121 18.521 20.4432 18.521C21.9743 18.521 23.2214 19.7681 23.2214 21.2992Z" fill="#8D8DEB"/>
</g>
<defs>
<filter id="filter0_i_930_9334" x="8.88889" y="10.6667" width="23.1111" height="22.7623" filterUnits="userSpaceOnUse" color-interpolation-filters="sRGB">
<feFlood flood-opacity="0" result="BackgroundImageFix"/>
<feBlend mode="normal" in="SourceGraphic" in2="BackgroundImageFix" result="shape"/>
<feColorMatrix in="SourceAlpha" type="matrix" values="0 0 0 0 0 0 0 0 0 0 0 0 0 0 0 0 0 0 127 0" result="hardAlpha"/>
<feOffset dy="4"/>
<feGaussianBlur stdDeviation="2"/>
<feComposite in2="hardAlpha" operator="arithmetic" k2="-1" k3="1"/>
<feColorMatrix type="matrix" values="0 0 0 0 0 0 0 0 0 0 0 0 0 0 0 0 0 0 0.1 0"/>
<feBlend mode="normal" in2="shape" result="effect1_innerShadow_930_9334"/>
</filter>
</defs>
</svg>
