<svg width="15" height="13" viewBox="0 0 15 13" fill="none" xmlns="http://www.w3.org/2000/svg">
<path d="M14.1585 4.10543H12.6428L10.533 0.228155C10.4192 0.0189499 10.1527 -0.0608629 9.93756 0.0498977C9.72255 0.160658 9.64052 0.420071 9.75435 0.629276L11.6458 4.10543H3.35161L5.24309 0.629276C5.35693 0.420071 5.2749 0.160658 5.05988 0.0498977C4.84493 -0.0608343 4.57826 0.0189499 4.46442 0.228155L2.35467 4.10543H0.841523C0.377515 4.10543 0 4.47275 0 4.92422V5.8764C0 6.30887 0.346442 6.66387 0.783489 6.69302L2.26142 12.6716C2.30903 12.8642 2.48612 13 2.68974 13H12.3074C12.5109 13 12.6879 12.8643 12.7356 12.6718L14.217 6.69296C14.6538 6.66359 15 6.3087 15 5.8764V4.92422C15 4.47275 14.6225 4.10543 14.1585 4.10543ZM0.881083 4.96271H14.1189V5.83788H0.881083V4.96271ZM12.7418 8.98893H10.813L11.1073 6.69516H13.3101L12.7418 8.98893ZM7.94114 12.1427V9.84621H9.81506L9.52037 12.1427H7.94114ZM5.48075 12.1427L5.18579 9.84621H7.06006V12.1427H5.48075ZM1.69024 6.69516H3.89318L4.18779 8.98893H2.25728L1.69024 6.69516ZM4.78108 6.69516H7.06006V8.98893H5.07569L4.78108 6.69516ZM7.94114 8.98893V6.69516H10.2194L9.92508 8.98893H7.94114ZM2.46918 9.84621H4.29786L4.59282 12.1427H3.03689L2.46918 9.84621ZM11.9604 12.1427H10.4083L10.703 9.84621H12.5294L11.9604 12.1427Z" fill="#F4A100"/>
</svg>
