<svg width="8" height="8" viewBox="0 0 8 8" fill="none" xmlns="http://www.w3.org/2000/svg">
<path d="M4 3.46664C6.20914 3.46664 8 2.86969 8 2.13332C8 1.39694 6.20914 0.799988 4 0.799988C1.79086 0.799988 0 1.39694 0 2.13332C0 2.86969 1.79086 3.46664 4 3.46664Z" fill="#F8F8FF"/>
<path d="M4 3.46664C6.20914 3.46664 8 2.86969 8 2.13332C8 1.39694 6.20914 0.799988 4 0.799988C1.79086 0.799988 0 1.39694 0 2.13332C0 2.86969 1.79086 3.46664 4 3.46664Z" fill="#F8F8FF"/>
<path d="M7.08141 3.83511C6.24647 4.11341 5.15216 4.26669 4 4.26669C2.84784 4.26669 1.75352 4.11341 0.918594 3.83511C0.5365 3.70775 0.235734 3.563 0 3.40945V3.97335C0 4.32949 0.416047 4.66433 1.17158 4.91614C1.92706 5.16799 2.93155 5.30669 4 5.30669C5.06845 5.30669 6.07294 5.168 6.82842 4.91616C7.58392 4.66433 8 4.32949 8 3.97335V3.40945C7.76427 3.563 7.4635 3.70772 7.08141 3.83511Z" fill="#F8F8FF"/>
<path d="M7.08141 5.67512C6.2465 5.95342 5.15216 6.1067 4 6.1067C2.84784 6.1067 1.7535 5.95342 0.918594 5.67511C0.536484 5.54775 0.235719 5.40303 0 5.24948V5.86672C0 6.60307 1.79086 7.20003 4 7.20003C6.20914 7.20003 8 6.60308 8 5.8667V5.2495C7.7643 5.40301 7.46352 5.54776 7.08141 5.67512Z" fill="#F8F8FF"/>
</svg>
