<svg width="120" height="29" viewBox="0 0 120 29" fill="none" xmlns="http://www.w3.org/2000/svg">
<path d="M85.584 15.8038C85.3818 15.8038 85.1747 15.7749 84.9629 15.7171C84.751 15.6545 84.5729 15.5703 84.4284 15.4644C84.3706 15.4258 84.3321 15.3825 84.3129 15.3344C84.2984 15.2814 84.296 15.2308 84.3056 15.1827C84.3201 15.1297 84.3442 15.0864 84.3779 15.0527C84.4164 15.0142 84.4597 14.9925 84.5079 14.9877C84.5608 14.9781 84.6162 14.9925 84.674 15.031C84.804 15.1273 84.946 15.1995 85.1001 15.2477C85.2542 15.291 85.4034 15.3127 85.5479 15.3127C85.7886 15.3127 85.9933 15.2645 86.1618 15.1682C86.3351 15.0671 86.4675 14.9227 86.559 14.7349C86.6553 14.5471 86.7107 14.3208 86.7251 14.056L86.8768 14.2004H85.2012C85.1097 14.2004 85.0375 14.1788 84.9845 14.1354C84.9364 14.0921 84.9123 14.0319 84.9123 13.9549C84.9123 13.873 84.9364 13.8128 84.9845 13.7743C85.0375 13.731 85.1097 13.7093 85.2012 13.7093H86.8768L86.7251 13.8682C86.7155 13.6275 86.6649 13.418 86.5735 13.2399C86.4868 13.0569 86.3568 12.9125 86.1835 12.8065C86.0149 12.7006 85.8031 12.6476 85.5479 12.6476C85.4083 12.6476 85.2614 12.6693 85.1073 12.7126C84.9532 12.756 84.8088 12.8282 84.674 12.9293C84.6162 12.963 84.5608 12.9775 84.5079 12.9726C84.4597 12.9678 84.4164 12.9486 84.3779 12.9149C84.3442 12.8812 84.3201 12.8402 84.3056 12.7921C84.296 12.7439 84.3008 12.6934 84.3201 12.6404C84.3393 12.5875 84.3779 12.5417 84.4356 12.5032C84.5801 12.3973 84.7558 12.313 84.9629 12.2504C85.1747 12.1878 85.3818 12.1565 85.584 12.1565C85.9499 12.1565 86.2629 12.2287 86.5229 12.3732C86.7877 12.5176 86.9899 12.7247 87.1296 12.9943C87.274 13.264 87.3463 13.5841 87.3463 13.9549C87.3463 14.239 87.3053 14.4942 87.2235 14.7205C87.1416 14.9468 87.0237 15.1418 86.8696 15.3055C86.7203 15.4644 86.5373 15.5871 86.3207 15.6738C86.104 15.7605 85.8584 15.8038 85.584 15.8038Z" fill="#26326F"/>
<path d="M88.9577 15.7388C88.8469 15.7388 88.7627 15.7099 88.7049 15.6521C88.6471 15.5944 88.6182 15.5101 88.6182 15.3994V12.561C88.6182 12.4502 88.6471 12.366 88.7049 12.3082C88.7627 12.2504 88.8469 12.2215 88.9577 12.2215H90.3733C90.6573 12.2215 90.8885 12.2576 91.0666 12.3299C91.2496 12.4021 91.3844 12.5056 91.4711 12.6404C91.5577 12.7752 91.6011 12.9438 91.6011 13.146C91.6011 13.3675 91.524 13.5553 91.3699 13.7093C91.2159 13.8634 91.0136 13.9549 90.7633 13.9838V13.8899C91.0618 13.8995 91.2953 13.9862 91.4638 14.1499C91.6324 14.3088 91.7166 14.5134 91.7166 14.7638C91.7166 15.0623 91.6059 15.3007 91.3844 15.4788C91.1629 15.6521 90.8451 15.7388 90.431 15.7388H88.9577ZM89.2394 15.3055H90.3949C90.626 15.3055 90.8018 15.2573 90.9222 15.161C91.0473 15.0599 91.1099 14.9179 91.1099 14.7349C91.1099 14.5471 91.0473 14.4051 90.9222 14.3088C90.8018 14.2125 90.626 14.1643 90.3949 14.1643H89.2394V15.3055ZM89.2394 13.731H90.3372C90.5442 13.731 90.7031 13.6828 90.8138 13.5865C90.9294 13.4903 90.9872 13.3578 90.9872 13.1893C90.9872 13.016 90.9294 12.8836 90.8138 12.7921C90.7031 12.7006 90.5442 12.6549 90.3372 12.6549H89.2394V13.731Z" fill="#26326F"/>
<path d="M94.4521 15.8038C94.1055 15.8038 93.8045 15.7292 93.5493 15.5799C93.2942 15.4307 93.0967 15.2188 92.9571 14.9444C92.8175 14.6699 92.7477 14.3473 92.7477 13.9766C92.7477 13.6973 92.7862 13.4469 92.8632 13.2254C92.9451 12.9991 93.0606 12.8065 93.2099 12.6476C93.3592 12.4888 93.5373 12.3684 93.7444 12.2865C93.9562 12.1999 94.1921 12.1565 94.4521 12.1565C94.7988 12.1565 95.0997 12.2312 95.3549 12.3804C95.6101 12.5297 95.8075 12.7415 95.9472 13.016C96.0868 13.2856 96.1566 13.6058 96.1566 13.9766C96.1566 14.2558 96.1157 14.5086 96.0338 14.7349C95.9568 14.9612 95.8436 15.1538 95.6944 15.3127C95.5451 15.4716 95.3646 15.5944 95.1527 15.681C94.9457 15.7629 94.7121 15.8038 94.4521 15.8038ZM94.4521 15.2838C94.664 15.2838 94.847 15.2332 95.001 15.1321C95.1599 15.031 95.2803 14.8842 95.3622 14.6916C95.4488 14.499 95.4922 14.2606 95.4922 13.9766C95.4922 13.5528 95.3983 13.2302 95.2105 13.0088C95.0227 12.7873 94.7699 12.6765 94.4521 12.6765C94.2451 12.6765 94.0621 12.7271 93.9032 12.8282C93.7492 12.9245 93.6288 13.0689 93.5421 13.2615C93.4555 13.4541 93.4121 13.6925 93.4121 13.9766C93.4121 14.4003 93.506 14.7253 93.6938 14.9516C93.8864 15.1731 94.1392 15.2838 94.4521 15.2838Z" fill="#26326F"/>
<path d="M100.097 15.7894C99.9906 15.7894 99.9088 15.7605 99.851 15.7027C99.7932 15.6449 99.7643 15.5607 99.7643 15.4499V12.7488H98.421V13.1821C98.421 13.548 98.4017 13.873 98.3632 14.1571C98.3247 14.4364 98.2645 14.6795 98.1827 14.8866C98.1056 15.0936 98.0021 15.2669 97.8721 15.4066C97.7469 15.5462 97.5904 15.6594 97.4026 15.746C97.3304 15.7797 97.263 15.7894 97.2004 15.7749C97.1378 15.7653 97.0849 15.7388 97.0415 15.6955C97.003 15.6521 96.9765 15.6016 96.9621 15.5438C96.9524 15.486 96.9597 15.4282 96.9837 15.3705C97.0078 15.3127 97.056 15.2645 97.1282 15.226C97.263 15.149 97.3738 15.0551 97.4604 14.9444C97.5471 14.8288 97.6145 14.6892 97.6626 14.5255C97.7156 14.3617 97.7517 14.1692 97.771 13.9477C97.7951 13.7262 97.8071 13.4662 97.8071 13.1677V12.5971C97.8071 12.4767 97.8384 12.3852 97.901 12.3226C97.9684 12.2552 98.0623 12.2215 98.1827 12.2215H100.053C100.174 12.2215 100.265 12.2552 100.328 12.3226C100.39 12.3852 100.422 12.4767 100.422 12.5971V15.4499C100.422 15.5607 100.393 15.6449 100.335 15.7027C100.277 15.7605 100.198 15.7894 100.097 15.7894Z" fill="#26326F"/>
<path d="M104.907 15.8038C104.585 15.8038 104.303 15.7388 104.062 15.6088C103.822 15.4788 103.629 15.2934 103.485 15.0527C103.34 14.8071 103.253 14.5206 103.225 14.1932H102.546V15.4499C102.546 15.5607 102.519 15.6449 102.466 15.7027C102.418 15.7605 102.339 15.7894 102.228 15.7894C102.122 15.7894 102.04 15.7605 101.982 15.7027C101.929 15.6449 101.903 15.5607 101.903 15.4499V12.5032C101.903 12.3925 101.929 12.3106 101.982 12.2576C102.04 12.1999 102.122 12.171 102.228 12.171C102.334 12.171 102.413 12.1999 102.466 12.2576C102.519 12.3106 102.546 12.3925 102.546 12.5032V13.666H103.232C103.27 13.3482 103.362 13.0786 103.506 12.8571C103.656 12.6308 103.848 12.4575 104.084 12.3371C104.325 12.2167 104.599 12.1565 104.907 12.1565C105.254 12.1565 105.555 12.2312 105.81 12.3804C106.065 12.5297 106.263 12.7415 106.402 13.016C106.542 13.2856 106.612 13.6058 106.612 13.9766C106.612 14.2558 106.571 14.5086 106.489 14.7349C106.412 14.9612 106.299 15.1538 106.15 15.3127C106 15.4716 105.82 15.5944 105.608 15.681C105.401 15.7629 105.167 15.8038 104.907 15.8038ZM104.907 15.2838C105.119 15.2838 105.302 15.2332 105.456 15.1321C105.615 15.031 105.736 14.8842 105.817 14.6916C105.904 14.499 105.947 14.2606 105.947 13.9766C105.947 13.5528 105.854 13.2302 105.666 13.0088C105.478 12.7873 105.225 12.6765 104.907 12.6765C104.696 12.6765 104.51 12.7271 104.351 12.8282C104.197 12.9245 104.077 13.0689 103.99 13.2615C103.908 13.4541 103.867 13.6925 103.867 13.9766C103.867 14.4003 103.961 14.7253 104.149 14.9516C104.342 15.1731 104.594 15.2838 104.907 15.2838Z" fill="#26326F"/>
<path d="M111.214 16.7283C111.123 16.7283 111.053 16.7042 111.005 16.656C110.957 16.6079 110.933 16.5357 110.933 16.4394V15.7388H108.232C108.121 15.7388 108.037 15.7099 107.979 15.6521C107.921 15.5944 107.892 15.5101 107.892 15.3994V12.5032C107.892 12.3925 107.921 12.3106 107.979 12.2576C108.037 12.1999 108.118 12.171 108.224 12.171C108.33 12.171 108.41 12.1999 108.463 12.2576C108.521 12.3106 108.549 12.3925 108.549 12.5032V15.2116H110.276V12.5032C110.276 12.3925 110.304 12.3106 110.362 12.2576C110.42 12.1999 110.502 12.171 110.608 12.171C110.714 12.171 110.793 12.1999 110.846 12.2576C110.904 12.3106 110.933 12.3925 110.933 12.5032V15.5221L110.629 15.2116H111.178C111.279 15.2116 111.357 15.2405 111.409 15.2982C111.467 15.3512 111.496 15.4282 111.496 15.5294V16.4394C111.496 16.632 111.402 16.7283 111.214 16.7283Z" fill="#26326F"/>
<path d="M112.901 15.7894C112.839 15.7894 112.783 15.7773 112.735 15.7533C112.692 15.7292 112.658 15.6907 112.634 15.6377C112.61 15.5847 112.598 15.5173 112.598 15.4355V12.4888C112.598 12.3876 112.624 12.3106 112.677 12.2576C112.73 12.1999 112.805 12.171 112.901 12.171C112.993 12.171 113.065 12.1999 113.118 12.2576C113.171 12.3106 113.197 12.3876 113.197 12.4888V15.096H113.01L115.046 12.3804C115.085 12.3275 115.133 12.2793 115.191 12.236C115.248 12.1926 115.325 12.171 115.422 12.171C115.489 12.171 115.545 12.183 115.588 12.2071C115.631 12.2312 115.663 12.2697 115.682 12.3226C115.706 12.3708 115.718 12.4358 115.718 12.5176V15.4716C115.718 15.5679 115.691 15.6449 115.638 15.7027C115.59 15.7605 115.52 15.7894 115.429 15.7894C115.328 15.7894 115.251 15.7605 115.198 15.7027C115.15 15.6449 115.126 15.5679 115.126 15.4716V12.8571H115.313L113.277 15.5799C113.238 15.6329 113.19 15.681 113.132 15.7244C113.075 15.7677 112.997 15.7894 112.901 15.7894Z" fill="#26326F"/>
<path d="M119.689 15.7894C119.593 15.7894 119.518 15.7629 119.466 15.7099C119.413 15.6521 119.386 15.5727 119.386 15.4716V14.4243H118.902C118.724 14.4243 118.57 14.4701 118.44 14.5616C118.31 14.653 118.206 14.7686 118.129 14.9082L117.732 15.6016C117.684 15.6834 117.626 15.7364 117.559 15.7605C117.496 15.7894 117.431 15.7942 117.364 15.7749C117.301 15.7605 117.246 15.7292 117.198 15.681C117.15 15.6329 117.118 15.5751 117.104 15.5077C117.094 15.4403 117.113 15.3705 117.162 15.2982L117.472 14.7566C117.554 14.6218 117.662 14.5062 117.797 14.4099C117.932 14.3136 118.072 14.2655 118.216 14.2655H118.317V14.3305C117.922 14.3305 117.614 14.239 117.393 14.056C117.171 13.873 117.06 13.6178 117.06 13.2904C117.06 13.0738 117.109 12.886 117.205 12.7271C117.306 12.5634 117.453 12.4382 117.645 12.3515C117.838 12.2649 118.079 12.2215 118.368 12.2215H119.661C119.766 12.2215 119.848 12.2504 119.906 12.3082C119.969 12.366 120 12.4502 120 12.561V15.4716C120 15.5727 119.971 15.6521 119.913 15.7099C119.86 15.7629 119.786 15.7894 119.689 15.7894ZM118.498 13.9693H119.386V12.6765H118.498C118.223 12.6765 118.021 12.7343 117.891 12.8499C117.761 12.9606 117.696 13.1171 117.696 13.3193C117.696 13.5215 117.761 13.6804 117.891 13.796C118.021 13.9116 118.223 13.9693 118.498 13.9693Z" fill="#26326F"/>
<path d="M85.0134 24.6127C84.9123 24.6127 84.8329 24.5838 84.7751 24.526C84.7173 24.4682 84.6884 24.3864 84.6884 24.2804V20.0265C84.6884 19.9157 84.7173 19.8339 84.7751 19.7809C84.8329 19.7231 84.9123 19.6942 85.0134 19.6942C85.1194 19.6942 85.1988 19.7231 85.2518 19.7809C85.3096 19.8339 85.3384 19.9157 85.3384 20.0265V20.6837L85.259 20.5537C85.336 20.2889 85.4877 20.077 85.714 19.9181C85.9403 19.7592 86.2123 19.6798 86.5301 19.6798C86.8431 19.6798 87.1151 19.7544 87.3463 19.9037C87.5774 20.0481 87.7579 20.2576 87.8879 20.532C88.0179 20.8017 88.0829 21.1243 88.0829 21.4998C88.0829 21.8706 88.0179 22.1956 87.8879 22.4749C87.7627 22.7493 87.5822 22.9612 87.3463 23.1104C87.1151 23.2549 86.8431 23.3271 86.5301 23.3271C86.2172 23.3271 85.9475 23.2476 85.7212 23.0888C85.4949 22.9299 85.3433 22.7204 85.2662 22.4604H85.3457V24.2804C85.3457 24.3864 85.3168 24.4682 85.259 24.526C85.2012 24.5838 85.1194 24.6127 85.0134 24.6127ZM86.3785 22.8071C86.5855 22.8071 86.7661 22.7565 86.9201 22.6554C87.079 22.5543 87.2018 22.4074 87.2885 22.2148C87.3751 22.0223 87.4185 21.7839 87.4185 21.4998C87.4185 21.0761 87.3246 20.7535 87.1368 20.532C86.949 20.3106 86.6962 20.1998 86.3785 20.1998C86.1666 20.1998 85.9812 20.2504 85.8223 20.3515C85.6683 20.4478 85.5479 20.5922 85.4612 20.7848C85.3794 20.9774 85.3384 21.2158 85.3384 21.4998C85.3384 21.9235 85.4323 22.2486 85.6201 22.4749C85.8079 22.6963 86.0607 22.8071 86.3785 22.8071Z" fill="#26326F"/>
<path d="M90.4783 23.3271C90.2375 23.3271 90.0184 23.2789 89.821 23.1826C89.6284 23.0863 89.4768 22.9563 89.366 22.7926C89.2601 22.6289 89.2071 22.446 89.2071 22.2437C89.2071 21.9837 89.2721 21.7791 89.4021 21.6298C89.5321 21.4806 89.7512 21.3746 90.0594 21.3121C90.3675 21.2446 90.7816 21.2109 91.3016 21.2109H91.6411V21.6298H91.3161C90.9453 21.6298 90.6516 21.6467 90.4349 21.6804C90.2231 21.7141 90.0738 21.7743 89.9871 21.861C89.9005 21.9428 89.8571 22.0584 89.8571 22.2076C89.8571 22.3954 89.9221 22.5495 90.0522 22.6699C90.187 22.7902 90.3699 22.8504 90.601 22.8504C90.784 22.8504 90.9453 22.8071 91.0849 22.7204C91.2246 22.6289 91.3353 22.5086 91.4172 22.3593C91.499 22.2052 91.54 22.0295 91.54 21.8321V21.0015C91.54 20.7174 91.4822 20.5128 91.3666 20.3876C91.2511 20.2576 91.0561 20.1926 90.7816 20.1926C90.6227 20.1926 90.459 20.2143 90.2905 20.2576C90.122 20.3009 89.9462 20.3683 89.7633 20.4598C89.691 20.4935 89.6284 20.5056 89.5755 20.4959C89.5225 20.4815 89.4792 20.4526 89.4455 20.4093C89.4166 20.3611 89.3997 20.3106 89.3949 20.2576C89.3949 20.1998 89.407 20.1444 89.431 20.0915C89.4599 20.0385 89.5081 20 89.5755 19.9759C89.7873 19.87 89.9968 19.7954 90.2038 19.752C90.4157 19.7039 90.6131 19.6798 90.7961 19.6798C91.109 19.6798 91.3666 19.7304 91.5688 19.8315C91.7711 19.9278 91.9227 20.0794 92.0239 20.2865C92.125 20.4887 92.1755 20.7487 92.1755 21.0665V22.9732C92.1755 23.0839 92.149 23.1682 92.0961 23.226C92.0431 23.2838 91.9661 23.3126 91.865 23.3126C91.7687 23.3126 91.6916 23.2838 91.6338 23.226C91.5809 23.1682 91.5544 23.0839 91.5544 22.9732V22.4604H91.6194C91.5809 22.6386 91.5087 22.7926 91.4027 22.9226C91.2968 23.0526 91.1644 23.1538 91.0055 23.226C90.8514 23.2934 90.6757 23.3271 90.4783 23.3271Z" fill="#26326F"/>
<path d="M94.8329 23.3271C94.5874 23.3271 94.3466 23.3006 94.1107 23.2476C93.8748 23.1899 93.6726 23.108 93.504 23.0021C93.4366 22.9684 93.3885 22.925 93.3596 22.8721C93.3355 22.8191 93.3259 22.7662 93.3307 22.7132C93.3355 22.6602 93.3548 22.6145 93.3885 22.576C93.427 22.5374 93.4727 22.5158 93.5257 22.511C93.5835 22.5013 93.6509 22.5158 93.7279 22.5543C93.882 22.6458 94.0553 22.7156 94.2479 22.7637C94.4405 22.8071 94.6331 22.8287 94.8257 22.8287C95.1628 22.8287 95.4035 22.7806 95.548 22.6843C95.6924 22.588 95.7646 22.4484 95.7646 22.2654C95.7646 22.0873 95.7044 21.9524 95.5841 21.861C95.4637 21.7695 95.2928 21.7237 95.0713 21.7237H94.4357C94.3539 21.7237 94.2865 21.7021 94.2335 21.6587C94.1853 21.6106 94.1613 21.5504 94.1613 21.4782C94.1613 21.4011 94.1853 21.3409 94.2335 21.2976C94.2865 21.2543 94.3539 21.2326 94.4357 21.2326H94.9918C95.1941 21.2326 95.353 21.1893 95.4685 21.1026C95.5889 21.0111 95.6491 20.8859 95.6491 20.727C95.6491 20.5585 95.5841 20.4261 95.4541 20.3298C95.3241 20.2287 95.1098 20.1781 94.8113 20.1781C94.6235 20.1781 94.4454 20.1998 94.2768 20.2431C94.1083 20.2817 93.9446 20.3419 93.7857 20.4237C93.6942 20.4719 93.6148 20.4863 93.5474 20.467C93.4848 20.443 93.439 20.402 93.4101 20.3443C93.3813 20.2817 93.3764 20.2191 93.3957 20.1565C93.4198 20.0891 93.4703 20.0361 93.5474 19.9976C93.7448 19.8868 93.9566 19.8074 94.1829 19.7592C94.4092 19.7063 94.6476 19.6798 94.898 19.6798C95.3506 19.6798 95.69 19.7665 95.9163 19.9398C96.1426 20.1131 96.2558 20.3563 96.2558 20.6693C96.2558 20.8907 96.1787 21.0785 96.0246 21.2326C95.8754 21.3867 95.6732 21.4782 95.418 21.5071V21.4132C95.7117 21.4228 95.9452 21.5071 96.1185 21.6659C96.2967 21.82 96.3858 22.0271 96.3858 22.2871C96.3858 22.6 96.2533 22.8528 95.9885 23.0454C95.7285 23.2332 95.3433 23.3271 94.8329 23.3271Z" fill="#26326F"/>
<path d="M97.9599 23.2621C97.8491 23.2621 97.7649 23.2332 97.7071 23.1754C97.6493 23.1176 97.6204 23.0334 97.6204 22.9226V20.0843C97.6204 19.9735 97.6493 19.8893 97.7071 19.8315C97.7649 19.7737 97.8491 19.7448 97.9599 19.7448H99.3755C99.6595 19.7448 99.8907 19.7809 100.069 19.8531C100.252 19.9254 100.387 20.0289 100.473 20.1637C100.56 20.2985 100.603 20.467 100.603 20.6693C100.603 20.8907 100.526 21.0785 100.372 21.2326C100.218 21.3867 100.016 21.4782 99.7655 21.5071V21.4132C100.064 21.4228 100.298 21.5095 100.466 21.6732C100.635 21.8321 100.719 22.0367 100.719 22.2871C100.719 22.5856 100.608 22.8239 100.387 23.0021C100.165 23.1754 99.8473 23.2621 99.4332 23.2621H97.9599ZM98.2416 22.8287H99.3971C99.6283 22.8287 99.804 22.7806 99.9244 22.6843C100.05 22.5832 100.112 22.4411 100.112 22.2582C100.112 22.0704 100.05 21.9284 99.9244 21.8321C99.804 21.7358 99.6283 21.6876 99.3971 21.6876H98.2416V22.8287ZM98.2416 21.2543H99.3394C99.5464 21.2543 99.7053 21.2061 99.816 21.1098C99.9316 21.0135 99.9894 20.8811 99.9894 20.7126C99.9894 20.5393 99.9316 20.4069 99.816 20.3154C99.7053 20.2239 99.5464 20.1781 99.3394 20.1781H98.2416V21.2543Z" fill="#26326F"/>
<path d="M102.263 23.3126C102.2 23.3126 102.145 23.3006 102.097 23.2765C102.053 23.2525 102.02 23.2139 101.995 23.161C101.971 23.108 101.959 23.0406 101.959 22.9587V20.012C101.959 19.9109 101.986 19.8339 102.039 19.7809C102.092 19.7231 102.166 19.6942 102.263 19.6942C102.354 19.6942 102.426 19.7231 102.479 19.7809C102.532 19.8339 102.559 19.9109 102.559 20.012V22.6193H102.371L104.408 19.9037C104.446 19.8507 104.494 19.8026 104.552 19.7592C104.61 19.7159 104.687 19.6942 104.783 19.6942C104.851 19.6942 104.906 19.7063 104.949 19.7304C104.993 19.7544 105.024 19.793 105.043 19.8459C105.067 19.8941 105.079 19.9591 105.079 20.0409V22.9949C105.079 23.0912 105.053 23.1682 105 23.226C104.952 23.2838 104.882 23.3126 104.79 23.3126C104.689 23.3126 104.612 23.2838 104.559 23.226C104.511 23.1682 104.487 23.0912 104.487 22.9949V20.3804H104.675L102.638 23.1032C102.6 23.1562 102.552 23.2043 102.494 23.2476C102.436 23.291 102.359 23.3126 102.263 23.3126Z" fill="#26326F"/>
<path d="M107.628 23.3126C107.522 23.3126 107.44 23.2838 107.383 23.226C107.325 23.1682 107.296 23.0839 107.296 22.9732V20.272H106.27C106.078 20.272 105.981 20.183 105.981 20.0048C105.981 19.923 106.008 19.8604 106.061 19.817C106.114 19.7689 106.184 19.7448 106.27 19.7448H108.971C109.169 19.7448 109.268 19.8315 109.268 20.0048C109.268 20.0915 109.241 20.1589 109.188 20.207C109.14 20.2504 109.068 20.272 108.971 20.272H107.953V22.9732C107.953 23.0839 107.924 23.1682 107.866 23.226C107.813 23.2838 107.734 23.3126 107.628 23.3126Z" fill="#26326F"/>
<path d="M110.468 23.3126C110.405 23.3126 110.35 23.3006 110.302 23.2765C110.258 23.2525 110.225 23.2139 110.201 23.161C110.177 23.108 110.165 23.0406 110.165 22.9587V20.012C110.165 19.9109 110.191 19.8339 110.244 19.7809C110.297 19.7231 110.372 19.6942 110.468 19.6942C110.559 19.6942 110.632 19.7231 110.685 19.7809C110.738 19.8339 110.764 19.9109 110.764 20.012V22.6193H110.576L112.613 19.9037C112.651 19.8507 112.7 19.8026 112.757 19.7592C112.815 19.7159 112.892 19.6942 112.988 19.6942C113.056 19.6942 113.111 19.7063 113.155 19.7304C113.198 19.7544 113.229 19.793 113.248 19.8459C113.273 19.8941 113.285 19.9591 113.285 20.0409V22.9949C113.285 23.0912 113.258 23.1682 113.205 23.226C113.157 23.2838 113.087 23.3126 112.996 23.3126C112.895 23.3126 112.818 23.2838 112.765 23.226C112.716 23.1682 112.692 23.0912 112.692 22.9949V20.3804H112.88L110.843 23.1032C110.805 23.1562 110.757 23.2043 110.699 23.2476C110.641 23.291 110.564 23.3126 110.468 23.3126Z" fill="#26326F"/>
<path d="M117.256 23.3126C117.16 23.3126 117.085 23.2862 117.032 23.2332C116.979 23.1754 116.953 23.096 116.953 22.9949V21.9476H116.469C116.291 21.9476 116.137 21.9934 116.007 22.0848C115.877 22.1763 115.773 22.2919 115.696 22.4315L115.299 23.1249C115.251 23.2067 115.193 23.2597 115.125 23.2838C115.063 23.3126 114.998 23.3175 114.93 23.2982C114.868 23.2838 114.813 23.2525 114.764 23.2043C114.716 23.1562 114.685 23.0984 114.67 23.031C114.661 22.9636 114.68 22.8937 114.728 22.8215L115.039 22.2798C115.121 22.145 115.229 22.0295 115.364 21.9332C115.499 21.8369 115.638 21.7887 115.783 21.7887H115.884V21.8537C115.489 21.8537 115.181 21.7622 114.959 21.5793C114.738 21.3963 114.627 21.1411 114.627 20.8137C114.627 20.597 114.675 20.4093 114.772 20.2504C114.873 20.0867 115.02 19.9615 115.212 19.8748C115.405 19.7881 115.646 19.7448 115.934 19.7448H117.227C117.333 19.7448 117.415 19.7737 117.473 19.8315C117.535 19.8893 117.567 19.9735 117.567 20.0843V22.9949C117.567 23.096 117.538 23.1754 117.48 23.2332C117.427 23.2862 117.352 23.3126 117.256 23.3126ZM116.064 21.4926H116.953V20.1998H116.064C115.79 20.1998 115.588 20.2576 115.458 20.3731C115.328 20.4839 115.263 20.6404 115.263 20.8426C115.263 21.0448 115.328 21.2037 115.458 21.3193C115.588 21.4348 115.79 21.4926 116.064 21.4926Z" fill="#26326F"/>
<path d="M10.4772 28.5706C8.44854 28.5706 6.63814 28.1212 5.04601 27.2224C3.47957 26.298 2.24695 25.0268 1.34817 23.409C0.449391 21.7912 0 19.9423 0 17.8623C0 15.7566 0.423711 13.9076 1.27113 12.3155C2.11856 10.6977 3.28697 9.42658 4.77638 8.50211C6.26579 7.57765 7.97347 7.11542 9.89943 7.11542C11.7997 7.11542 13.4817 7.56481 14.9454 8.4636C16.4092 9.3367 17.5519 10.5565 18.3737 12.1229C19.1954 13.6637 19.6063 15.4484 19.6063 17.4771C19.6063 17.8109 19.5035 18.0806 19.2981 18.286C19.0927 18.4657 18.823 18.5556 18.4892 18.5556H1.54077V16.5526H19.1055L17.4107 17.8238C17.462 16.1546 17.1796 14.678 16.5633 13.3941C15.9469 12.1101 15.061 11.1086 13.9054 10.3896C12.7755 9.64485 11.4402 9.2725 9.89943 9.2725C8.4357 9.2725 7.12605 9.64485 5.97047 10.3896C4.84058 11.1086 3.9418 12.1101 3.27413 13.3941C2.63214 14.678 2.31115 16.1674 2.31115 17.8623C2.31115 19.5314 2.65782 21.008 3.35117 22.292C4.04451 23.576 5.00749 24.5903 6.24011 25.335C7.47272 26.054 8.88509 26.4135 10.4772 26.4135C11.4787 26.4135 12.4802 26.2466 13.4817 25.9128C14.5089 25.5533 15.3178 25.091 15.9084 24.5261C16.1139 24.3207 16.3578 24.2179 16.6403 24.2179C16.9484 24.1923 17.2052 24.2693 17.4107 24.4491C17.6931 24.6802 17.8344 24.937 17.8344 25.2194C17.8601 25.5019 17.7445 25.7587 17.4877 25.9898C16.666 26.7345 15.5874 27.3508 14.2521 27.8388C12.9424 28.3267 11.6842 28.5706 10.4772 28.5706Z" fill="#26326F"/>
<path d="M31.1175 28.4165C30.6296 28.4165 30.2701 28.1469 30.0389 27.6076L21.2566 8.81027C21.1539 8.52779 21.1539 8.25816 21.2566 8.00136C21.3593 7.71889 21.5519 7.51346 21.8344 7.38506C22.1168 7.25666 22.3865 7.24382 22.6433 7.34654C22.9257 7.44926 23.1312 7.64185 23.2596 7.92433L31.8879 26.5676H30.4627L38.9369 7.88581C39.0653 7.60333 39.2707 7.41074 39.5532 7.30802C39.8613 7.2053 40.1567 7.21814 40.4391 7.34654C40.7216 7.47494 40.9142 7.68037 41.0169 7.96285C41.1453 8.21964 41.1453 8.48927 41.0169 8.77175L32.3501 27.6076C32.0933 28.1469 31.6824 28.4165 31.1175 28.4165Z" fill="#26326F"/>
<path d="M54.1947 28.6091C52.1403 28.6091 50.2914 28.1469 48.6479 27.2224C47.0301 26.2723 45.7462 24.9883 44.796 23.3705C43.8716 21.727 43.4093 19.891 43.4093 17.8623C43.4093 15.8079 43.8716 13.9718 44.796 12.354C45.7462 10.7105 47.0301 9.42658 48.6479 8.50211C50.2914 7.55197 52.1403 7.0769 54.1947 7.0769C56.249 7.0769 58.0851 7.55197 59.7029 8.50211C61.3207 9.42658 62.5919 10.7105 63.5163 12.354C64.4665 13.9718 64.9415 15.8079 64.9415 17.8623C64.9415 19.891 64.4665 21.727 63.5163 23.3705C62.5919 24.9883 61.3207 26.2723 59.7029 27.2224C58.0851 28.1469 56.249 28.6091 54.1947 28.6091ZM54.1947 26.4521C55.8125 26.4521 57.2505 26.0797 58.5088 25.335C59.7928 24.5646 60.7943 23.5374 61.5133 22.2535C62.258 20.9438 62.6304 19.4672 62.6304 17.8238C62.6304 16.206 62.258 14.7551 61.5133 13.4711C60.7943 12.1614 59.7928 11.1343 58.5088 10.3896C57.2505 9.61917 55.8125 9.23398 54.1947 9.23398C52.6026 9.23398 51.1645 9.61917 49.8805 10.3896C48.5966 11.1343 47.5822 12.1614 46.8375 13.4711C46.0928 14.7551 45.7205 16.2188 45.7205 17.8623C45.7205 19.4801 46.0928 20.9438 46.8375 22.2535C47.5822 23.5374 48.5966 24.5646 49.8805 25.335C51.1645 26.0797 52.6026 26.4521 54.1947 26.4521Z" fill="#26326F"/>
<path d="M57.1055 7.83374V9.4524C59.2559 10.0925 61.0786 11.502 62.2081 13.3982C63.3375 15.2944 63.6901 17.5371 63.1952 19.6764C62.7003 21.8156 61.3945 23.6932 59.5396 24.9325C57.6847 26.1718 55.4181 26.6812 53.1943 26.3583C50.9706 26.0355 48.9542 24.9045 47.5497 23.192C46.1451 21.4796 45.4563 19.3125 45.6215 17.1253C45.7866 14.9382 46.7934 12.8929 48.44 11.3996C50.0865 9.90635 52.251 9.07563 54.4993 9.07407H55.2985V3.33317C55.6629 3.15734 55.9557 2.86645 56.1292 2.50778C56.3027 2.14911 56.3468 1.74373 56.2542 1.35755C56.1617 0.971357 55.9379 0.627053 55.6194 0.380592C55.3008 0.134131 54.9062 0 54.4996 0C54.093 0 53.6984 0.134131 53.3799 0.380592C53.0613 0.627053 52.8376 0.971357 52.745 1.35755C52.6525 1.74373 52.6965 2.14911 52.8701 2.50778C53.0436 2.86645 53.3363 3.15734 53.7008 3.33317V7.54498C48.2833 7.94481 44 12.3723 44 17.7578C44 23.4056 48.7101 28 54.5 28C60.2899 28 65 23.4056 65 17.7578C65.0021 15.483 64.2272 13.2724 62.7975 11.4752C61.3679 9.67795 59.3651 8.39667 57.1055 7.83374Z" fill="#26326F"/>
<path d="M59 19C60.1046 19 61 18.1046 61 17C61 15.8954 60.1046 15 59 15C57.8954 15 57 15.8954 57 17C57 18.1046 57.8954 19 59 19Z" fill="#26326F"/>
<path d="M50 19C51.1046 19 52 18.1046 52 17C52 15.8954 51.1046 15 50 15C48.8954 15 48 15.8954 48 17C48 18.1046 48.8954 19 50 19Z" fill="#26326F"/>
</svg>
