<svg width="121" height="158" viewBox="0 0 121 158" fill="none" xmlns="http://www.w3.org/2000/svg">
<path fill-rule="evenodd" clip-rule="evenodd" d="M46.1967 8.79744C45.5753 7.86741 45.2436 6.77399 45.2436 5.65545C45.2436 4.15553 45.8394 2.71704 46.9 1.65644C47.9606 0.59584 49.3991 0 50.899 0C52.0176 0 53.111 0.331686 54.041 0.953115C54.9711 1.57454 55.6959 2.4578 56.124 3.4912C56.552 4.5246 56.664 5.66172 56.4458 6.75877C56.2276 7.85582 55.689 8.86352 54.8981 9.65445C54.6607 9.89184 54.4037 10.1065 54.1307 10.2966V22.6218H63.0126C64.8003 22.6218 66.2495 24.0146 66.2495 25.7327V27.0619C69.8032 27.5617 73.2879 28.5264 76.6169 29.9381C81.7243 32.1041 86.3653 35.2802 90.2747 39.2849C94.1841 43.2897 97.2853 48.0446 99.4011 53.278C101.517 58.5114 102.606 64.1208 102.606 69.7857V82.4104C102.606 88.838 100.115 95.0023 95.68 99.5473C95.4829 99.7492 95.2827 99.9473 95.0796 100.141C95.5554 100.004 96.0422 99.8613 96.5403 99.713L96.6641 99.6762C99.2067 98.9199 103.588 97.6167 107.779 99.6657C108.753 100.139 110.105 100.817 110.541 102.19C111.62 105.521 106.36 110.215 104.379 111.982L104.379 111.983L104.355 112.004C98.232 117.471 89.0067 122.616 81.9163 123.484C76.9687 138.72 74.2093 144.651 67.9871 151.656C65.6271 154.33 62.0732 155.61 60.6956 156.106L60.6925 156.108C60.6275 156.131 60.5673 156.153 60.5123 156.173C56.5841 157.605 53.0634 157.565 50.4876 157.536C50.1448 157.532 49.8189 157.528 49.5108 157.528H49.0556C48.6877 157.524 48.2938 157.527 47.8762 157.529H47.8741C45.3225 157.545 41.8848 157.567 38.0609 156.173C37.997 156.149 37.9258 156.123 37.8479 156.095C36.4601 155.591 32.9474 154.316 30.5861 151.656C29.4581 150.392 28.4524 149.163 27.5283 147.905C26.876 147.037 26.2642 146.15 25.6822 145.234C25.6056 145.33 25.5268 145.425 25.4458 145.52C24.8011 146.271 23.8849 147.32 22.6363 147.374C19.5899 147.515 17.1433 141.761 16.1947 139.53L16.1691 139.47C12.0775 129.87 10.1433 114.891 15.6922 110.441C16.1066 109.587 16.6211 108.784 17.2267 108.051C17.7795 107.373 18.3865 106.748 19.0403 106.181C17.5214 105.872 16.0321 105.41 14.5946 104.799C11.7226 103.58 9.11356 101.792 6.91659 99.5376C4.71962 97.2834 2.97791 94.6074 1.79109 91.6627C0.604271 88.7179 -0.00436401 85.5622 3.05176e-05 82.3762V69.7857C3.05176e-05 58.3484 4.4332 47.3796 12.3243 39.2922C18.6596 32.7993 26.8072 28.5906 35.5485 27.1835V25.7327C35.5485 24.0146 36.9978 22.6218 38.7855 22.6218H47.6674V10.2966C47.0908 9.8951 46.591 9.38757 46.1967 8.79744Z" fill="white"/>
<g clip-path="url(#clip0_911_8092)">
<path d="M93.2727 102.41C79.0217 106.308 75.6387 105.215 73.0983 109.027C71.9843 110.659 71.4599 112.62 71.6113 114.588C71.8235 116.402 72.6318 118.094 73.91 119.401C78.7925 124.116 92.2379 118.351 99.9334 112.036C101.606 110.665 106.129 106.97 105.206 104.35C104.835 103.275 103.682 102.743 102.852 102.373C99.2209 100.741 95.4227 101.823 93.2727 102.41Z" fill="url(#paint0_linear_911_8092)"/>
<path d="M49.2372 6.81834H52.2733V26.683H49.2372V6.81834Z" fill="url(#paint1_linear_911_8092)"/>
<path d="M40.2717 24.6008H61.233C62.7797 24.6008 64.0336 25.8511 64.0336 27.3936V34.8637C64.0336 36.4061 62.7797 37.6565 61.233 37.6565H40.2717C38.725 37.6565 37.4711 36.4061 37.4711 34.8637V27.3936C37.4711 25.8511 38.725 24.6008 40.2717 24.6008Z" fill="url(#paint2_linear_911_8092)"/>
<path d="M59.2935 30.8413H42.2171C31.8775 30.8413 21.9614 34.9372 14.6502 42.228C7.33895 49.5188 3.23155 59.4072 3.23155 69.718V81.0683C3.22748 83.9405 3.79139 86.7854 4.89099 89.4401C5.9906 92.0948 7.60432 94.5072 9.63985 96.5394C11.6754 98.5715 14.0927 100.183 16.7536 101.283C19.4145 102.383 22.2667 102.948 25.147 102.947H76.3884C82.1991 102.947 87.7718 100.645 91.8805 96.5481C95.9893 92.4508 98.2976 86.8937 98.2976 81.0992V69.718C98.2976 64.611 97.2886 59.5542 95.3282 54.8362C93.3679 50.1183 90.4945 45.8317 86.8724 42.2215C83.2503 38.6112 78.9504 35.7479 74.2183 33.7953C69.4862 31.8426 64.4147 30.8389 59.2935 30.8413Z" fill="url(#paint3_linear_911_8092)"/>
<path d="M18.1827 78.9984C19.4428 79.6188 20.8296 79.9402 22.2349 79.9376H79.2758C80.6811 79.9402 82.0679 79.6188 83.328 78.9984C84.7716 78.3442 85.9695 77.2496 86.749 75.8726C87.5285 74.4956 87.8494 72.9073 87.6653 71.3368L87.6343 71.1082C86.1782 60.5425 76.5805 52.4175 64.8142 51.812C59.8574 51.5524 54.6155 51.4165 49.1692 51.4474C44.9021 51.4762 40.7715 51.5957 36.7771 51.8058C24.9674 52.4237 15.3015 60.4993 13.8517 71.1082L13.8207 71.3368C13.6405 72.9099 13.9658 74.4995 14.7497 75.8764C15.5337 77.2533 16.7357 78.3465 18.1827 78.9984Z" fill="url(#paint4_linear_911_8092)"/>
<path style="mix-blend-mode:screen" d="M65.787 77.6082C59.8464 77.6082 55.0306 72.8059 55.0306 66.8819C55.0306 60.9579 59.8464 56.1556 65.787 56.1556C71.7276 56.1556 76.5433 60.9579 76.5433 66.8819C76.5433 72.8059 71.7276 77.6082 65.787 77.6082Z" fill="url(#paint5_radial_911_8092)"/>
<path d="M65.787 74.5806C61.5232 74.5806 58.0667 71.1338 58.0667 66.8819C58.0667 62.63 61.5232 59.1832 65.787 59.1832C70.0508 59.1832 73.5073 62.63 73.5073 66.8819C73.5073 71.1338 70.0508 74.5806 65.787 74.5806Z" fill="#EEFDFF"/>
<path d="M65.787 73.3449C62.2076 73.3449 59.3059 70.4513 59.3059 66.8819C59.3059 63.3125 62.2076 60.4189 65.787 60.4189C69.3664 60.4189 72.2681 63.3125 72.2681 66.8819C72.2681 70.4513 69.3664 73.3449 65.787 73.3449Z" fill="url(#paint6_linear_911_8092)"/>
<path d="M61.6356 65.2075C61.6405 65.6808 61.7858 66.1421 62.0532 66.5332C62.3206 66.9243 62.6981 67.2277 63.1381 67.4052C63.5782 67.5827 64.0611 67.6263 64.526 67.5305C64.9908 67.4347 65.4169 67.2039 65.7503 66.867C66.0838 66.5302 66.3099 66.1024 66.3999 65.6376C66.49 65.1729 66.4401 64.6919 66.2565 64.2554C66.0729 63.8189 65.7638 63.4464 65.3682 63.1848C64.9726 62.9232 64.5081 62.7842 64.0335 62.7854C63.7159 62.7854 63.4016 62.8482 63.1086 62.9703C62.8157 63.0924 62.5499 63.2713 62.3269 63.4966C62.1038 63.722 61.9278 63.9892 61.8091 64.2829C61.6905 64.5766 61.6315 64.8909 61.6356 65.2075Z" fill="#EEFDFF"/>
<path d="M66.7474 72.795C66.217 72.795 65.787 72.3662 65.787 71.8373C65.787 71.3083 66.217 70.8796 66.7474 70.8796C67.2778 70.8796 67.7078 71.3083 67.7078 71.8373C67.7078 72.3662 67.2778 72.795 66.7474 72.795Z" fill="#EEFDFF"/>
<path d="M69.1204 70.4038C69.1192 70.4994 69.1465 70.5931 69.1989 70.6732C69.2512 70.7533 69.3262 70.816 69.4144 70.8534C69.5026 70.8909 69.6 70.9013 69.6942 70.8834C69.7883 70.8655 69.875 70.8201 69.9432 70.753C70.0114 70.6858 70.0581 70.5999 70.0772 70.5063C70.0964 70.4126 70.0872 70.3154 70.0508 70.227C70.0144 70.1386 69.9525 70.0629 69.8729 70.0097C69.7933 69.9565 69.6996 69.928 69.6037 69.928C69.4766 69.928 69.3546 69.978 69.2642 70.067C69.1737 70.1561 69.1221 70.2771 69.1204 70.4038Z" fill="#EEFDFF"/>
<path style="mix-blend-mode:screen" d="M36.7337 77.6082C30.7931 77.6082 25.9774 72.8059 25.9774 66.8819C25.9774 60.9579 30.7931 56.1556 36.7337 56.1556C42.6743 56.1556 47.4901 60.9579 47.4901 66.8819C47.4901 72.8059 42.6743 77.6082 36.7337 77.6082Z" fill="url(#paint7_radial_911_8092)"/>
<path d="M36.7337 74.5806C32.4699 74.5806 29.0134 71.1338 29.0134 66.8819C29.0134 62.63 32.4699 59.1832 36.7337 59.1832C40.9975 59.1832 44.454 62.63 44.454 66.8819C44.454 71.1338 40.9975 74.5806 36.7337 74.5806Z" fill="#EEFDFF"/>
<path d="M36.7336 73.3449C33.1543 73.3449 30.2526 70.4513 30.2526 66.8819C30.2526 63.3125 33.1543 60.4189 36.7336 60.4189C40.313 60.4189 43.2147 63.3125 43.2147 66.8819C43.2147 70.4513 40.313 73.3449 36.7336 73.3449Z" fill="url(#paint8_linear_911_8092)"/>
<path d="M32.5761 65.2075C32.581 65.6805 32.7262 66.1416 32.9933 66.5326C33.2604 66.9235 33.6376 67.227 34.0773 67.4046C34.5169 67.5823 34.9995 67.6263 35.4642 67.531C35.9289 67.4357 36.355 67.2055 36.6887 66.8692C37.0224 66.533 37.249 66.1058 37.3397 65.6414C37.4305 65.1771 37.3815 64.6963 37.1988 64.2597C37.0161 63.8231 36.708 63.4501 36.3132 63.1878C35.9184 62.9254 35.4546 62.7854 34.9802 62.7854C34.6624 62.7854 34.3478 62.8482 34.0545 62.9702C33.7611 63.0922 33.495 63.271 33.2715 63.4963C33.0479 63.7215 32.8713 63.9887 32.752 64.2825C32.6326 64.5762 32.5729 64.8906 32.5761 65.2075Z" fill="#EEFDFF"/>
<path d="M37.6879 72.795C37.1575 72.795 36.7275 72.3662 36.7275 71.8373C36.7275 71.3083 37.1575 70.8796 37.6879 70.8796C38.2183 70.8796 38.6483 71.3083 38.6483 71.8373C38.6483 72.3662 38.2183 72.795 37.6879 72.795Z" fill="#EEFDFF"/>
<path d="M40.0671 70.4038C40.0659 70.4996 40.0934 70.5937 40.146 70.6739C40.1986 70.754 40.2741 70.8168 40.3626 70.854C40.4512 70.8913 40.5489 70.9013 40.6432 70.8829C40.7375 70.8645 40.8242 70.8185 40.8921 70.7507C40.9601 70.683 41.0063 70.5965 41.0247 70.5025C41.0432 70.4084 41.0331 70.311 40.9957 70.2227C40.9584 70.1344 40.8955 70.0592 40.8151 70.0067C40.7346 69.9542 40.6403 69.9268 40.5442 69.928C40.4182 69.9296 40.2978 69.9803 40.2087 70.0692C40.1195 70.158 40.0688 70.2781 40.0671 70.4038Z" fill="#EEFDFF"/>
<path d="M46.8642 5.49609C46.8642 6.26353 47.0924 7.01374 47.52 7.65185C47.9475 8.28995 48.5552 8.78729 49.2662 9.08098C49.9772 9.37466 50.7596 9.45151 51.5144 9.30179C52.2692 9.15207 52.9626 8.78251 53.5067 8.23985C54.0509 7.69718 54.4215 7.00579 54.5717 6.25309C54.7218 5.5004 54.6447 4.72021 54.3502 4.01119C54.0557 3.30216 53.557 2.69615 52.9171 2.26978C52.2772 1.84342 51.5249 1.61584 50.7553 1.61584C49.7233 1.61584 48.7336 2.02465 48.0039 2.75234C47.2741 3.48003 46.8642 4.46699 46.8642 5.49609Z" fill="url(#paint9_linear_911_8092)"/>
<path d="M48.0539 3.9823C48.0551 4.21544 48.1256 4.443 48.2563 4.63626C48.3871 4.82952 48.5724 4.97982 48.7887 5.06819C49.0051 5.15657 49.2428 5.17906 49.472 5.13283C49.7012 5.0866 49.9114 4.97371 50.0763 4.80843C50.2412 4.64314 50.3533 4.43285 50.3985 4.20409C50.4436 3.97534 50.4199 3.73837 50.3301 3.52309C50.2404 3.3078 50.0887 3.12386 49.8942 2.99445C49.6997 2.86505 49.4711 2.79599 49.2373 2.79598C49.0814 2.79598 48.927 2.82671 48.783 2.8864C48.639 2.9461 48.5083 3.03358 48.3983 3.14382C48.2884 3.25406 48.2013 3.38489 48.1422 3.52878C48.0831 3.67268 48.0531 3.8268 48.0539 3.9823Z" fill="white"/>
<path d="M17.2719 43.2791C17.2161 45.0895 18.697 47.252 20.3699 47.4374C21.9623 47.6104 23.2325 45.9916 24.546 44.348C25.8596 42.7045 28.6788 38.4412 27.5635 37.2425C26.0765 35.6607 17.3896 39.0096 17.2719 43.2791Z" fill="white"/>
<path d="M31.8078 36.3775C31.0618 36.3775 30.4571 35.7744 30.4571 35.0305C30.4571 34.2866 31.0618 33.6835 31.8078 33.6835C32.5538 33.6835 33.1586 34.2866 33.1586 35.0305C33.1586 35.7744 32.5538 36.3775 31.8078 36.3775Z" fill="white"/>
<path d="M17.464 68.3957C17.8977 68.6985 20.9214 62.5568 29.032 57.2307C31.8884 55.3771 34.7014 54.0239 34.5341 53.6409C34.3668 53.2578 31.1944 53.9745 28.654 55.1547C20.562 58.8928 16.9435 68.0312 17.464 68.3957Z" fill="white"/>
<path d="M38.2455 28.4625C38.3384 28.4625 38.4004 27.9126 38.8651 27.0352C39.0062 26.7744 39.1635 26.5227 39.336 26.2814C40.1539 25.163 42.9111 25.1878 43.128 25.1878C47.4652 25.2248 50.1977 24.953 50.1977 24.9777C50.1977 25.0024 48.1778 24.9777 46.7031 24.9282C42.5332 24.8479 40.0486 24.6193 38.9828 25.7377C38.6972 26.0487 38.4705 26.4088 38.3137 26.8004C38.0286 27.616 38.1278 28.4501 38.2455 28.4625Z" fill="white"/>
<path d="M39.1378 84.5408C39.1987 85.0401 39.4304 85.5033 39.7938 85.8522C40.1573 86.2011 40.6302 86.4144 41.1329 86.4562L55.3838 87.8279C55.8853 87.8833 56.3907 87.7641 56.8141 87.4904C57.2376 87.2168 57.5532 86.8056 57.7073 86.3264C57.8425 85.8812 57.9461 85.4269 58.0171 84.9671C58.0258 84.9033 58.0215 84.8384 58.0046 84.7762C57.9876 84.714 57.9584 84.6559 57.9185 84.6052C57.8787 84.5545 57.829 84.5123 57.7725 84.4811C57.716 84.4498 57.6538 84.4302 57.5896 84.4234L39.6211 82.6933C39.4933 82.6835 39.3668 82.7233 39.2679 82.8045C39.1739 82.8915 39.1163 83.0107 39.1068 83.1382C39.0829 83.6058 39.0932 84.0746 39.1378 84.5408Z" fill="#EEFDFF"/>
<path d="M39.1378 84.5408C39.3669 86.7003 40.3318 88.7161 41.8714 90.2519C43.411 91.7877 45.4322 92.7505 47.5977 92.9797C49.7632 93.2089 51.942 92.6905 53.7706 91.5112C55.5991 90.3319 56.9668 88.5629 57.6454 86.4994C57.4603 86.9338 57.1397 87.297 56.7312 87.5352C56.3227 87.7734 55.848 87.8739 55.3776 87.8217L41.1267 86.4562C40.6251 86.413 40.1536 86.1991 39.7915 85.8503C39.4293 85.5016 39.1985 85.0392 39.1378 84.5408Z" fill="url(#paint10_linear_911_8092)"/>
<path d="M16.6894 116.448C16.6894 116.578 16.6894 116.701 16.6894 116.825C16.7223 117.666 16.8768 118.499 17.1479 119.296C21.07 131.24 23.4245 137.542 26.7146 142.64C27.2847 143.517 27.8857 144.363 28.5301 145.191C29.3727 146.297 30.2897 147.379 31.3183 148.491C33.5922 150.962 37.0373 152.074 38.134 152.464C42.1924 153.891 45.7737 153.631 48.1592 153.656H48.5743C50.966 153.656 54.5473 153.891 58.6057 152.464C59.7148 152.074 63.166 150.956 65.4214 148.491C71.6794 141.694 74.0959 136.047 79.5856 119.296C79.8445 118.54 79.9987 117.752 80.0441 116.954C80.0441 116.633 80.0441 116.337 80.0441 115.984C79.8724 113.864 79.0405 111.851 77.6648 110.226C76.4185 108.719 74.8507 107.508 73.0756 106.682C71.3006 105.855 69.363 105.434 67.4041 105.45L48.3822 105.419L29.6702 105.345C27.6682 105.314 25.6845 105.728 23.8627 106.556C22.0409 107.384 20.4267 108.606 19.1369 110.133C17.956 111.511 17.1552 113.172 16.8133 114.953C16.7762 115.187 16.739 115.435 16.7204 115.675C16.7018 115.916 16.6894 116.176 16.6894 116.448Z" fill="url(#paint11_linear_911_8092)"/>
<path d="M48.3885 105.419L67.4475 105.499C69.405 105.487 71.3407 105.909 73.1143 106.735C74.8878 107.561 76.4549 108.771 77.702 110.275C79.0833 111.89 79.9239 113.895 80.1061 116.009C79.9463 113.824 79.0762 111.75 77.6277 110.102C76.3384 108.574 74.7242 107.352 72.9023 106.524C71.0804 105.696 69.0964 105.282 67.0944 105.314L48.3885 105.419Z" fill="url(#paint12_linear_911_8092)"/>
<path d="M29.4409 133.39C29.7198 118.647 31.7211 115.731 28.7718 112.222C27.5195 110.701 25.7874 109.649 23.8583 109.237C22.0438 108.931 20.1785 109.233 18.5545 110.096C12.6435 113.439 14.3969 127.928 18.2943 137.072C19.1431 139.068 21.3923 144.419 24.1991 144.289C25.3392 144.24 26.1756 143.282 26.7643 142.596C29.3728 139.556 29.4038 135.614 29.4409 133.39Z" fill="url(#paint13_linear_911_8092)"/>
<path d="M26.7209 142.658C27.2909 143.535 27.8919 144.382 28.5363 145.21C28.7408 145 28.9205 144.79 29.0877 144.592C31.6901 141.552 31.7211 137.61 31.7582 135.386C32.0371 120.643 34.0446 117.727 31.0891 114.223C30.4379 113.444 29.6635 112.777 28.7965 112.246C31.7087 115.743 29.7259 118.685 29.4471 133.384C29.4037 135.608 29.3728 139.562 26.7704 142.596C26.7486 142.612 26.7315 142.633 26.7209 142.658Z" fill="url(#paint14_linear_911_8092)"/>
<path d="M18.381 121.113C18.5252 119.39 18.8534 117.687 19.3599 116.034C20.1406 112.988 21.1134 111.499 20.4814 110.912C20.0663 110.529 19.2422 110.788 19.0687 110.844C16.2743 111.733 15.4068 116.961 15.5308 120.235C15.6051 122.237 16.0946 124.48 16.8319 124.56C16.9424 124.572 17.0541 124.562 17.1604 124.53C17.2668 124.498 17.3658 124.445 17.4515 124.375C18.2632 123.671 18.319 122.318 18.381 121.113Z" fill="white"/>
<path d="M16.4602 126.705C16.4602 126.819 16.4944 126.932 16.5584 127.027C16.6224 127.123 16.7133 127.197 16.8197 127.241C16.9262 127.285 17.0433 127.297 17.1563 127.274C17.2692 127.252 17.373 127.196 17.4545 127.115C17.5359 127.034 17.5914 126.93 17.6139 126.818C17.6363 126.705 17.6248 126.588 17.5807 126.482C17.5366 126.376 17.462 126.285 17.3662 126.222C17.2704 126.158 17.1578 126.124 17.0426 126.124C16.8882 126.124 16.74 126.185 16.6308 126.294C16.5216 126.403 16.4602 126.55 16.4602 126.705Z" fill="white"/>
</g>
<defs>
<linearGradient id="paint0_linear_911_8092" x1="85.1591" y1="111.368" x2="29.9806" y2="154.38" gradientUnits="userSpaceOnUse">
<stop offset="0.04" stop-color="#7B54FF"/>
<stop offset="1" stop-color="#110064"/>
</linearGradient>
<linearGradient id="paint1_linear_911_8092" x1="51.728" y1="31.3272" x2="47.556" y2="30.9723" gradientUnits="userSpaceOnUse">
<stop offset="0.04" stop-color="#2707F2"/>
<stop offset="1" stop-color="#C282FA"/>
</linearGradient>
<linearGradient id="paint2_linear_911_8092" x1="59.2626" y1="40.7088" x2="43.154" y2="22.4676" gradientUnits="userSpaceOnUse">
<stop offset="0.04" stop-color="#2707F2"/>
<stop offset="1" stop-color="#C282FA"/>
</linearGradient>
<linearGradient id="paint3_linear_911_8092" x1="82.6712" y1="103.726" x2="18.8141" y2="39.6898" gradientUnits="userSpaceOnUse">
<stop offset="0.04" stop-color="#2706F1"/>
<stop offset="1" stop-color="#D18EFA"/>
</linearGradient>
<linearGradient id="paint4_linear_911_8092" x1="50.9227" y1="79.8449" x2="50.3558" y2="54.3019" gradientUnits="userSpaceOnUse">
<stop stop-color="#030D14"/>
<stop offset="1" stop-color="#0B2F45"/>
</linearGradient>
<radialGradient id="paint5_radial_911_8092" cx="0" cy="0" r="1" gradientUnits="userSpaceOnUse" gradientTransform="translate(65.787 66.8819) rotate(180) scale(10.6448 10.6151)">
<stop offset="0.13" stop-color="#3280FC"/>
<stop offset="1"/>
</radialGradient>
<linearGradient id="paint6_linear_911_8092" x1="72.2681" y1="66.8819" x2="59.3059" y2="66.8819" gradientUnits="userSpaceOnUse">
<stop stop-color="#030D14"/>
<stop offset="1" stop-color="#0B2F45"/>
</linearGradient>
<radialGradient id="paint7_radial_911_8092" cx="0" cy="0" r="1" gradientUnits="userSpaceOnUse" gradientTransform="translate(36.7337 66.8819) rotate(180) scale(10.6448 10.6151)">
<stop offset="0.13" stop-color="#3280FC"/>
<stop offset="1"/>
</radialGradient>
<linearGradient id="paint8_linear_911_8092" x1="43.2147" y1="66.8819" x2="30.2464" y2="66.8819" gradientUnits="userSpaceOnUse">
<stop stop-color="#030D14"/>
<stop offset="1" stop-color="#0B2F45"/>
</linearGradient>
<linearGradient id="paint9_linear_911_8092" x1="53.2486" y1="11.1907" x2="45.0358" y2="6.60682" gradientUnits="userSpaceOnUse">
<stop offset="0.04" stop-color="#2707F2"/>
<stop offset="1" stop-color="#C282FA"/>
</linearGradient>
<linearGradient id="paint10_linear_911_8092" x1="51.1457" y1="89.7618" x2="32.6528" y2="71.2233" gradientUnits="userSpaceOnUse">
<stop offset="0.07" stop-color="#150094"/>
<stop offset="1" stop-color="#CA8EFA"/>
</linearGradient>
<linearGradient id="paint11_linear_911_8092" x1="69.6302" y1="154.192" x2="26.8313" y2="111.517" gradientUnits="userSpaceOnUse">
<stop offset="0.04" stop-color="#2706F1"/>
<stop offset="1" stop-color="#D18EFA"/>
</linearGradient>
<linearGradient id="paint12_linear_911_8092" x1="71.2581" y1="117.35" x2="41.8106" y2="82.8714" gradientUnits="userSpaceOnUse">
<stop offset="0.04" stop-color="#06CFF1"/>
<stop offset="1" stop-color="#DEFA8E"/>
</linearGradient>
<linearGradient id="paint13_linear_911_8092" x1="20.0044" y1="141.873" x2="7.07977" y2="128.238" gradientUnits="userSpaceOnUse">
<stop offset="0.04" stop-color="#2706F1"/>
<stop offset="0.562769" stop-color="#A780FE"/>
<stop offset="1" stop-color="#D18EFA"/>
</linearGradient>
<linearGradient id="paint14_linear_911_8092" x1="40.1973" y1="134.725" x2="14.1617" y2="121.121" gradientUnits="userSpaceOnUse">
<stop offset="0.04" stop-color="#6034F5"/>
<stop offset="1" stop-color="#170094"/>
</linearGradient>
<clipPath id="clip0_911_8092">
<rect width="117.768" height="153.505" fill="white" transform="matrix(-1 0 0 1 121 1.61584)"/>
</clipPath>
</defs>
</svg>
