<svg width="215" height="49" viewBox="0 0 215 49" fill="none" xmlns="http://www.w3.org/2000/svg">
<path d="M24.2973 11.5951C24.6921 5.08088 30.0902 0 36.6164 0H195C206.046 0 215 8.95431 215 20V29C215 40.0457 206.046 49 195 49H33.9211C28.9941 49 25 45.0059 25 40.0789C25 34.0767 19.192 29.7871 13.4553 31.5522L8.2324 33.1593C6.43244 33.7131 4.77485 34.6526 3.37506 35.9124L0.5 38.5L20.4128 19.8583C22.7163 17.7017 24.1064 14.7448 24.2973 11.5951Z" fill="white"/>
<path d="M41.245 18.7543V15.924H41.7315C41.8949 15.7938 42.0476 15.6103 42.1896 15.3736C42.3317 15.1368 42.4524 14.8125 42.5518 14.4006C42.6513 13.9886 42.7199 13.456 42.7578 12.8026L42.9496 9.72727H47.598V15.924H48.4077V18.7472H47.1435V17H42.5092V18.7543H41.245ZM43.2656 15.924H46.3338V10.8317H44.1357L44.022 12.8026C43.9912 13.2973 43.9415 13.7401 43.8729 14.1307C43.8042 14.5213 43.7178 14.8658 43.6136 15.1641C43.5095 15.46 43.3935 15.7133 43.2656 15.924ZM50.9938 17.1101C50.6481 17.1101 50.3368 17.0485 50.0598 16.9254C49.7852 16.8 49.5674 16.6153 49.4064 16.3714C49.2478 16.1276 49.1685 15.8269 49.1685 15.4695C49.1685 15.1617 49.2253 14.9072 49.339 14.706C49.4526 14.5047 49.6077 14.3438 49.8042 14.223C50.0007 14.1023 50.222 14.0111 50.4682 13.9496C50.7168 13.8857 50.9737 13.8395 51.2388 13.8111C51.5584 13.7779 51.8176 13.7483 52.0165 13.7223C52.2154 13.6939 52.3598 13.6513 52.4498 13.5945C52.5421 13.5353 52.5882 13.4441 52.5882 13.321V13.2997C52.5882 13.0322 52.5089 12.825 52.3503 12.6783C52.1917 12.5315 51.9632 12.4581 51.665 12.4581C51.3501 12.4581 51.1003 12.5268 50.9157 12.6641C50.7334 12.8014 50.6103 12.9635 50.5463 13.1506L49.3461 12.9801C49.4408 12.6487 49.597 12.3717 49.8148 12.1491C50.0326 11.9242 50.2989 11.7562 50.6138 11.6449C50.9287 11.5312 51.2767 11.4744 51.6578 11.4744C51.9206 11.4744 52.1822 11.5052 52.4426 11.5668C52.7031 11.6283 52.941 11.7301 53.1564 11.8722C53.3719 12.0118 53.5447 12.2024 53.6749 12.4439C53.8075 12.6854 53.8738 12.9872 53.8738 13.3494V17H52.638V16.2507H52.5953C52.5172 16.4022 52.4071 16.5443 52.2651 16.6768C52.1254 16.8071 51.949 16.9124 51.736 16.9929C51.5253 17.071 51.2779 17.1101 50.9938 17.1101ZM51.3276 16.1655C51.5856 16.1655 51.8094 16.1146 51.9988 16.0128C52.1882 15.9086 52.3337 15.7713 52.4355 15.6009C52.5397 15.4304 52.5918 15.2446 52.5918 15.0433V14.4006C52.5516 14.4337 52.4829 14.4645 52.3858 14.4929C52.2911 14.5213 52.1846 14.5462 52.0662 14.5675C51.9479 14.5888 51.8307 14.6077 51.7147 14.6243C51.5987 14.6409 51.498 14.6551 51.4128 14.6669C51.2211 14.6929 51.0494 14.7356 50.8979 14.7947C50.7464 14.8539 50.6268 14.9368 50.5392 15.0433C50.4516 15.1475 50.4078 15.2824 50.4078 15.4482C50.4078 15.6849 50.4943 15.8636 50.6671 15.9844C50.8399 16.1051 51.0601 16.1655 51.3276 16.1655ZM55.1664 17V11.5455H57.4569C58.1032 11.5455 58.6133 11.6745 58.9874 11.9325C59.3638 12.1906 59.552 12.5504 59.552 13.0121C59.552 13.3175 59.4455 13.5672 59.2324 13.7614C59.0217 13.9531 58.7341 14.0821 58.3695 14.1484C58.656 14.1721 58.9069 14.2443 59.1223 14.3651C59.3401 14.4858 59.5106 14.6444 59.6337 14.8409C59.7568 15.0374 59.8184 15.2635 59.8184 15.5192C59.8184 15.8198 59.7391 16.0814 59.5804 16.304C59.4242 16.5241 59.1957 16.6958 58.8951 16.8189C58.5968 16.9396 58.2346 17 57.8084 17H55.1664ZM56.3702 15.9879H57.8084C58.0452 15.9879 58.231 15.9323 58.3659 15.821C58.5009 15.7074 58.5684 15.5535 58.5684 15.3594C58.5684 15.1345 58.5009 14.9581 58.3659 14.8303C58.231 14.7 58.0452 14.6349 57.8084 14.6349H56.3702V15.9879ZM56.3702 13.804H57.4817C57.6569 13.804 57.8072 13.7791 57.9327 13.7294C58.0582 13.6773 58.1541 13.6051 58.2203 13.5128C58.2866 13.4181 58.3198 13.3056 58.3198 13.1754C58.3198 12.9884 58.2428 12.8416 58.089 12.7351C57.9374 12.6286 57.7267 12.5753 57.4569 12.5753H56.3702V13.804ZM62.4489 17.1101C62.1032 17.1101 61.7919 17.0485 61.5149 16.9254C61.2403 16.8 61.0225 16.6153 60.8615 16.3714C60.7029 16.1276 60.6236 15.8269 60.6236 15.4695C60.6236 15.1617 60.6804 14.9072 60.794 14.706C60.9077 14.5047 61.0627 14.3438 61.2592 14.223C61.4557 14.1023 61.6771 14.0111 61.9233 13.9496C62.1719 13.8857 62.4287 13.8395 62.6939 13.8111C63.0135 13.7779 63.2727 13.7483 63.4716 13.7223C63.6705 13.6939 63.8149 13.6513 63.9048 13.5945C63.9972 13.5353 64.0433 13.4441 64.0433 13.321V13.2997C64.0433 13.0322 63.964 12.825 63.8054 12.6783C63.6468 12.5315 63.4183 12.4581 63.12 12.4581C62.8052 12.4581 62.5554 12.5268 62.3707 12.6641C62.1884 12.8014 62.0653 12.9635 62.0014 13.1506L60.8011 12.9801C60.8958 12.6487 61.0521 12.3717 61.2699 12.1491C61.4877 11.9242 61.754 11.7562 62.0689 11.6449C62.3838 11.5312 62.7318 11.4744 63.1129 11.4744C63.3757 11.4744 63.6373 11.5052 63.8977 11.5668C64.1581 11.6283 64.3961 11.7301 64.6115 11.8722C64.8269 12.0118 64.9998 12.2024 65.13 12.4439C65.2625 12.6854 65.3288 12.9872 65.3288 13.3494V17H64.093V16.2507H64.0504C63.9723 16.4022 63.8622 16.5443 63.7202 16.6768C63.5805 16.8071 63.4041 16.9124 63.1911 16.9929C62.9804 17.071 62.733 17.1101 62.4489 17.1101ZM62.7827 16.1655C63.0407 16.1655 63.2644 16.1146 63.4538 16.0128C63.6432 15.9086 63.7888 15.7713 63.8906 15.6009C63.9948 15.4304 64.0469 15.2446 64.0469 15.0433V14.4006C64.0066 14.4337 63.938 14.4645 63.8409 14.4929C63.7462 14.5213 63.6397 14.5462 63.5213 14.5675C63.4029 14.5888 63.2857 14.6077 63.1697 14.6243C63.0537 14.6409 62.9531 14.6551 62.8679 14.6669C62.6761 14.6929 62.5045 14.7356 62.353 14.7947C62.2015 14.8539 62.0819 14.9368 61.9943 15.0433C61.9067 15.1475 61.8629 15.2824 61.8629 15.4482C61.8629 15.6849 61.9493 15.8636 62.1222 15.9844C62.295 16.1051 62.5152 16.1655 62.7827 16.1655ZM67.8608 15.2599L70.0447 11.5455H71.3658V17H70.1229V13.282L67.946 17H66.6214V11.5455H67.8608V15.2599ZM69.6932 9.67045H70.6555C70.6555 10.0848 70.5052 10.4209 70.2045 10.679C69.9063 10.9347 69.5014 11.0625 68.9901 11.0625C68.4834 11.0625 68.0798 10.9347 67.7791 10.679C67.4808 10.4209 67.3329 10.0848 67.3352 9.67045H68.2905C68.2905 9.84091 68.3426 9.99361 68.4467 10.1286C68.5533 10.2611 68.7344 10.3274 68.9901 10.3274C69.241 10.3274 69.4197 10.2611 69.5263 10.1286C69.6352 9.99598 69.6908 9.84328 69.6932 9.67045ZM72.0751 12.6001V11.5455H76.8478V12.6001H75.0829V17H73.84V12.6001H72.0751ZM80.0616 17.1065C79.5147 17.1065 79.0424 16.9929 78.6447 16.7656C78.2493 16.536 77.9451 16.2116 77.7321 15.7926C77.519 15.3712 77.4125 14.8752 77.4125 14.3047C77.4125 13.7436 77.519 13.2512 77.7321 12.8274C77.9475 12.4013 78.2482 12.0698 78.6341 11.8331C79.0199 11.594 79.4733 11.4744 79.9941 11.4744C80.3303 11.4744 80.6475 11.5289 80.9458 11.6378C81.2465 11.7443 81.5117 11.91 81.7413 12.1349C81.9733 12.3598 82.1556 12.6463 82.2882 12.9943C82.4208 13.34 82.487 13.7519 82.487 14.2301V14.6243H78.0162V13.7578H81.2548C81.2524 13.5116 81.1992 13.2926 81.095 13.1009C80.9908 12.9067 80.8452 12.754 80.6582 12.6428C80.4735 12.5315 80.2581 12.4759 80.0119 12.4759C79.7491 12.4759 79.5183 12.5398 79.3194 12.6676C79.1206 12.7931 78.9655 12.9588 78.8542 13.1648C78.7453 13.3684 78.6897 13.5921 78.6873 13.8359V14.5923C78.6873 14.9096 78.7453 15.1818 78.8613 15.4091C78.9773 15.634 79.1395 15.8068 79.3478 15.9276C79.5562 16.0459 79.8 16.1051 80.0794 16.1051C80.2664 16.1051 80.4357 16.0791 80.5872 16.027C80.7387 15.9725 80.8701 15.8932 80.9814 15.7891C81.0926 15.6849 81.1767 15.5559 81.2335 15.402L82.4338 15.5369C82.358 15.8542 82.2136 16.1312 82.0005 16.3679C81.7898 16.6023 81.5199 16.7846 81.1909 16.9148C80.8618 17.0426 80.4854 17.1065 80.0616 17.1065ZM85.7532 15.505H87.0281C87.0399 15.7086 87.131 15.866 87.3015 15.9773C87.4719 16.0885 87.6933 16.1442 87.9656 16.1442C88.2425 16.1442 88.4757 16.0838 88.6651 15.9631C88.8569 15.84 88.9528 15.6541 88.9528 15.4055C88.9528 15.2588 88.9161 15.1297 88.8427 15.0185C88.7693 14.9048 88.6663 14.8172 88.5337 14.7557C88.4012 14.6941 88.2449 14.6634 88.065 14.6634H87.2305V13.7507H88.065C88.3325 13.7507 88.5349 13.6892 88.6722 13.5661C88.8119 13.4429 88.8817 13.2879 88.8817 13.1009C88.8817 12.8996 88.8084 12.7363 88.6616 12.6108C88.5172 12.4853 88.3171 12.4226 88.0614 12.4226C87.8058 12.4226 87.5927 12.4806 87.4222 12.5966C87.2541 12.7126 87.1665 12.8617 87.1594 13.044H85.8917C85.8964 12.7268 85.9911 12.451 86.1758 12.2166C86.3628 11.9822 86.6138 11.8 86.9286 11.6697C87.2459 11.5395 87.6033 11.4744 88.0011 11.4744C88.4272 11.4744 88.7953 11.5384 89.1055 11.6662C89.4156 11.794 89.6547 11.9728 89.8228 12.2024C89.9909 12.4297 90.0749 12.6972 90.0749 13.005C90.0749 13.3009 89.9826 13.5459 89.7979 13.7401C89.6133 13.9318 89.3647 14.0691 89.0522 14.152V14.2088C89.2676 14.2206 89.4618 14.2822 89.6346 14.3935C89.8074 14.5024 89.9447 14.6503 90.0465 14.8374C90.1483 15.0244 90.1992 15.241 90.1992 15.4872C90.1992 15.821 90.1033 16.1098 89.9116 16.3537C89.7198 16.5952 89.4558 16.781 89.1197 16.9112C88.7859 17.0414 88.4035 17.1065 87.9727 17.1065C87.5536 17.1065 87.1784 17.0438 86.8469 16.9183C86.5179 16.7905 86.2563 16.607 86.0621 16.3679C85.868 16.1288 85.765 15.8411 85.7532 15.505ZM92.7809 17.1101C92.4353 17.1101 92.1239 17.0485 91.8469 16.9254C91.5723 16.8 91.3545 16.6153 91.1935 16.3714C91.0349 16.1276 90.9556 15.8269 90.9556 15.4695C90.9556 15.1617 91.0124 14.9072 91.1261 14.706C91.2397 14.5047 91.3948 14.3438 91.5913 14.223C91.7878 14.1023 92.0091 14.0111 92.2553 13.9496C92.5039 13.8857 92.7608 13.8395 93.0259 13.8111C93.3455 13.7779 93.6048 13.7483 93.8036 13.7223C94.0025 13.6939 94.1469 13.6513 94.2369 13.5945C94.3292 13.5353 94.3754 13.4441 94.3754 13.321V13.2997C94.3754 13.0322 94.296 12.825 94.1374 12.6783C93.9788 12.5315 93.7504 12.4581 93.4521 12.4581C93.1372 12.4581 92.8874 12.5268 92.7028 12.6641C92.5205 12.8014 92.3974 12.9635 92.3335 13.1506L91.1332 12.9801C91.2279 12.6487 91.3841 12.3717 91.6019 12.1491C91.8197 11.9242 92.0861 11.7562 92.4009 11.6449C92.7158 11.5312 93.0638 11.4744 93.445 11.4744C93.7077 11.4744 93.9693 11.5052 94.2298 11.5668C94.4902 11.6283 94.7281 11.7301 94.9435 11.8722C95.159 12.0118 95.3318 12.2024 95.462 12.4439C95.5946 12.6854 95.6609 12.9872 95.6609 13.3494V17H94.4251V16.2507H94.3825C94.3043 16.4022 94.1942 16.5443 94.0522 16.6768C93.9125 16.8071 93.7362 16.9124 93.5231 16.9929C93.3124 17.071 93.065 17.1101 92.7809 17.1101ZM93.1147 16.1655C93.3728 16.1655 93.5965 16.1146 93.7859 16.0128C93.9753 15.9086 94.1209 15.7713 94.2227 15.6009C94.3268 15.4304 94.3789 15.2446 94.3789 15.0433V14.4006C94.3387 14.4337 94.27 14.4645 94.1729 14.4929C94.0782 14.5213 93.9717 14.5462 93.8533 14.5675C93.735 14.5888 93.6178 14.6077 93.5018 14.6243C93.3858 14.6409 93.2852 14.6551 93.1999 14.6669C93.0082 14.6929 92.8365 14.7356 92.685 14.7947C92.5335 14.8539 92.4139 14.9368 92.3263 15.0433C92.2388 15.1475 92.195 15.2824 92.195 15.4482C92.195 15.6849 92.2814 15.8636 92.4542 15.9844C92.627 16.1051 92.8472 16.1655 93.1147 16.1655ZM96.9535 19.0455V11.5455H98.2177V12.4474H98.2923C98.3585 12.3149 98.4521 12.174 98.5728 12.0249C98.6935 11.8733 98.8569 11.7443 99.0629 11.6378C99.2688 11.5289 99.5316 11.4744 99.8512 11.4744C100.273 11.4744 100.653 11.5821 100.991 11.7976C101.332 12.0107 101.602 12.3267 101.801 12.7457C102.002 13.1624 102.103 13.6738 102.103 14.2798C102.103 14.8788 102.004 15.3878 101.808 15.8068C101.611 16.2259 101.344 16.5455 101.005 16.7656C100.667 16.9858 100.283 17.0959 99.8548 17.0959C99.5423 17.0959 99.283 17.0438 99.0771 16.9396C98.8711 16.8355 98.7054 16.71 98.5799 16.5632C98.4568 16.4141 98.3609 16.2732 98.2923 16.1406H98.239V19.0455H96.9535ZM98.2141 14.2727C98.2141 14.6255 98.2638 14.9344 98.3633 15.1996C98.4651 15.4647 98.6107 15.6719 98.8001 15.821C98.9918 15.9678 99.2238 16.0412 99.4961 16.0412C99.7802 16.0412 100.018 15.9654 100.21 15.8139C100.402 15.66 100.546 15.4505 100.643 15.1854C100.743 14.9179 100.792 14.6136 100.792 14.2727C100.792 13.9342 100.744 13.6335 100.647 13.3707C100.55 13.108 100.405 12.902 100.213 12.7528C100.022 12.6037 99.7826 12.5291 99.4961 12.5291C99.2215 12.5291 98.9883 12.6013 98.7965 12.7457C98.6048 12.8902 98.4592 13.0926 98.3597 13.353C98.2627 13.6134 98.2141 13.92 98.2141 14.2727ZM105.618 17.1065C105.071 17.1065 104.599 16.9929 104.201 16.7656C103.806 16.536 103.502 16.2116 103.289 15.7926C103.076 15.3712 102.969 14.8752 102.969 14.3047C102.969 13.7436 103.076 13.2512 103.289 12.8274C103.504 12.4013 103.805 12.0698 104.191 11.8331C104.577 11.594 105.03 11.4744 105.551 11.4744C105.887 11.4744 106.204 11.5289 106.502 11.6378C106.803 11.7443 107.068 11.91 107.298 12.1349C107.53 12.3598 107.712 12.6463 107.845 12.9943C107.977 13.34 108.044 13.7519 108.044 14.2301V14.6243H103.573V13.7578H106.811C106.809 13.5116 106.756 13.2926 106.652 13.1009C106.547 12.9067 106.402 12.754 106.215 12.6428C106.03 12.5315 105.815 12.4759 105.569 12.4759C105.306 12.4759 105.075 12.5398 104.876 12.6676C104.677 12.7931 104.522 12.9588 104.411 13.1648C104.302 13.3684 104.246 13.5921 104.244 13.8359V14.5923C104.244 14.9096 104.302 15.1818 104.418 15.4091C104.534 15.634 104.696 15.8068 104.904 15.9276C105.113 16.0459 105.357 16.1051 105.636 16.1051C105.823 16.1051 105.992 16.0791 106.144 16.027C106.295 15.9725 106.427 15.8932 106.538 15.7891C106.649 15.6849 106.733 15.5559 106.79 15.402L107.99 15.5369C107.915 15.8542 107.77 16.1312 107.557 16.3679C107.346 16.6023 107.077 16.7846 106.748 16.9148C106.418 17.0426 106.042 17.1065 105.618 17.1065ZM112.739 11.5455V12.6001H110.388V17H109.131V11.5455H112.739ZM115.009 15.2599L117.193 11.5455H118.514V17H117.271V13.282L115.094 17H113.77V11.5455H115.009V15.2599ZM122.214 17.1065C121.669 17.1065 121.202 16.987 120.811 16.7479C120.423 16.5088 120.123 16.1785 119.912 15.7571C119.704 15.3333 119.6 14.8456 119.6 14.294C119.6 13.7401 119.706 13.2512 119.92 12.8274C120.133 12.4013 120.433 12.0698 120.822 11.8331C121.212 11.594 121.674 11.4744 122.206 11.4744C122.649 11.4744 123.041 11.5561 123.382 11.7195C123.725 11.8804 123.999 12.1089 124.202 12.4048C124.406 12.6984 124.522 13.0417 124.55 13.4347H123.322C123.272 13.1719 123.153 12.9529 122.966 12.7777C122.782 12.6001 122.534 12.5114 122.224 12.5114C121.961 12.5114 121.731 12.5824 121.532 12.7244C121.333 12.8641 121.178 13.0653 121.067 13.3281C120.958 13.5909 120.903 13.9058 120.903 14.2727C120.903 14.6444 120.958 14.964 121.067 15.2315C121.175 15.4967 121.328 15.7015 121.525 15.8459C121.724 15.9879 121.957 16.0589 122.224 16.0589C122.414 16.0589 122.583 16.0234 122.732 15.9524C122.884 15.879 123.01 15.7737 123.112 15.6364C123.214 15.4991 123.284 15.3321 123.322 15.1357H124.55C124.519 15.5215 124.406 15.8636 124.209 16.1619C124.013 16.4579 123.745 16.6899 123.407 16.858C123.068 17.0237 122.671 17.1065 122.214 17.1065ZM125.21 12.6001V11.5455H129.983V12.6001H128.218V17H126.975V12.6001H125.21ZM131.006 19.0455V11.5455H132.27V12.4474H132.345C132.411 12.3149 132.505 12.174 132.626 12.0249C132.746 11.8733 132.91 11.7443 133.116 11.6378C133.322 11.5289 133.584 11.4744 133.904 11.4744C134.325 11.4744 134.705 11.5821 135.044 11.7976C135.385 12.0107 135.655 12.3267 135.854 12.7457C136.055 13.1624 136.155 13.6738 136.155 14.2798C136.155 14.8788 136.057 15.3878 135.861 15.8068C135.664 16.2259 135.397 16.5455 135.058 16.7656C134.72 16.9858 134.336 17.0959 133.907 17.0959C133.595 17.0959 133.336 17.0438 133.13 16.9396C132.924 16.8355 132.758 16.71 132.633 16.5632C132.51 16.4141 132.414 16.2732 132.345 16.1406H132.292V19.0455H131.006ZM132.267 14.2727C132.267 14.6255 132.317 14.9344 132.416 15.1996C132.518 15.4647 132.663 15.6719 132.853 15.821C133.045 15.9678 133.277 16.0412 133.549 16.0412C133.833 16.0412 134.071 15.9654 134.263 15.8139C134.454 15.66 134.599 15.4505 134.696 15.1854C134.795 14.9179 134.845 14.6136 134.845 14.2727C134.845 13.9342 134.796 13.6335 134.699 13.3707C134.602 13.108 134.458 12.902 134.266 12.7528C134.074 12.6037 133.835 12.5291 133.549 12.5291C133.274 12.5291 133.041 12.6013 132.849 12.7457C132.657 12.8902 132.512 13.0926 132.412 13.353C132.315 13.6134 132.267 13.92 132.267 14.2727ZM138.496 15.2599L140.68 11.5455H142.001V17H140.758V13.282L138.581 17H137.256V11.5455H138.496V15.2599ZM143.321 19.0455V11.5455H144.585V12.4474H144.659C144.726 12.3149 144.819 12.174 144.94 12.0249C145.061 11.8733 145.224 11.7443 145.43 11.6378C145.636 11.5289 145.899 11.4744 146.218 11.4744C146.64 11.4744 147.02 11.5821 147.358 11.7976C147.699 12.0107 147.969 12.3267 148.168 12.7457C148.369 13.1624 148.47 13.6738 148.47 14.2798C148.47 14.8788 148.372 15.3878 148.175 15.8068C147.979 16.2259 147.711 16.5455 147.373 16.7656C147.034 16.9858 146.65 17.0959 146.222 17.0959C145.909 17.0959 145.65 17.0438 145.444 16.9396C145.238 16.8355 145.073 16.71 144.947 16.5632C144.824 16.4141 144.728 16.2732 144.659 16.1406H144.606V19.0455H143.321ZM144.581 14.2727C144.581 14.6255 144.631 14.9344 144.73 15.1996C144.832 15.4647 144.978 15.6719 145.167 15.821C145.359 15.9678 145.591 16.0412 145.863 16.0412C146.147 16.0412 146.385 15.9654 146.577 15.8139C146.769 15.66 146.913 15.4505 147.01 15.1854C147.11 14.9179 147.159 14.6136 147.159 14.2727C147.159 13.9342 147.111 13.6335 147.014 13.3707C146.917 13.108 146.772 12.902 146.581 12.7528C146.389 12.6037 146.15 12.5291 145.863 12.5291C145.589 12.5291 145.355 12.6013 145.164 12.7457C144.972 12.8902 144.826 13.0926 144.727 13.353C144.63 13.6134 144.581 13.92 144.581 14.2727ZM150.184 19.0455C150.009 19.0455 149.847 19.0313 149.698 19.0028C149.551 18.9768 149.434 18.946 149.346 18.9105L149.644 17.9091C149.831 17.9635 149.998 17.9896 150.145 17.9872C150.292 17.9848 150.421 17.9387 150.532 17.8487C150.646 17.7611 150.742 17.6143 150.82 17.4084L150.93 17.1136L148.952 11.5455H150.316L151.573 15.6648H151.629L152.89 11.5455H154.257L152.073 17.6605C151.972 17.9493 151.837 18.1967 151.669 18.4027C151.5 18.611 151.294 18.7696 151.051 18.8786C150.809 18.9898 150.52 19.0455 150.184 19.0455ZM157.376 17.1065C156.829 17.1065 156.357 16.9929 155.959 16.7656C155.564 16.536 155.26 16.2116 155.047 15.7926C154.833 15.3712 154.727 14.8752 154.727 14.3047C154.727 13.7436 154.833 13.2512 155.047 12.8274C155.262 12.4013 155.563 12.0698 155.949 11.8331C156.334 11.594 156.788 11.4744 157.309 11.4744C157.645 11.4744 157.962 11.5289 158.26 11.6378C158.561 11.7443 158.826 11.91 159.056 12.1349C159.288 12.3598 159.47 12.6463 159.603 12.9943C159.735 13.34 159.801 13.7519 159.801 14.2301V14.6243H155.331V13.7578H158.569C158.567 13.5116 158.514 13.2926 158.409 13.1009C158.305 12.9067 158.16 12.754 157.973 12.6428C157.788 12.5315 157.573 12.4759 157.326 12.4759C157.064 12.4759 156.833 12.5398 156.634 12.6676C156.435 12.7931 156.28 12.9588 156.169 13.1648C156.06 13.3684 156.004 13.5921 156.002 13.8359V14.5923C156.002 14.9096 156.06 15.1818 156.176 15.4091C156.292 15.634 156.454 15.8068 156.662 15.9276C156.871 16.0459 157.114 16.1051 157.394 16.1051C157.581 16.1051 157.75 16.0791 157.902 16.027C158.053 15.9725 158.185 15.8932 158.296 15.7891C158.407 15.6849 158.491 15.5559 158.548 15.402L159.748 15.5369C159.672 15.8542 159.528 16.1312 159.315 16.3679C159.104 16.6023 158.834 16.7846 158.505 16.9148C158.176 17.0426 157.8 17.1065 157.376 17.1065ZM164.028 15.505L165.648 11.5455H166.684L164.479 17H163.581L161.425 11.5455H162.452L164.028 15.505ZM162.128 11.5455V17H160.889V11.5455H162.128ZM165.981 17V11.5455H167.21V17H165.981ZM170.885 17.1065C170.341 17.1065 169.873 16.987 169.483 16.7479C169.095 16.5088 168.795 16.1785 168.584 15.7571C168.376 15.3333 168.272 14.8456 168.272 14.294C168.272 13.7401 168.378 13.2512 168.591 12.8274C168.805 12.4013 169.105 12.0698 169.493 11.8331C169.884 11.594 170.346 11.4744 170.878 11.4744C171.321 11.4744 171.713 11.5561 172.054 11.7195C172.397 11.8804 172.671 12.1089 172.874 12.4048C173.078 12.6984 173.194 13.0417 173.222 13.4347H171.993C171.944 13.1719 171.825 12.9529 171.638 12.7777C171.454 12.6001 171.206 12.5114 170.896 12.5114C170.633 12.5114 170.403 12.5824 170.204 12.7244C170.005 12.8641 169.85 13.0653 169.738 13.3281C169.63 13.5909 169.575 13.9058 169.575 14.2727C169.575 14.6444 169.63 14.964 169.738 15.2315C169.847 15.4967 170 15.7015 170.197 15.8459C170.395 15.9879 170.629 16.0589 170.896 16.0589C171.086 16.0589 171.255 16.0234 171.404 15.9524C171.555 15.879 171.682 15.7737 171.784 15.6364C171.886 15.4991 171.956 15.3321 171.993 15.1357H173.222C173.191 15.5215 173.078 15.8636 172.881 16.1619C172.685 16.4579 172.417 16.6899 172.079 16.858C171.74 17.0237 171.342 17.1065 170.885 17.1065ZM177.502 17V12.5895H176.337C176.041 12.5895 175.814 12.6581 175.656 12.7955C175.497 12.9328 175.419 13.1032 175.421 13.3068C175.419 13.5104 175.493 13.6785 175.645 13.8111C175.796 13.9437 176.013 14.0099 176.295 14.0099H177.907V14.9474H176.295C175.859 14.9474 175.483 14.8788 175.165 14.7415C174.848 14.6042 174.604 14.41 174.434 14.1591C174.263 13.9081 174.178 13.6146 174.178 13.2784C174.178 12.928 174.265 12.6238 174.438 12.3658C174.613 12.1054 174.861 11.9041 175.183 11.7621C175.508 11.6177 175.892 11.5455 176.337 11.5455H178.706V17H177.502ZM173.979 17L175.503 14.2017H176.771L175.244 17H173.979ZM181.229 14.8622V14.7699C181.231 14.3414 181.272 14.0005 181.35 13.7472C181.43 13.4938 181.544 13.2902 181.691 13.1364C181.837 12.9801 182.016 12.8369 182.227 12.7067C182.371 12.6167 182.5 12.5185 182.614 12.4119C182.73 12.303 182.821 12.1823 182.887 12.0497C182.954 11.9148 182.987 11.7644 182.987 11.5987C182.987 11.4117 182.943 11.2495 182.855 11.1122C182.768 10.9749 182.65 10.8684 182.5 10.7926C182.354 10.7169 182.189 10.679 182.007 10.679C181.839 10.679 181.679 10.7157 181.527 10.7891C181.378 10.8601 181.254 10.969 181.154 11.1158C181.057 11.2602 181.003 11.4437 180.991 11.6662H179.727C179.739 11.2164 179.848 10.84 180.054 10.5369C180.262 10.2339 180.537 10.0066 180.877 9.85511C181.221 9.7036 181.6 9.62784 182.014 9.62784C182.466 9.62784 182.864 9.70715 183.207 9.86577C183.553 10.0244 183.821 10.2505 184.013 10.544C184.207 10.8352 184.304 11.1809 184.304 11.581C184.304 11.8509 184.261 12.0923 184.173 12.3054C184.088 12.5185 183.966 12.7079 183.807 12.8736C183.649 13.0393 183.46 13.1873 183.243 13.3175C183.051 13.4358 182.893 13.5589 182.77 13.6868C182.65 13.8146 182.56 13.965 182.5 14.1378C182.444 14.3082 182.414 14.5189 182.412 14.7699V14.8622H181.229ZM181.847 17.0781C181.634 17.0781 181.45 17.0024 181.297 16.8509C181.143 16.6993 181.066 16.5147 181.066 16.2969C181.066 16.0838 181.143 15.9015 181.297 15.75C181.45 15.5985 181.634 15.5227 181.847 15.5227C182.058 15.5227 182.24 15.5985 182.394 15.75C182.55 15.9015 182.628 16.0838 182.628 16.2969C182.628 16.4413 182.592 16.5727 182.518 16.6911C182.447 16.8094 182.352 16.9041 182.234 16.9751C182.118 17.0438 181.989 17.0781 181.847 17.0781ZM46.4119 25.1257V25.7223H43.2266V25.1257H46.4119ZM41.6392 26.7663H42.321C42.4134 27.325 42.611 27.7547 42.9141 28.0554C43.2195 28.3537 43.6657 28.5028 44.2528 28.5028C44.705 28.5028 45.0814 28.3821 45.3821 28.1406C45.6851 27.8968 45.9124 27.5713 46.0639 27.1641C46.2154 26.7569 46.2912 26.3071 46.2912 25.8146V24.9268C46.2912 24.4013 46.2095 23.9361 46.0462 23.5312C45.8852 23.1241 45.6484 22.8056 45.3359 22.576C45.0234 22.3464 44.6435 22.2327 44.196 22.2351C43.8267 22.2351 43.513 22.3037 43.255 22.4411C42.9969 22.5784 42.791 22.7772 42.6371 23.0376C42.4856 23.2957 42.3802 23.6106 42.321 23.9822H41.6392C41.6937 23.5206 41.825 23.1134 42.0334 22.7607C42.2417 22.4079 42.527 22.1309 42.8892 21.9297C43.2514 21.7285 43.6882 21.6278 44.1996 21.6278C44.7796 21.6278 45.2756 21.7663 45.6875 22.0433C46.1018 22.3203 46.419 22.705 46.6392 23.1974C46.8617 23.6899 46.973 24.2604 46.973 24.9091V25.8288C46.973 26.4775 46.8629 27.0481 46.6428 27.5405C46.425 28.0305 46.1125 28.4129 45.7053 28.6875C45.3004 28.9621 44.8175 29.0994 44.2564 29.0994C43.7214 29.0994 43.2692 28.9988 42.8999 28.7976C42.5329 28.594 42.2453 28.317 42.0369 27.9666C41.831 27.6139 41.6984 27.2138 41.6392 26.7663ZM48.112 24.142V23.5455H52.3734V24.142H50.5694V29H49.9373V24.142H48.112ZM55.5463 29.1136C55.0752 29.1136 54.6586 28.9941 54.2963 28.755C53.9365 28.5159 53.6548 28.1856 53.4512 27.7642C53.2476 27.3404 53.1458 26.8516 53.1458 26.2976C53.1458 25.7389 53.2476 25.2476 53.4512 24.8239C53.6548 24.3977 53.9365 24.0663 54.2963 23.8295C54.6586 23.5904 55.0752 23.4709 55.5463 23.4709C56.0175 23.4709 56.4329 23.5904 56.7928 23.8295C57.1526 24.0687 57.4344 24.4001 57.638 24.8239C57.8439 25.2476 57.9469 25.7389 57.9469 26.2976C57.9469 26.8516 57.8451 27.3404 57.6415 27.7642C57.4379 28.1856 57.155 28.5159 56.7928 28.755C56.4329 28.9941 56.0175 29.1136 55.5463 29.1136ZM55.5463 28.5348C55.9251 28.5348 56.2459 28.433 56.5087 28.2294C56.7715 28.0258 56.9703 27.7547 57.1053 27.4162C57.2426 27.0777 57.3113 26.7048 57.3113 26.2976C57.3113 25.8904 57.2426 25.5163 57.1053 25.1754C56.9703 24.8345 56.7715 24.5611 56.5087 24.3551C56.2459 24.1491 55.9251 24.0462 55.5463 24.0462C55.1699 24.0462 54.8491 24.1491 54.584 24.3551C54.3212 24.5611 54.1212 24.8345 53.9838 25.1754C53.8489 25.5163 53.7814 25.8904 53.7814 26.2976C53.7814 26.7048 53.8489 27.0777 53.9838 27.4162C54.1212 27.7547 54.3212 28.0258 54.584 28.2294C54.8468 28.433 55.1676 28.5348 55.5463 28.5348ZM64.2777 29.1136C63.79 29.1136 63.3651 28.9917 63.0028 28.7479C62.643 28.504 62.3636 28.1702 62.1648 27.7464C61.9659 27.3227 61.8665 26.8397 61.8665 26.2976C61.8665 25.7507 61.9671 25.2642 62.1683 24.8381C62.3719 24.4119 62.6536 24.0781 63.0135 23.8366C63.3733 23.5928 63.7912 23.4709 64.267 23.4709C64.6316 23.4709 64.9619 23.5419 65.2578 23.6839C65.5537 23.8236 65.7976 24.0213 65.9893 24.277C66.1835 24.5303 66.3054 24.8262 66.3551 25.1648H65.7159C65.6496 24.857 65.4898 24.5942 65.2365 24.3764C64.9856 24.1562 64.666 24.0462 64.2777 24.0462C63.9297 24.0462 63.6219 24.1409 63.3544 24.3303C63.0869 24.5173 62.8774 24.7789 62.7259 25.1151C62.5767 25.4489 62.5021 25.8359 62.5021 26.2763C62.5021 26.719 62.5755 27.1108 62.7223 27.4517C62.8691 27.7902 63.075 28.0554 63.3402 28.2472C63.6077 28.4389 63.9202 28.5348 64.2777 28.5348C64.5192 28.5348 64.7393 28.4898 64.9382 28.3999C65.1394 28.3075 65.3075 28.1773 65.4425 28.0092C65.5798 27.8411 65.6721 27.6411 65.7195 27.4091H66.3587C66.3113 27.7382 66.1941 28.0317 66.0071 28.2898C65.8224 28.5455 65.5821 28.7467 65.2862 28.8935C64.9927 29.0402 64.6565 29.1136 64.2777 29.1136ZM69.8335 29.1136C69.3623 29.1136 68.9457 28.9941 68.5835 28.755C68.2236 28.5159 67.9419 28.1856 67.7383 27.7642C67.5347 27.3404 67.4329 26.8516 67.4329 26.2976C67.4329 25.7389 67.5347 25.2476 67.7383 24.8239C67.9419 24.3977 68.2236 24.0663 68.5835 23.8295C68.9457 23.5904 69.3623 23.4709 69.8335 23.4709C70.3046 23.4709 70.7201 23.5904 71.0799 23.8295C71.4397 24.0687 71.7215 24.4001 71.9251 24.8239C72.131 25.2476 72.234 25.7389 72.234 26.2976C72.234 26.8516 72.1322 27.3404 71.9286 27.7642C71.725 28.1856 71.4421 28.5159 71.0799 28.755C70.7201 28.9941 70.3046 29.1136 69.8335 29.1136ZM69.8335 28.5348C70.2122 28.5348 70.533 28.433 70.7958 28.2294C71.0586 28.0258 71.2575 27.7547 71.3924 27.4162C71.5297 27.0777 71.5984 26.7048 71.5984 26.2976C71.5984 25.8904 71.5297 25.5163 71.3924 25.1754C71.2575 24.8345 71.0586 24.5611 70.7958 24.3551C70.533 24.1491 70.2122 24.0462 69.8335 24.0462C69.457 24.0462 69.1362 24.1491 68.8711 24.3551C68.6083 24.5611 68.4083 24.8345 68.271 25.1754C68.136 25.5163 68.0685 25.8904 68.0685 26.2976C68.0685 26.7048 68.136 27.0777 68.271 27.4162C68.4083 27.7547 68.6083 28.0258 68.8711 28.2294C69.1339 28.433 69.4547 28.5348 69.8335 28.5348ZM73.2701 27.608H73.9412C73.9602 27.8991 74.0856 28.1264 74.3176 28.2898C74.5497 28.4531 74.8551 28.5348 75.2338 28.5348C75.6268 28.5348 75.9512 28.4472 76.2069 28.272C76.4625 28.0945 76.5904 27.8364 76.5904 27.4979C76.5904 27.2919 76.5418 27.1132 76.4448 26.9616C76.3501 26.8101 76.2199 26.6918 76.0542 26.6065C75.8908 26.5189 75.705 26.474 75.4966 26.4716H74.5449V25.8928H75.486C75.8103 25.8738 76.0565 25.7862 76.2246 25.63C76.3927 25.4714 76.4767 25.2642 76.4767 25.0085C76.4767 24.7173 76.3738 24.4841 76.1678 24.3089C75.9618 24.1314 75.6825 24.0426 75.3297 24.0426C74.9722 24.0426 74.6751 24.1302 74.4384 24.3054C74.2016 24.4806 74.0762 24.7055 74.062 24.9801H73.3979C73.4097 24.6842 73.4985 24.4238 73.6642 24.1989C73.83 23.9716 74.0537 23.794 74.3354 23.6662C74.6195 23.5384 74.9415 23.4744 75.3013 23.4744C75.6706 23.4744 75.9914 23.5407 76.2637 23.6733C76.5359 23.8059 76.7466 23.987 76.8958 24.2166C77.0449 24.4439 77.1195 24.7019 77.1195 24.9908C77.1195 25.2914 77.0366 25.5388 76.8709 25.733C76.7076 25.9247 76.498 26.0597 76.2424 26.1378V26.1911C76.4365 26.2124 76.6069 26.2834 76.7537 26.4041C76.9029 26.5249 77.0201 26.6799 77.1053 26.8693C77.1905 27.0587 77.2331 27.2682 77.2331 27.4979C77.2331 27.8198 77.1491 28.1027 76.981 28.3466C76.8129 28.5881 76.5785 28.7763 76.2779 28.9112C75.9796 29.0462 75.6351 29.1136 75.2445 29.1136C74.8681 29.1136 74.5331 29.0509 74.2395 28.9254C73.946 28.7976 73.7128 28.6212 73.54 28.3963C73.3695 28.169 73.2795 27.9062 73.2701 27.608ZM77.8874 30.5518V28.4034H78.3597C78.4781 28.2708 78.5811 28.1276 78.6687 27.9737C78.7563 27.8198 78.832 27.6446 78.896 27.4482C78.9622 27.2493 79.0179 27.0185 79.0629 26.7557C79.1078 26.4905 79.1457 26.1816 79.1765 25.8288L79.3754 23.5455H82.6033V28.4034H83.413V30.5518H82.7809V29H78.5231V30.5518H77.8874ZM79.0877 28.4034H81.9712V24.142H79.9648L79.8015 25.8288C79.7447 26.4018 79.6642 26.9013 79.56 27.3274C79.4558 27.7536 79.2984 28.1122 79.0877 28.4034ZM86.1412 29.1243C85.8121 29.1243 85.5114 29.0604 85.2392 28.9325C84.9669 28.8023 84.7503 28.6153 84.5893 28.3714C84.4283 28.1252 84.3478 27.8269 84.3478 27.4766C84.3478 27.2067 84.3987 26.9794 84.5005 26.7947C84.6023 26.6101 84.7467 26.4586 84.9338 26.3402C85.1208 26.2218 85.3422 26.1283 85.5978 26.0597C85.8535 25.991 86.1352 25.9377 86.443 25.8999C86.7484 25.862 87.0065 25.8288 87.2172 25.8004C87.4302 25.772 87.5924 25.727 87.7037 25.6655C87.8149 25.6039 87.8706 25.5045 87.8706 25.3672V25.2393C87.8706 24.8677 87.7593 24.5753 87.5368 24.3622C87.3166 24.1468 86.9993 24.0391 86.585 24.0391C86.1921 24.0391 85.8713 24.1255 85.6227 24.2983C85.3765 24.4711 85.2037 24.6747 85.1042 24.9091L84.5041 24.6925C84.6272 24.3942 84.7976 24.1562 85.0154 23.9787C85.2333 23.7988 85.4771 23.6697 85.747 23.5916C86.0169 23.5111 86.2903 23.4709 86.5673 23.4709C86.7756 23.4709 86.9922 23.4981 87.2172 23.5526C87.4444 23.607 87.6551 23.7017 87.8493 23.8366C88.0434 23.9692 88.2008 24.1551 88.3216 24.3942C88.4423 24.6309 88.5027 24.9316 88.5027 25.2962V29H87.8706V28.1371H87.8315C87.7557 28.2981 87.6433 28.4543 87.4941 28.6058C87.345 28.7573 87.158 28.8816 86.9331 28.9787C86.7082 29.0758 86.4442 29.1243 86.1412 29.1243ZM86.2264 28.5455C86.5626 28.5455 86.8538 28.4709 87.1 28.3217C87.3462 28.1726 87.5356 27.9749 87.6681 27.7287C87.8031 27.4801 87.8706 27.2067 87.8706 26.9084V26.12C87.8232 26.165 87.7439 26.2053 87.6326 26.2408C87.5237 26.2763 87.3971 26.3082 87.2527 26.3366C87.1106 26.3627 86.9686 26.3852 86.8265 26.4041C86.6845 26.4231 86.5566 26.4396 86.443 26.4538C86.1352 26.4917 85.8725 26.5509 85.6547 26.6314C85.4368 26.7119 85.2699 26.8232 85.1539 26.9652C85.0379 27.1049 84.9799 27.2848 84.9799 27.505C84.9799 27.8364 85.0983 28.0933 85.335 28.2756C85.5718 28.4555 85.8689 28.5455 86.2264 28.5455ZM92.3148 29.1136C91.8271 29.1136 91.4022 28.9917 91.04 28.7479C90.6801 28.504 90.4007 28.1702 90.2019 27.7464C90.003 27.3227 89.9036 26.8397 89.9036 26.2976C89.9036 25.7507 90.0042 25.2642 90.2054 24.8381C90.409 24.4119 90.6908 24.0781 91.0506 23.8366C91.4105 23.5928 91.8283 23.4709 92.3042 23.4709C92.6687 23.4709 92.999 23.5419 93.2949 23.6839C93.5908 23.8236 93.8347 24.0213 94.0265 24.277C94.2206 24.5303 94.3425 24.8262 94.3922 25.1648H93.753C93.6867 24.857 93.5269 24.5942 93.2736 24.3764C93.0227 24.1562 92.7031 24.0462 92.3148 24.0462C91.9668 24.0462 91.659 24.1409 91.3915 24.3303C91.124 24.5173 90.9145 24.7789 90.763 25.1151C90.6138 25.4489 90.5392 25.8359 90.5392 26.2763C90.5392 26.719 90.6126 27.1108 90.7594 27.4517C90.9062 27.7902 91.1122 28.0554 91.3773 28.2472C91.6448 28.4389 91.9573 28.5348 92.3148 28.5348C92.5563 28.5348 92.7765 28.4898 92.9753 28.3999C93.1766 28.3075 93.3446 28.1773 93.4796 28.0092C93.6169 27.8411 93.7092 27.6411 93.7566 27.4091H94.3958C94.3484 27.7382 94.2312 28.0317 94.0442 28.2898C93.8596 28.5455 93.6193 28.7467 93.3233 28.8935C93.0298 29.0402 92.6936 29.1136 92.3148 29.1136ZM95.2995 24.142V23.5455H99.5609V24.142H97.7569V29H97.1248V24.142H95.2995ZM103.71 29V23.5455H105.858C106.438 23.5455 106.895 23.6709 107.229 23.9219C107.565 24.1728 107.733 24.5114 107.733 24.9375C107.733 25.2618 107.639 25.5211 107.452 25.7152C107.265 25.9093 107.014 26.0466 106.7 26.1271C106.91 26.1626 107.106 26.2396 107.286 26.358C107.468 26.4763 107.616 26.6326 107.729 26.8267C107.843 27.0208 107.9 27.2528 107.9 27.5227C107.9 27.8068 107.829 28.0601 107.687 28.2827C107.545 28.5052 107.345 28.6804 107.087 28.8082C106.829 28.9361 106.523 29 106.17 29H103.71ZM104.313 28.4141H106.17C106.504 28.4141 106.768 28.3288 106.962 28.1584C107.156 27.9856 107.254 27.7559 107.254 27.4695C107.254 27.1641 107.161 26.9202 106.977 26.7379C106.794 26.5533 106.549 26.4609 106.241 26.4609H104.313V28.4141ZM104.313 25.8999H105.897C106.143 25.8999 106.356 25.862 106.536 25.7862C106.716 25.7105 106.855 25.6039 106.952 25.4666C107.051 25.3269 107.1 25.1636 107.097 24.9766C107.097 24.709 106.988 24.5019 106.771 24.3551C106.553 24.206 106.249 24.1314 105.858 24.1314H104.313V25.8999ZM110.809 29.1243C110.48 29.1243 110.179 29.0604 109.907 28.9325C109.635 28.8023 109.418 28.6153 109.257 28.3714C109.096 28.1252 109.016 27.8269 109.016 27.4766C109.016 27.2067 109.067 26.9794 109.169 26.7947C109.27 26.6101 109.415 26.4586 109.602 26.3402C109.789 26.2218 110.01 26.1283 110.266 26.0597C110.521 25.991 110.803 25.9377 111.111 25.8999C111.416 25.862 111.674 25.8288 111.885 25.8004C112.098 25.772 112.26 25.727 112.372 25.6655C112.483 25.6039 112.539 25.5045 112.539 25.3672V25.2393C112.539 24.8677 112.427 24.5753 112.205 24.3622C111.985 24.1468 111.667 24.0391 111.253 24.0391C110.86 24.0391 110.539 24.1255 110.291 24.2983C110.044 24.4711 109.872 24.6747 109.772 24.9091L109.172 24.6925C109.295 24.3942 109.466 24.1562 109.683 23.9787C109.901 23.7988 110.145 23.6697 110.415 23.5916C110.685 23.5111 110.958 23.4709 111.235 23.4709C111.444 23.4709 111.66 23.4981 111.885 23.5526C112.112 23.607 112.323 23.7017 112.517 23.8366C112.711 23.9692 112.869 24.1551 112.99 24.3942C113.11 24.6309 113.171 24.9316 113.171 25.2962V29H112.539V28.1371H112.499C112.424 28.2981 112.311 28.4543 112.162 28.6058C112.013 28.7573 111.826 28.8816 111.601 28.9787C111.376 29.0758 111.112 29.1243 110.809 29.1243ZM110.894 28.5455C111.231 28.5455 111.522 28.4709 111.768 28.3217C112.014 28.1726 112.204 27.9749 112.336 27.7287C112.471 27.4801 112.539 27.2067 112.539 26.9084V26.12C112.491 26.165 112.412 26.2053 112.301 26.2408C112.192 26.2763 112.065 26.3082 111.921 26.3366C111.779 26.3627 111.637 26.3852 111.494 26.4041C111.352 26.4231 111.225 26.4396 111.111 26.4538C110.803 26.4917 110.54 26.5509 110.323 26.6314C110.105 26.7119 109.938 26.8232 109.822 26.9652C109.706 27.1049 109.648 27.2848 109.648 27.505C109.648 27.8364 109.766 28.0933 110.003 28.2756C110.24 28.4555 110.537 28.5455 110.894 28.5455ZM114.852 23.5455H115.484V28.4034H117.721V23.5455H118.354V28.4034H120.591V23.5455H121.223V29H114.852V23.5455ZM125.175 29V28.4034H125.346C125.54 28.4034 125.696 28.3679 125.814 28.2969C125.935 28.2235 126.029 28.1004 126.095 27.9276C126.161 27.7547 126.211 27.5192 126.244 27.2209C126.277 26.9226 126.303 26.5485 126.322 26.0987L126.439 23.5455H129.905V29H129.27V24.142H127.04L126.937 26.3118C126.915 26.7545 126.88 27.1439 126.83 27.4801C126.783 27.8163 126.705 28.0968 126.596 28.3217C126.489 28.5466 126.34 28.7159 126.148 28.8295C125.959 28.9432 125.71 29 125.403 29H125.175ZM132.213 28.1016L135.093 23.5455H135.849V29H135.217V24.4439L132.348 29H131.581V23.5455H132.213V28.1016ZM141.542 23.5455V29H140.906V23.5455H141.542ZM141.307 26.2408V26.8445C141.092 26.9226 140.887 26.9889 140.693 27.0433C140.499 27.0954 140.303 27.1357 140.107 27.1641C139.913 27.1925 139.706 27.2067 139.485 27.2067C138.872 27.2043 138.391 27.0469 138.04 26.7344C137.692 26.4219 137.518 25.946 137.518 25.3068V23.5277H138.15V25.3068C138.15 25.6098 138.205 25.8572 138.314 26.049C138.422 26.2408 138.576 26.3828 138.775 26.4751C138.974 26.5651 139.208 26.6101 139.478 26.6101C139.81 26.6101 140.122 26.5769 140.416 26.5107C140.709 26.4444 141.007 26.3544 141.307 26.2408ZM146.904 25.978V26.5746H143.697V25.978H146.904ZM143.853 23.5455V29H143.221V23.5455H143.853ZM147.369 23.5455V29H146.737V23.5455H147.369ZM149.584 25.6513H151.182C151.795 25.6513 152.269 25.8004 152.602 26.0987C152.936 26.397 153.103 26.8007 153.103 27.3097C153.103 27.6482 153.027 27.9441 152.876 28.1974C152.727 28.4508 152.509 28.6484 152.222 28.7905C151.936 28.9302 151.589 29 151.182 29H149.058V23.5455H149.694V28.4034H151.182C151.568 28.4034 151.878 28.3111 152.112 28.1264C152.349 27.9418 152.468 27.679 152.468 27.3381C152.468 26.9901 152.349 26.7214 152.112 26.532C151.878 26.3426 151.568 26.2479 151.182 26.2479H149.584V25.6513ZM154.023 29V23.5455H154.655V29H154.023ZM156.969 28.1016L159.849 23.5455H160.605V29H159.973V24.4439L157.104 29H156.336V23.5455H156.969V28.1016ZM159.124 21.7273H159.721C159.721 22.0658 159.608 22.3404 159.383 22.5511C159.161 22.7618 158.857 22.8672 158.471 22.8672C158.09 22.8672 157.788 22.7618 157.565 22.5511C157.343 22.3404 157.231 22.0658 157.231 21.7273H157.828C157.828 21.9119 157.878 22.0682 157.977 22.196C158.079 22.3215 158.243 22.3842 158.471 22.3842C158.698 22.3842 158.864 22.3215 158.968 22.196C159.072 22.0682 159.124 21.9119 159.124 21.7273ZM45.7621 33.5L46.0923 33.9013C45.9432 34.0457 45.7644 34.1451 45.5561 34.1996C45.3501 34.2517 45.1193 34.2812 44.8636 34.2884C44.6103 34.2955 44.3369 34.3061 44.0433 34.3203C43.6219 34.3416 43.2751 34.4517 43.0028 34.6506C42.7306 34.8471 42.5234 35.1312 42.3814 35.5028C42.2417 35.8722 42.1541 36.3232 42.1186 36.8558H42.1896C42.3719 36.4841 42.6288 36.2012 42.9602 36.0071C43.294 35.813 43.661 35.7159 44.0611 35.7159C44.4801 35.7159 44.8565 35.8189 45.1903 36.0249C45.5265 36.2285 45.7917 36.5279 45.9858 36.9233C46.1823 37.3163 46.2805 37.7957 46.2805 38.3615C46.2805 38.9202 46.1823 39.4067 45.9858 39.821C45.7893 40.233 45.5147 40.5514 45.1619 40.7763C44.8092 41.0012 44.3961 41.1136 43.9226 41.1136C43.4467 41.1136 43.0301 41.0024 42.6726 40.7798C42.3175 40.5549 42.0417 40.2247 41.8452 39.7891C41.651 39.3511 41.554 38.8125 41.554 38.1733V37.6016C41.554 36.3303 41.7552 35.3738 42.1577 34.7322C42.5601 34.0907 43.1792 33.7557 44.0149 33.7273C44.2848 33.7178 44.5298 33.7154 44.75 33.7202C44.9702 33.7225 45.1643 33.7119 45.3324 33.6882C45.5005 33.6622 45.6437 33.5994 45.7621 33.5ZM43.9226 40.5348C44.2753 40.5348 44.5807 40.446 44.8388 40.2685C45.0968 40.0885 45.2957 39.8352 45.4354 39.5085C45.5774 39.1818 45.6484 38.7995 45.6484 38.3615C45.6484 37.9259 45.5762 37.5542 45.4318 37.2464C45.2898 36.9387 45.0909 36.7031 44.8352 36.5398C44.5795 36.3764 44.2801 36.2947 43.9368 36.2947C43.6669 36.2947 43.4242 36.3468 43.2088 36.451C42.9957 36.5528 42.8134 36.6984 42.6619 36.8878C42.5104 37.0772 42.3944 37.2997 42.3139 37.5554C42.2334 37.8111 42.192 38.0916 42.1896 38.397C42.1896 39.0575 42.3435 39.5795 42.6513 39.9631C42.9614 40.3442 43.3852 40.5348 43.9226 40.5348ZM49.8699 41.1136C49.3609 41.1136 48.9205 40.9953 48.5488 40.7585C48.1771 40.5194 47.8895 40.1892 47.6859 39.7678C47.4847 39.344 47.3841 38.8563 47.3841 38.3047C47.3841 37.7554 47.4847 37.2678 47.6859 36.8416C47.8895 36.4131 48.17 36.0781 48.5275 35.8366C48.8874 35.5928 49.3029 35.4709 49.774 35.4709C50.0699 35.4709 50.3552 35.5253 50.6298 35.6342C50.9044 35.7408 51.1506 35.9053 51.3684 36.1278C51.5886 36.348 51.7626 36.6262 51.8904 36.9624C52.0183 37.2962 52.0822 37.6915 52.0822 38.1484V38.4609H47.8208V37.9034H51.4359C51.4359 37.553 51.3649 37.2382 51.2228 36.9588C51.0832 36.6771 50.8878 36.4545 50.6369 36.2912C50.3883 36.1278 50.1007 36.0462 49.774 36.0462C49.4283 36.0462 49.1241 36.1385 48.8613 36.3232C48.5985 36.5078 48.3926 36.7517 48.2434 37.0547C48.0967 37.3577 48.0221 37.6892 48.0197 38.049V38.3828C48.0197 38.8161 48.0943 39.1948 48.2434 39.5192C48.3949 39.8411 48.6092 40.0909 48.8862 40.2685C49.1632 40.446 49.4911 40.5348 49.8699 40.5348C50.1279 40.5348 50.354 40.4946 50.5481 40.4141C50.7446 40.3336 50.9092 40.2259 51.0417 40.0909C51.1767 39.9536 51.2785 39.8033 51.3471 39.6399L51.9473 39.8352C51.8644 40.0649 51.7283 40.2768 51.5389 40.4709C51.3519 40.665 51.1175 40.8213 50.8358 40.9396C50.5564 41.0556 50.2344 41.1136 49.8699 41.1136ZM53.1236 39.608H53.7947C53.8137 39.8991 53.9392 40.1264 54.1712 40.2898C54.4032 40.4531 54.7086 40.5348 55.0874 40.5348C55.4804 40.5348 55.8047 40.4472 56.0604 40.272C56.3161 40.0945 56.4439 39.8364 56.4439 39.4979C56.4439 39.2919 56.3954 39.1132 56.2983 38.9616C56.2036 38.8101 56.0734 38.6918 55.9077 38.6065C55.7443 38.5189 55.5585 38.474 55.3501 38.4716H54.3984V37.8928H55.3395C55.6638 37.8738 55.91 37.7862 56.0781 37.63C56.2462 37.4714 56.3303 37.2642 56.3303 37.0085C56.3303 36.7173 56.2273 36.4841 56.0213 36.3089C55.8153 36.1314 55.536 36.0426 55.1832 36.0426C54.8258 36.0426 54.5286 36.1302 54.2919 36.3054C54.0552 36.4806 53.9297 36.7055 53.9155 36.9801H53.2514C53.2633 36.6842 53.352 36.4238 53.5178 36.1989C53.6835 35.9716 53.9072 35.794 54.1889 35.6662C54.473 35.5384 54.795 35.4744 55.1548 35.4744C55.5241 35.4744 55.8449 35.5407 56.1172 35.6733C56.3894 35.8059 56.6001 35.987 56.7493 36.2166C56.8984 36.4439 56.973 36.7019 56.973 36.9908C56.973 37.2914 56.8902 37.5388 56.7244 37.733C56.5611 37.9247 56.3516 38.0597 56.0959 38.1378V38.1911C56.29 38.2124 56.4605 38.2834 56.6072 38.4041C56.7564 38.5249 56.8736 38.6799 56.9588 38.8693C57.044 39.0587 57.0866 39.2682 57.0866 39.4979C57.0866 39.8198 57.0026 40.1027 56.8345 40.3466C56.6664 40.5881 56.4321 40.7763 56.1314 40.9112C55.8331 41.0462 55.4886 41.1136 55.098 41.1136C54.7216 41.1136 54.3866 41.0509 54.093 40.9254C53.7995 40.7976 53.5663 40.6212 53.3935 40.3963C53.223 40.169 53.133 39.9062 53.1236 39.608ZM60.5073 41.1136C60.0362 41.1136 59.6195 40.9941 59.2573 40.755C58.8974 40.5159 58.6157 40.1856 58.4121 39.7642C58.2085 39.3404 58.1067 38.8516 58.1067 38.2976C58.1067 37.7389 58.2085 37.2476 58.4121 36.8239C58.6157 36.3977 58.8974 36.0663 59.2573 35.8295C59.6195 35.5904 60.0362 35.4709 60.5073 35.4709C60.9784 35.4709 61.3939 35.5904 61.7537 35.8295C62.1136 36.0687 62.3953 36.4001 62.5989 36.8239C62.8049 37.2476 62.9078 37.7389 62.9078 38.2976C62.9078 38.8516 62.806 39.3404 62.6025 39.7642C62.3989 40.1856 62.1159 40.5159 61.7537 40.755C61.3939 40.9941 60.9784 41.1136 60.5073 41.1136ZM60.5073 40.5348C60.8861 40.5348 61.2069 40.433 61.4696 40.2294C61.7324 40.0258 61.9313 39.7547 62.0662 39.4162C62.2035 39.0777 62.2722 38.7048 62.2722 38.2976C62.2722 37.8904 62.2035 37.5163 62.0662 37.1754C61.9313 36.8345 61.7324 36.5611 61.4696 36.3551C61.2069 36.1491 60.8861 36.0462 60.5073 36.0462C60.1309 36.0462 59.8101 36.1491 59.5449 36.3551C59.2821 36.5611 59.0821 36.8345 58.9448 37.1754C58.8098 37.5163 58.7424 37.8904 58.7424 38.2976C58.7424 38.7048 58.8098 39.0777 58.9448 39.4162C59.0821 39.7547 59.2821 40.0258 59.5449 40.2294C59.8077 40.433 60.1285 40.5348 60.5073 40.5348ZM64.3026 41V35.5455H68.4325V41H67.7969V36.142H64.9382V41H64.3026ZM71.6294 41.1243C71.3004 41.1243 70.9997 41.0604 70.7275 40.9325C70.4552 40.8023 70.2386 40.6153 70.0776 40.3714C69.9166 40.1252 69.8361 39.8269 69.8361 39.4766C69.8361 39.2067 69.887 38.9794 69.9888 38.7947C70.0906 38.6101 70.235 38.4586 70.4221 38.3402C70.6091 38.2218 70.8304 38.1283 71.0861 38.0597C71.3418 37.991 71.6235 37.9377 71.9313 37.8999C72.2367 37.862 72.4947 37.8288 72.7054 37.8004C72.9185 37.772 73.0807 37.727 73.1919 37.6655C73.3032 37.6039 73.3588 37.5045 73.3588 37.3672V37.2393C73.3588 36.8677 73.2476 36.5753 73.025 36.3622C72.8049 36.1468 72.4876 36.0391 72.0733 36.0391C71.6803 36.0391 71.3596 36.1255 71.111 36.2983C70.8648 36.4711 70.6919 36.6747 70.5925 36.9091L69.9924 36.6925C70.1155 36.3942 70.2859 36.1562 70.5037 35.9787C70.7215 35.7988 70.9654 35.6697 71.2353 35.5916C71.5051 35.5111 71.7786 35.4709 72.0556 35.4709C72.2639 35.4709 72.4805 35.4981 72.7054 35.5526C72.9327 35.607 73.1434 35.7017 73.3375 35.8366C73.5317 35.9692 73.6891 36.1551 73.8098 36.3942C73.9306 36.6309 73.9909 36.9316 73.9909 37.2962V41H73.3588V40.1371H73.3198C73.244 40.2981 73.1316 40.4543 72.9824 40.6058C72.8333 40.7573 72.6462 40.8816 72.4213 40.9787C72.1964 41.0758 71.9325 41.1243 71.6294 41.1243ZM71.7147 40.5455C72.0508 40.5455 72.342 40.4709 72.5882 40.3217C72.8345 40.1726 73.0239 39.9749 73.1564 39.7287C73.2914 39.4801 73.3588 39.2067 73.3588 38.9084V38.12C73.3115 38.165 73.2322 38.2053 73.1209 38.2408C73.012 38.2763 72.8854 38.3082 72.7409 38.3366C72.5989 38.3627 72.4569 38.3852 72.3148 38.4041C72.1728 38.4231 72.0449 38.4396 71.9313 38.4538C71.6235 38.4917 71.3607 38.5509 71.1429 38.6314C70.9251 38.7119 70.7582 38.8232 70.6422 38.9652C70.5262 39.1049 70.4682 39.2848 70.4682 39.505C70.4682 39.8364 70.5866 40.0933 70.8233 40.2756C71.0601 40.4555 71.3572 40.5455 71.7147 40.5455ZM77.8031 41.1136C77.3154 41.1136 76.8904 40.9917 76.5282 40.7479C76.1684 40.504 75.889 40.1702 75.6902 39.7464C75.4913 39.3227 75.3919 38.8397 75.3919 38.2976C75.3919 37.7507 75.4925 37.2642 75.6937 36.8381C75.8973 36.4119 76.179 36.0781 76.5389 35.8366C76.8987 35.5928 77.3166 35.4709 77.7924 35.4709C78.157 35.4709 78.4873 35.5419 78.7832 35.6839C79.0791 35.8236 79.323 36.0213 79.5147 36.277C79.7089 36.5303 79.8308 36.8262 79.8805 37.1648H79.2413C79.175 36.857 79.0152 36.5942 78.7619 36.3764C78.5109 36.1562 78.1913 36.0462 77.8031 36.0462C77.4551 36.0462 77.1473 36.1409 76.8798 36.3303C76.6123 36.5173 76.4028 36.7789 76.2512 37.1151C76.1021 37.4489 76.0275 37.8359 76.0275 38.2763C76.0275 38.719 76.1009 39.1108 76.2477 39.4517C76.3945 39.7902 76.6004 40.0554 76.8656 40.2472C77.1331 40.4389 77.4456 40.5348 77.8031 40.5348C78.0446 40.5348 78.2647 40.4898 78.4636 40.3999C78.6648 40.3075 78.8329 40.1773 78.9679 40.0092C79.1052 39.8411 79.1975 39.6411 79.2449 39.4091H79.8841C79.8367 39.7382 79.7195 40.0317 79.5325 40.2898C79.3478 40.5455 79.1075 40.7467 78.8116 40.8935C78.5181 41.0402 78.1819 41.1136 77.8031 41.1136ZM84.9213 37.978V38.5746H81.7147V37.978H84.9213ZM81.8709 35.5455V41H81.2388V35.5455H81.8709ZM85.3865 35.5455V41H84.7544V35.5455H85.3865ZM87.6016 37.6513H89.1996C89.8127 37.6513 90.2862 37.8004 90.62 38.0987C90.9538 38.397 91.1207 38.8007 91.1207 39.3097C91.1207 39.6482 91.045 39.9441 90.8935 40.1974C90.7443 40.4508 90.5265 40.6484 90.2401 40.7905C89.9536 40.9302 89.6068 41 89.1996 41H87.076V35.5455H87.7116V40.4034H89.1996C89.5855 40.4034 89.8956 40.3111 90.13 40.1264C90.3667 39.9418 90.4851 39.679 90.4851 39.3381C90.4851 38.9901 90.3667 38.7214 90.13 38.532C89.8956 38.3426 89.5855 38.2479 89.1996 38.2479H87.6016V37.6513ZM92.0405 41V35.5455H92.6726V41H92.0405ZM94.9862 40.1016L97.8661 35.5455H98.6225V41H97.9904V36.4439L95.1211 41H94.354V35.5455H94.9862V40.1016ZM97.1417 33.7273H97.7383C97.7383 34.0658 97.6258 34.3404 97.4009 34.5511C97.1784 34.7618 96.8742 34.8672 96.4883 34.8672C96.1071 34.8672 95.8053 34.7618 95.5827 34.5511C95.3602 34.3404 95.2489 34.0658 95.2489 33.7273H95.8455C95.8455 33.9119 95.8952 34.0682 95.9947 34.196C96.0965 34.3215 96.261 34.3842 96.4883 34.3842C96.7156 34.3842 96.8813 34.3215 96.9854 34.196C97.0896 34.0682 97.1417 33.9119 97.1417 33.7273ZM104.627 41.1243C104.298 41.1243 103.998 41.0604 103.725 40.9325C103.453 40.8023 103.237 40.6153 103.076 40.3714C102.915 40.1252 102.834 39.8269 102.834 39.4766C102.834 39.2067 102.885 38.9794 102.987 38.7947C103.089 38.6101 103.233 38.4586 103.42 38.3402C103.607 38.2218 103.828 38.1283 104.084 38.0597C104.34 37.991 104.622 37.9377 104.929 37.8999C105.235 37.862 105.493 37.8288 105.703 37.8004C105.917 37.772 106.079 37.727 106.19 37.6655C106.301 37.6039 106.357 37.5045 106.357 37.3672V37.2393C106.357 36.8677 106.246 36.5753 106.023 36.3622C105.803 36.1468 105.486 36.0391 105.071 36.0391C104.678 36.0391 104.358 36.1255 104.109 36.2983C103.863 36.4711 103.69 36.6747 103.591 36.9091L102.99 36.6925C103.114 36.3942 103.284 36.1562 103.502 35.9787C103.72 35.7988 103.963 35.6697 104.233 35.5916C104.503 35.5111 104.777 35.4709 105.054 35.4709C105.262 35.4709 105.479 35.4981 105.703 35.5526C105.931 35.607 106.141 35.7017 106.336 35.8366C106.53 35.9692 106.687 36.1551 106.808 36.3942C106.929 36.6309 106.989 36.9316 106.989 37.2962V41H106.357V40.1371H106.318C106.242 40.2981 106.13 40.4543 105.98 40.6058C105.831 40.7573 105.644 40.8816 105.419 40.9787C105.194 41.0758 104.931 41.1243 104.627 41.1243ZM104.713 40.5455C105.049 40.5455 105.34 40.4709 105.586 40.3217C105.833 40.1726 106.022 39.9749 106.154 39.7287C106.289 39.4801 106.357 39.2067 106.357 38.9084V38.12C106.31 38.165 106.23 38.2053 106.119 38.2408C106.01 38.2763 105.883 38.3082 105.739 38.3366C105.597 38.3627 105.455 38.3852 105.313 38.4041C105.171 38.4231 105.043 38.4396 104.929 38.4538C104.622 38.4917 104.359 38.5509 104.141 38.6314C103.923 38.7119 103.756 38.8232 103.64 38.9652C103.524 39.1049 103.466 39.2848 103.466 39.505C103.466 39.8364 103.585 40.0933 103.821 40.2756C104.058 40.4555 104.355 40.5455 104.713 40.5455ZM108.67 41V35.5455H109.303V37.9993H109.896L111.923 35.5455H112.74L110.553 38.1697L112.79 41H111.973L110.091 38.5959H109.303V41H108.67ZM113.827 41V35.5455H114.459V37.9993H115.052L117.08 35.5455H117.896L115.709 38.1697L117.946 41H117.129L115.247 38.5959H114.459V41H113.827ZM120.506 41.1243C120.177 41.1243 119.877 41.0604 119.604 40.9325C119.332 40.8023 119.116 40.6153 118.955 40.3714C118.794 40.1252 118.713 39.8269 118.713 39.4766C118.713 39.2067 118.764 38.9794 118.866 38.7947C118.968 38.6101 119.112 38.4586 119.299 38.3402C119.486 38.2218 119.707 38.1283 119.963 38.0597C120.219 37.991 120.5 37.9377 120.808 37.8999C121.114 37.862 121.372 37.8288 121.582 37.8004C121.795 37.772 121.958 37.727 122.069 37.6655C122.18 37.6039 122.236 37.5045 122.236 37.3672V37.2393C122.236 36.8677 122.125 36.5753 121.902 36.3622C121.682 36.1468 121.365 36.0391 120.95 36.0391C120.557 36.0391 120.237 36.1255 119.988 36.2983C119.742 36.4711 119.569 36.6747 119.469 36.9091L118.869 36.6925C118.992 36.3942 119.163 36.1562 119.381 35.9787C119.598 35.7988 119.842 35.6697 120.112 35.5916C120.382 35.5111 120.656 35.4709 120.933 35.4709C121.141 35.4709 121.357 35.4981 121.582 35.5526C121.81 35.607 122.02 35.7017 122.214 35.8366C122.409 35.9692 122.566 36.1551 122.687 36.3942C122.808 36.6309 122.868 36.9316 122.868 37.2962V41H122.236V40.1371H122.197C122.121 40.2981 122.009 40.4543 121.859 40.6058C121.71 40.7573 121.523 40.8816 121.298 40.9787C121.073 41.0758 120.809 41.1243 120.506 41.1243ZM120.592 40.5455C120.928 40.5455 121.219 40.4709 121.465 40.3217C121.711 40.1726 121.901 39.9749 122.033 39.7287C122.168 39.4801 122.236 39.2067 122.236 38.9084V38.12C122.188 38.165 122.109 38.2053 121.998 38.2408C121.889 38.2763 121.762 38.3082 121.618 38.3366C121.476 38.3627 121.334 38.3852 121.192 38.4041C121.05 38.4231 120.922 38.4396 120.808 38.4538C120.5 38.4917 120.238 38.5509 120.02 38.6314C119.802 38.7119 119.635 38.8232 119.519 38.9652C119.403 39.1049 119.345 39.2848 119.345 39.505C119.345 39.8364 119.464 40.0933 119.7 40.2756C119.937 40.4555 120.234 40.5455 120.592 40.5455ZM124.794 43.0455C124.669 43.0455 124.552 43.0336 124.443 43.0099C124.334 42.9863 124.248 42.9602 124.184 42.9318L124.354 42.3743C124.569 42.4406 124.761 42.4643 124.929 42.4453C125.097 42.4287 125.247 42.353 125.377 42.218C125.507 42.0855 125.623 41.8819 125.725 41.6072L125.924 41.0533L123.917 35.5455H124.603L126.222 40.1655H126.272L127.891 35.5455H128.576L126.268 41.8629C126.171 42.1257 126.051 42.3447 125.909 42.5199C125.767 42.6974 125.603 42.8288 125.416 42.9141C125.231 43.0017 125.024 43.0455 124.794 43.0455ZM133.496 37.978V38.5746H130.289V37.978H133.496ZM130.445 35.5455V41H129.813V35.5455H130.445ZM133.961 35.5455V41H133.329V35.5455H133.961ZM134.88 36.142V35.5455H139.141V36.142H137.337V41H136.705V36.142H134.88Z" fill="black"/>
</svg>
