<svg width="37" height="37" viewBox="0 0 37 37" fill="none" xmlns="http://www.w3.org/2000/svg">
<rect width="37" height="37" rx="10" fill="#FFB1C9"/>
<g filter="url(#filter0_i_928_8742)">
<path d="M26.045 6.58299C22.3541 6.90827 19.6305 8.75056 18.0428 11.4139C16.9787 12.7478 14.8532 16.8201 14.0802 18.952C12.6786 21.603 11.4563 24.7572 10.4998 27.6007C9.91515 29.3395 12.5405 30.4739 13.1285 28.7272C13.8439 26.5999 14.7081 24.2998 15.6847 22.1654C16.6538 24.3344 17.6386 26.4964 18.696 28.6241C19.5155 30.2759 21.9816 28.8274 21.165 27.1812C20.0764 24.9909 19.0652 22.7657 18.0688 20.533C18.0815 20.4898 18.0975 20.4478 18.1109 20.405C18.2769 20.4522 18.46 20.4667 18.6617 20.4284C20.1862 20.1422 21.7106 19.8567 23.2362 19.5705C23.8878 19.4481 24.1376 18.735 24.0349 18.1641C23.7267 16.4532 22.752 15.2629 21.5387 14.1367C21.3585 13.5241 20.7578 12.9822 20.0913 12.4437C21.4426 10.259 23.6489 9.07324 26.5206 8.82016C27.9863 8.69175 27.498 6.45533 26.045 6.58299ZM20.4906 16.3076C20.8676 16.6999 21.1884 17.1127 21.4307 17.5905C20.6931 17.729 19.955 17.8671 19.2174 18.0055C19.5896 17.4063 20.0179 16.8406 20.4906 16.3076Z" fill="#FE467E"/>
<path d="M23.6467 14.36C24.7309 14.36 25.6099 13.4811 25.6099 12.3968C25.6099 11.3125 24.7309 10.4335 23.6467 10.4335C22.5624 10.4335 21.6834 11.3125 21.6834 12.3968C21.6834 13.4811 22.5624 14.36 23.6467 14.36Z" fill="#FE467E"/>
</g>
<defs>
<filter id="filter0_i_928_8742" x="10.4155" y="6.57773" width="16.9911" height="25.0223" filterUnits="userSpaceOnUse" color-interpolation-filters="sRGB">
<feFlood flood-opacity="0" result="BackgroundImageFix"/>
<feBlend mode="normal" in="SourceGraphic" in2="BackgroundImageFix" result="shape"/>
<feColorMatrix in="SourceAlpha" type="matrix" values="0 0 0 0 0 0 0 0 0 0 0 0 0 0 0 0 0 0 127 0" result="hardAlpha"/>
<feOffset dy="4"/>
<feGaussianBlur stdDeviation="1"/>
<feComposite in2="hardAlpha" operator="arithmetic" k2="-1" k3="1"/>
<feColorMatrix type="matrix" values="0 0 0 0 0 0 0 0 0 0 0 0 0 0 0 0 0 0 0.15 0"/>
<feBlend mode="normal" in2="shape" result="effect1_innerShadow_928_8742"/>
</filter>
</defs>
</svg>
