<svg width="20" height="20" viewBox="0 0 20 20" fill="none" xmlns="http://www.w3.org/2000/svg">
<path d="M13.1844 2.80518H6.8156C4.0492 2.80518 2.4 4.36758 2.4 6.98838V13.022C2.4 15.6428 4.0492 17.2052 6.8156 17.2052H13.1844C15.9508 17.2052 17.6 15.6428 17.6 13.022V6.98838C17.6 4.36758 15.9508 2.80518 13.1844 2.80518ZM8.4572 12.0932L6.7472 13.7132C6.6332 13.8212 6.4888 13.8716 6.3444 13.8716C6.2 13.8716 6.048 13.8212 5.9416 13.7132L5.3716 13.1732C5.1436 12.9644 5.1436 12.6188 5.3716 12.41C5.592 12.2012 5.9492 12.2012 6.1772 12.41L6.3444 12.5684L7.6516 11.33C7.872 11.1212 8.2292 11.1212 8.4572 11.33C8.6776 11.5388 8.6776 11.8844 8.4572 12.0932ZM8.4572 7.05318L6.7472 8.67318C6.6332 8.78118 6.4888 8.83158 6.3444 8.83158C6.2 8.83158 6.048 8.78118 5.9416 8.67318L5.3716 8.13318C5.1436 7.92438 5.1436 7.57878 5.3716 7.36998C5.592 7.16118 5.9492 7.16118 6.1772 7.36998L6.3444 7.52838L7.6516 6.28998C7.872 6.08118 8.2292 6.08118 8.4572 6.28998C8.6776 6.49878 8.6776 6.84438 8.4572 7.05318ZM14.2256 13.3316H10.2356C9.924 13.3316 9.6656 13.0868 9.6656 12.7916C9.6656 12.4964 9.924 12.2516 10.2356 12.2516H14.2256C14.5448 12.2516 14.7956 12.4964 14.7956 12.7916C14.7956 13.0868 14.5448 13.3316 14.2256 13.3316ZM14.2256 8.29158H10.2356C9.924 8.29158 9.6656 8.04678 9.6656 7.75158C9.6656 7.45638 9.924 7.21158 10.2356 7.21158H14.2256C14.5448 7.21158 14.7956 7.45638 14.7956 7.75158C14.7956 8.04678 14.5448 8.29158 14.2256 8.29158Z" fill="#FFB743"/>
</svg>
