<svg width="17" height="16" viewBox="0 0 17 16" fill="none" xmlns="http://www.w3.org/2000/svg">
<path d="M14.8675 9.65045C14.7349 9.65045 14.6077 9.70313 14.514 9.7969C14.4202 9.89067 14.3675 10.0178 14.3675 10.1505V11.858C14.3675 12.2604 14.2076 12.6464 13.923 12.931C13.6385 13.2156 13.2525 13.3755 12.85 13.3755H4.15001C3.74754 13.3755 3.36156 13.2156 3.07697 12.931C2.79239 12.6464 2.63251 12.2604 2.63251 11.858V10.1505C2.63251 10.0178 2.57983 9.89067 2.48606 9.7969C2.39229 9.70313 2.26512 9.65045 2.13251 9.65045C1.9999 9.65045 1.87272 9.70313 1.77895 9.7969C1.68519 9.89067 1.63251 10.0178 1.63251 10.1505V11.858C1.63317 12.5254 1.89862 13.1654 2.3706 13.6374C2.84258 14.1093 3.48253 14.3748 4.15001 14.3755H12.85C13.5175 14.3748 14.1574 14.1093 14.6294 13.6374C15.1014 13.1654 15.3668 12.5254 15.3675 11.858V10.1505C15.3675 10.0178 15.3148 9.89067 15.2211 9.7969C15.1273 9.70313 15.0001 9.65045 14.8675 9.65045Z" fill="#26326F"/>
<path d="M6.00003 5.32546L8.00003 3.32546V10.7505C8.00003 10.8831 8.05271 11.0102 8.14648 11.104C8.24025 11.1978 8.36742 11.2505 8.50003 11.2505C8.63264 11.2505 8.75982 11.1978 8.85358 11.104C8.94735 11.0102 9.00003 10.8831 9.00003 10.7505V3.33296L11 5.33296C11.0465 5.37942 11.1016 5.41627 11.1623 5.44141C11.223 5.46655 11.2881 5.47949 11.3538 5.47949C11.4195 5.47949 11.4845 5.46655 11.5452 5.44141C11.6059 5.41627 11.6611 5.37942 11.7075 5.33296C11.754 5.28651 11.7908 5.23136 11.816 5.17066C11.8411 5.10996 11.8541 5.04491 11.8541 4.97921C11.8541 4.91352 11.8411 4.84846 11.816 4.78777C11.7908 4.72707 11.754 4.67192 11.7075 4.62546L8.85503 1.77296C8.78553 1.70555 8.69918 1.65805 8.60503 1.63546C8.52411 1.62057 8.44079 1.62528 8.36206 1.6492C8.28334 1.67312 8.21148 1.71556 8.15253 1.77296L5.30003 4.61796C5.22065 4.71348 5.17966 4.83512 5.18504 4.9592C5.19042 5.08328 5.24179 5.20092 5.32914 5.2892C5.41649 5.37749 5.53357 5.43011 5.65759 5.43681C5.7816 5.44351 5.90367 5.40382 6.00003 5.32546Z" fill="#26326F"/>
</svg>
