<svg width="40" height="40" viewBox="0 0 40 40" fill="none" xmlns="http://www.w3.org/2000/svg">
<rect width="40" height="40" rx="10" fill="#E6E6FF"/>
<path d="M18.9805 17.5018V22.5364L23.0087 20.0191L18.9805 17.5018Z" fill="#8D8DEB"/>
<path d="M11.0501 30.2604H30.0622C32.234 30.2604 34.0011 28.4933 34.0011 26.3214V13.7167C34.0011 11.5449 32.234 9.77777 30.0622 9.77777H11.0501C8.87824 9.77777 7.11111 11.5449 7.11111 13.7167V26.3214C7.11111 28.4933 8.87824 30.2604 11.0501 30.2604ZM17.405 16.0801C17.405 15.7939 17.5604 15.53 17.8111 15.3908C18.0589 15.2523 18.3674 15.2592 18.6105 15.4123L24.9128 19.3513C25.1429 19.4952 25.2829 19.7475 25.2829 20.0191C25.2829 20.2907 25.1429 20.543 24.9128 20.6869L18.6105 24.6258C18.4828 24.7058 18.3382 24.7459 18.1927 24.7459C18.0612 24.7459 17.9296 24.7128 17.8111 24.6474C17.5604 24.5082 17.405 24.2442 17.405 23.9581V16.0801Z" fill="#8D8DEB"/>
</svg>
