<svg width="37" height="37" viewBox="0 0 37 37" fill="none" xmlns="http://www.w3.org/2000/svg">
<rect width="37" height="37" rx="10" fill="#8BDCFF"/>
<g filter="url(#filter0_i_928_8823)">
<path d="M28.5956 12.5463C28.8387 12.8952 28.9833 13.3168 28.9833 13.7722V25.2833C28.9833 26.4704 28.0121 27.4417 26.825 27.4417H10.9972C9.81014 27.4417 8.83889 26.4704 8.83889 25.2833V13.7722C8.83889 13.3168 8.9835 12.8952 9.22667 12.5463L12.1303 17.1277C12.5318 17.7292 13.203 18.0889 13.9261 18.0889H16.1664C16.4643 18.9242 17.2557 19.5278 18.1924 19.5278H19.6313C20.568 19.5278 21.3594 18.9242 21.6572 18.0889H23.8976C24.6206 18.0889 25.2919 17.7292 25.7027 17.114L28.597 12.547L28.5956 12.5463ZM18.1917 16.65C17.7953 16.65 17.4722 16.973 17.4722 17.3694C17.4722 17.7659 17.7953 18.0889 18.1917 18.0889H19.6306C20.027 18.0889 20.35 17.7659 20.35 17.3694C20.35 16.973 20.027 16.65 19.6306 16.65H18.1917ZM10.3994 11.7096C10.5907 11.6535 10.7886 11.6139 10.9972 11.6139H14.5944V10.8944C14.5944 9.70736 15.5657 8.73611 16.7528 8.73611H21.0694C22.2565 8.73611 23.2278 9.70736 23.2278 10.8944V11.6139H26.825C27.0336 11.6139 27.2315 11.6535 27.4229 11.7096L24.4954 16.3298C24.3616 16.5306 24.1379 16.65 23.8969 16.65H21.6565C21.3587 15.8147 20.5673 15.2111 19.6306 15.2111H18.1917C17.255 15.2111 16.4636 15.8147 16.1657 16.65H13.9254C13.6843 16.65 13.4606 16.5299 13.3361 16.3435L10.3994 11.7096ZM16.0333 11.6139H21.7889V10.8944C21.7889 10.4987 21.4651 10.175 21.0694 10.175H16.7528C16.3571 10.175 16.0333 10.4987 16.0333 10.8944V11.6139Z" fill="#26ADE7"/>
</g>
<defs>
<filter id="filter0_i_928_8823" x="8.83889" y="8.73611" width="20.1444" height="22.7056" filterUnits="userSpaceOnUse" color-interpolation-filters="sRGB">
<feFlood flood-opacity="0" result="BackgroundImageFix"/>
<feBlend mode="normal" in="SourceGraphic" in2="BackgroundImageFix" result="shape"/>
<feColorMatrix in="SourceAlpha" type="matrix" values="0 0 0 0 0 0 0 0 0 0 0 0 0 0 0 0 0 0 127 0" result="hardAlpha"/>
<feOffset dy="4"/>
<feGaussianBlur stdDeviation="2"/>
<feComposite in2="hardAlpha" operator="arithmetic" k2="-1" k3="1"/>
<feColorMatrix type="matrix" values="0 0 0 0 0 0 0 0 0 0 0 0 0 0 0 0 0 0 0.1 0"/>
<feBlend mode="normal" in2="shape" result="effect1_innerShadow_928_8823"/>
</filter>
</defs>
</svg>
