<svg width="40" height="40" viewBox="0 0 40 40" fill="none" xmlns="http://www.w3.org/2000/svg">
<rect width="40" height="40" rx="10" fill="#FFE4EC"/>
<path d="M28.0556 7.11111H11.9444C10.2589 7.11111 8.88889 8.43545 8.88889 10.0648V29.9352C8.88889 31.5646 10.2589 32.8889 11.9444 32.8889H28.0556C29.7411 32.8889 31.1111 31.5646 31.1111 29.9352V10.0648C31.1111 8.43545 29.7411 7.11111 28.0556 7.11111ZM12.2222 16.5093C12.2222 16.0646 12.5956 15.7037 13.0556 15.7037H19.1667C19.6267 15.7037 20 16.0646 20 16.5093V17.5833C20 18.028 19.6267 18.3889 19.1667 18.3889C18.7067 18.3889 18.3333 18.028 18.3333 17.5833V17.3148H16.9444V21.6111C17.4044 21.6111 17.7778 21.972 17.7778 22.4167C17.7778 22.8613 17.4044 23.2222 16.9444 23.2222H15.2778C14.8178 23.2222 14.4444 22.8613 14.4444 22.4167C14.4444 21.972 14.8178 21.6111 15.2778 21.6111V17.3148H13.8889V17.5833C13.8889 18.028 13.5156 18.3889 13.0556 18.3889C12.5956 18.3889 12.2222 18.028 12.2222 17.5833V16.5093ZM26.9444 29.6667H13.0556C12.5956 29.6667 12.2222 29.3058 12.2222 28.8611C12.2222 28.4164 12.5956 28.0556 13.0556 28.0556H26.9444C27.4044 28.0556 27.7778 28.4164 27.7778 28.8611C27.7778 29.3058 27.4044 29.6667 26.9444 29.6667ZM26.9444 26.4444H13.0556C12.5956 26.4444 12.2222 26.0836 12.2222 25.6389C12.2222 25.1942 12.5956 24.8333 13.0556 24.8333H26.9444C27.4044 24.8333 27.7778 25.1942 27.7778 25.6389C27.7778 26.0836 27.4044 26.4444 26.9444 26.4444ZM26.9444 23.2222H23.0556C22.5956 23.2222 22.2222 22.8613 22.2222 22.4167C22.2222 21.972 22.5956 21.6111 23.0556 21.6111H26.9444C27.4044 21.6111 27.7778 21.972 27.7778 22.4167C27.7778 22.8613 27.4044 23.2222 26.9444 23.2222ZM26.9444 20.2685H23.0556C22.5956 20.2685 22.2222 19.9076 22.2222 19.463C22.2222 19.0183 22.5956 18.6574 23.0556 18.6574H26.9444C27.4044 18.6574 27.7778 19.0183 27.7778 19.463C27.7778 19.9076 27.4044 20.2685 26.9444 20.2685ZM26.9444 17.3148H23.0556C22.5956 17.3148 22.2222 16.9539 22.2222 16.5093C22.2222 16.0646 22.5956 15.7037 23.0556 15.7037H26.9444C27.4044 15.7037 27.7778 16.0646 27.7778 16.5093C27.7778 16.9539 27.4044 17.3148 26.9444 17.3148Z" fill="#FF85AA"/>
</svg>
