<svg width="15" height="15" viewBox="0 0 15 15" fill="none" xmlns="http://www.w3.org/2000/svg">
<path d="M7.5 6.33332C11.0899 6.33332 14 5.36327 14 4.16666C14 2.97005 11.0899 2 7.5 2C3.91015 2 1 2.97005 1 4.16666C1 5.36327 3.91015 6.33332 7.5 6.33332Z" fill="#F4A100"/>
<path d="M7.5 6.33332C11.0899 6.33332 14 5.36327 14 4.16666C14 2.97005 11.0899 2 7.5 2C3.91015 2 1 2.97005 1 4.16666C1 5.36327 3.91015 6.33332 7.5 6.33332Z" fill="#F4A100"/>
<path d="M12.5073 6.93208C11.1505 7.38431 9.37225 7.63339 7.5 7.63339C5.62775 7.63339 3.84946 7.38431 2.49271 6.93208C1.87181 6.72512 1.38307 6.4899 1 6.24039V7.15671C1 7.73544 1.67608 8.27956 2.90381 8.68875C4.13148 9.098 5.76376 9.32339 7.5 9.32339C9.23624 9.32339 10.8685 9.09803 12.0962 8.68878C13.3239 8.27956 14 7.73544 14 7.15671V6.24039C13.6169 6.4899 13.1282 6.72507 12.5073 6.93208Z" fill="#F4A100"/>
<path d="M12.5073 9.92207C11.1506 10.3743 9.37225 10.6234 7.5 10.6234C5.62775 10.6234 3.84944 10.3743 2.49271 9.92205C1.87179 9.71509 1.38304 9.47992 1 9.23041V10.2334C1 11.43 3.91015 12.4 7.5 12.4C11.0899 12.4 14 11.43 14 10.2334V9.23043C13.617 9.4799 13.1282 9.71511 12.5073 9.92207Z" fill="#F4A100"/>
</svg>
